%TF.GenerationSoftware,KiCad,Pcbnew,8.0.4-1.fc40*%
%TF.CreationDate,2024-09-05T19:31:20+01:00*%
%TF.ProjectId,better-lamp-controller,62657474-6572-42d6-9c61-6d702d636f6e,rev?*%
%TF.SameCoordinates,Original*%
%TF.FileFunction,Legend,Top*%
%TF.FilePolarity,Positive*%
%FSLAX46Y46*%
G04 Gerber Fmt 4.6, Leading zero omitted, Abs format (unit mm)*
G04 Created by KiCad (PCBNEW 8.0.4-1.fc40) date 2024-09-05 19:31:20*
%MOMM*%
%LPD*%
G01*
G04 APERTURE LIST*
%ADD10C,0.150000*%
%ADD11C,0.100000*%
%ADD12C,0.120000*%
G04 APERTURE END LIST*
D10*
X123357142Y-121459580D02*
X123309523Y-121507200D01*
X123309523Y-121507200D02*
X123166666Y-121554819D01*
X123166666Y-121554819D02*
X123071428Y-121554819D01*
X123071428Y-121554819D02*
X122928571Y-121507200D01*
X122928571Y-121507200D02*
X122833333Y-121411961D01*
X122833333Y-121411961D02*
X122785714Y-121316723D01*
X122785714Y-121316723D02*
X122738095Y-121126247D01*
X122738095Y-121126247D02*
X122738095Y-120983390D01*
X122738095Y-120983390D02*
X122785714Y-120792914D01*
X122785714Y-120792914D02*
X122833333Y-120697676D01*
X122833333Y-120697676D02*
X122928571Y-120602438D01*
X122928571Y-120602438D02*
X123071428Y-120554819D01*
X123071428Y-120554819D02*
X123166666Y-120554819D01*
X123166666Y-120554819D02*
X123309523Y-120602438D01*
X123309523Y-120602438D02*
X123357142Y-120650057D01*
X123690476Y-120554819D02*
X124309523Y-120554819D01*
X124309523Y-120554819D02*
X123976190Y-120935771D01*
X123976190Y-120935771D02*
X124119047Y-120935771D01*
X124119047Y-120935771D02*
X124214285Y-120983390D01*
X124214285Y-120983390D02*
X124261904Y-121031009D01*
X124261904Y-121031009D02*
X124309523Y-121126247D01*
X124309523Y-121126247D02*
X124309523Y-121364342D01*
X124309523Y-121364342D02*
X124261904Y-121459580D01*
X124261904Y-121459580D02*
X124214285Y-121507200D01*
X124214285Y-121507200D02*
X124119047Y-121554819D01*
X124119047Y-121554819D02*
X123833333Y-121554819D01*
X123833333Y-121554819D02*
X123738095Y-121507200D01*
X123738095Y-121507200D02*
X123690476Y-121459580D01*
X124785714Y-121554819D02*
X124976190Y-121554819D01*
X124976190Y-121554819D02*
X125071428Y-121507200D01*
X125071428Y-121507200D02*
X125119047Y-121459580D01*
X125119047Y-121459580D02*
X125214285Y-121316723D01*
X125214285Y-121316723D02*
X125261904Y-121126247D01*
X125261904Y-121126247D02*
X125261904Y-120745295D01*
X125261904Y-120745295D02*
X125214285Y-120650057D01*
X125214285Y-120650057D02*
X125166666Y-120602438D01*
X125166666Y-120602438D02*
X125071428Y-120554819D01*
X125071428Y-120554819D02*
X124880952Y-120554819D01*
X124880952Y-120554819D02*
X124785714Y-120602438D01*
X124785714Y-120602438D02*
X124738095Y-120650057D01*
X124738095Y-120650057D02*
X124690476Y-120745295D01*
X124690476Y-120745295D02*
X124690476Y-120983390D01*
X124690476Y-120983390D02*
X124738095Y-121078628D01*
X124738095Y-121078628D02*
X124785714Y-121126247D01*
X124785714Y-121126247D02*
X124880952Y-121173866D01*
X124880952Y-121173866D02*
X125071428Y-121173866D01*
X125071428Y-121173866D02*
X125166666Y-121126247D01*
X125166666Y-121126247D02*
X125214285Y-121078628D01*
X125214285Y-121078628D02*
X125261904Y-120983390D01*
X115757142Y-74559580D02*
X115709523Y-74607200D01*
X115709523Y-74607200D02*
X115566666Y-74654819D01*
X115566666Y-74654819D02*
X115471428Y-74654819D01*
X115471428Y-74654819D02*
X115328571Y-74607200D01*
X115328571Y-74607200D02*
X115233333Y-74511961D01*
X115233333Y-74511961D02*
X115185714Y-74416723D01*
X115185714Y-74416723D02*
X115138095Y-74226247D01*
X115138095Y-74226247D02*
X115138095Y-74083390D01*
X115138095Y-74083390D02*
X115185714Y-73892914D01*
X115185714Y-73892914D02*
X115233333Y-73797676D01*
X115233333Y-73797676D02*
X115328571Y-73702438D01*
X115328571Y-73702438D02*
X115471428Y-73654819D01*
X115471428Y-73654819D02*
X115566666Y-73654819D01*
X115566666Y-73654819D02*
X115709523Y-73702438D01*
X115709523Y-73702438D02*
X115757142Y-73750057D01*
X116709523Y-74654819D02*
X116138095Y-74654819D01*
X116423809Y-74654819D02*
X116423809Y-73654819D01*
X116423809Y-73654819D02*
X116328571Y-73797676D01*
X116328571Y-73797676D02*
X116233333Y-73892914D01*
X116233333Y-73892914D02*
X116138095Y-73940533D01*
X117566666Y-73988152D02*
X117566666Y-74654819D01*
X117328571Y-73607200D02*
X117090476Y-74321485D01*
X117090476Y-74321485D02*
X117709523Y-74321485D01*
X158936666Y-127454819D02*
X158936666Y-128169104D01*
X158936666Y-128169104D02*
X158889047Y-128311961D01*
X158889047Y-128311961D02*
X158793809Y-128407200D01*
X158793809Y-128407200D02*
X158650952Y-128454819D01*
X158650952Y-128454819D02*
X158555714Y-128454819D01*
X159936666Y-128454819D02*
X159365238Y-128454819D01*
X159650952Y-128454819D02*
X159650952Y-127454819D01*
X159650952Y-127454819D02*
X159555714Y-127597676D01*
X159555714Y-127597676D02*
X159460476Y-127692914D01*
X159460476Y-127692914D02*
X159365238Y-127740533D01*
X76457142Y-80354819D02*
X76123809Y-79878628D01*
X75885714Y-80354819D02*
X75885714Y-79354819D01*
X75885714Y-79354819D02*
X76266666Y-79354819D01*
X76266666Y-79354819D02*
X76361904Y-79402438D01*
X76361904Y-79402438D02*
X76409523Y-79450057D01*
X76409523Y-79450057D02*
X76457142Y-79545295D01*
X76457142Y-79545295D02*
X76457142Y-79688152D01*
X76457142Y-79688152D02*
X76409523Y-79783390D01*
X76409523Y-79783390D02*
X76361904Y-79831009D01*
X76361904Y-79831009D02*
X76266666Y-79878628D01*
X76266666Y-79878628D02*
X75885714Y-79878628D01*
X77409523Y-80354819D02*
X76838095Y-80354819D01*
X77123809Y-80354819D02*
X77123809Y-79354819D01*
X77123809Y-79354819D02*
X77028571Y-79497676D01*
X77028571Y-79497676D02*
X76933333Y-79592914D01*
X76933333Y-79592914D02*
X76838095Y-79640533D01*
X78361904Y-80354819D02*
X77790476Y-80354819D01*
X78076190Y-80354819D02*
X78076190Y-79354819D01*
X78076190Y-79354819D02*
X77980952Y-79497676D01*
X77980952Y-79497676D02*
X77885714Y-79592914D01*
X77885714Y-79592914D02*
X77790476Y-79640533D01*
X106353333Y-85704819D02*
X105877143Y-85704819D01*
X105877143Y-85704819D02*
X105877143Y-84704819D01*
X107210476Y-85704819D02*
X106639048Y-85704819D01*
X106924762Y-85704819D02*
X106924762Y-84704819D01*
X106924762Y-84704819D02*
X106829524Y-84847676D01*
X106829524Y-84847676D02*
X106734286Y-84942914D01*
X106734286Y-84942914D02*
X106639048Y-84990533D01*
X111057142Y-98554819D02*
X110723809Y-98078628D01*
X110485714Y-98554819D02*
X110485714Y-97554819D01*
X110485714Y-97554819D02*
X110866666Y-97554819D01*
X110866666Y-97554819D02*
X110961904Y-97602438D01*
X110961904Y-97602438D02*
X111009523Y-97650057D01*
X111009523Y-97650057D02*
X111057142Y-97745295D01*
X111057142Y-97745295D02*
X111057142Y-97888152D01*
X111057142Y-97888152D02*
X111009523Y-97983390D01*
X111009523Y-97983390D02*
X110961904Y-98031009D01*
X110961904Y-98031009D02*
X110866666Y-98078628D01*
X110866666Y-98078628D02*
X110485714Y-98078628D01*
X111438095Y-97650057D02*
X111485714Y-97602438D01*
X111485714Y-97602438D02*
X111580952Y-97554819D01*
X111580952Y-97554819D02*
X111819047Y-97554819D01*
X111819047Y-97554819D02*
X111914285Y-97602438D01*
X111914285Y-97602438D02*
X111961904Y-97650057D01*
X111961904Y-97650057D02*
X112009523Y-97745295D01*
X112009523Y-97745295D02*
X112009523Y-97840533D01*
X112009523Y-97840533D02*
X111961904Y-97983390D01*
X111961904Y-97983390D02*
X111390476Y-98554819D01*
X111390476Y-98554819D02*
X112009523Y-98554819D01*
X112866666Y-97554819D02*
X112676190Y-97554819D01*
X112676190Y-97554819D02*
X112580952Y-97602438D01*
X112580952Y-97602438D02*
X112533333Y-97650057D01*
X112533333Y-97650057D02*
X112438095Y-97792914D01*
X112438095Y-97792914D02*
X112390476Y-97983390D01*
X112390476Y-97983390D02*
X112390476Y-98364342D01*
X112390476Y-98364342D02*
X112438095Y-98459580D01*
X112438095Y-98459580D02*
X112485714Y-98507200D01*
X112485714Y-98507200D02*
X112580952Y-98554819D01*
X112580952Y-98554819D02*
X112771428Y-98554819D01*
X112771428Y-98554819D02*
X112866666Y-98507200D01*
X112866666Y-98507200D02*
X112914285Y-98459580D01*
X112914285Y-98459580D02*
X112961904Y-98364342D01*
X112961904Y-98364342D02*
X112961904Y-98126247D01*
X112961904Y-98126247D02*
X112914285Y-98031009D01*
X112914285Y-98031009D02*
X112866666Y-97983390D01*
X112866666Y-97983390D02*
X112771428Y-97935771D01*
X112771428Y-97935771D02*
X112580952Y-97935771D01*
X112580952Y-97935771D02*
X112485714Y-97983390D01*
X112485714Y-97983390D02*
X112438095Y-98031009D01*
X112438095Y-98031009D02*
X112390476Y-98126247D01*
X113257142Y-94259580D02*
X113209523Y-94307200D01*
X113209523Y-94307200D02*
X113066666Y-94354819D01*
X113066666Y-94354819D02*
X112971428Y-94354819D01*
X112971428Y-94354819D02*
X112828571Y-94307200D01*
X112828571Y-94307200D02*
X112733333Y-94211961D01*
X112733333Y-94211961D02*
X112685714Y-94116723D01*
X112685714Y-94116723D02*
X112638095Y-93926247D01*
X112638095Y-93926247D02*
X112638095Y-93783390D01*
X112638095Y-93783390D02*
X112685714Y-93592914D01*
X112685714Y-93592914D02*
X112733333Y-93497676D01*
X112733333Y-93497676D02*
X112828571Y-93402438D01*
X112828571Y-93402438D02*
X112971428Y-93354819D01*
X112971428Y-93354819D02*
X113066666Y-93354819D01*
X113066666Y-93354819D02*
X113209523Y-93402438D01*
X113209523Y-93402438D02*
X113257142Y-93450057D01*
X113638095Y-93450057D02*
X113685714Y-93402438D01*
X113685714Y-93402438D02*
X113780952Y-93354819D01*
X113780952Y-93354819D02*
X114019047Y-93354819D01*
X114019047Y-93354819D02*
X114114285Y-93402438D01*
X114114285Y-93402438D02*
X114161904Y-93450057D01*
X114161904Y-93450057D02*
X114209523Y-93545295D01*
X114209523Y-93545295D02*
X114209523Y-93640533D01*
X114209523Y-93640533D02*
X114161904Y-93783390D01*
X114161904Y-93783390D02*
X113590476Y-94354819D01*
X113590476Y-94354819D02*
X114209523Y-94354819D01*
X115066666Y-93688152D02*
X115066666Y-94354819D01*
X114828571Y-93307200D02*
X114590476Y-94021485D01*
X114590476Y-94021485D02*
X115209523Y-94021485D01*
X111057142Y-99804819D02*
X110723809Y-99328628D01*
X110485714Y-99804819D02*
X110485714Y-98804819D01*
X110485714Y-98804819D02*
X110866666Y-98804819D01*
X110866666Y-98804819D02*
X110961904Y-98852438D01*
X110961904Y-98852438D02*
X111009523Y-98900057D01*
X111009523Y-98900057D02*
X111057142Y-98995295D01*
X111057142Y-98995295D02*
X111057142Y-99138152D01*
X111057142Y-99138152D02*
X111009523Y-99233390D01*
X111009523Y-99233390D02*
X110961904Y-99281009D01*
X110961904Y-99281009D02*
X110866666Y-99328628D01*
X110866666Y-99328628D02*
X110485714Y-99328628D01*
X111438095Y-98900057D02*
X111485714Y-98852438D01*
X111485714Y-98852438D02*
X111580952Y-98804819D01*
X111580952Y-98804819D02*
X111819047Y-98804819D01*
X111819047Y-98804819D02*
X111914285Y-98852438D01*
X111914285Y-98852438D02*
X111961904Y-98900057D01*
X111961904Y-98900057D02*
X112009523Y-98995295D01*
X112009523Y-98995295D02*
X112009523Y-99090533D01*
X112009523Y-99090533D02*
X111961904Y-99233390D01*
X111961904Y-99233390D02*
X111390476Y-99804819D01*
X111390476Y-99804819D02*
X112009523Y-99804819D01*
X112914285Y-98804819D02*
X112438095Y-98804819D01*
X112438095Y-98804819D02*
X112390476Y-99281009D01*
X112390476Y-99281009D02*
X112438095Y-99233390D01*
X112438095Y-99233390D02*
X112533333Y-99185771D01*
X112533333Y-99185771D02*
X112771428Y-99185771D01*
X112771428Y-99185771D02*
X112866666Y-99233390D01*
X112866666Y-99233390D02*
X112914285Y-99281009D01*
X112914285Y-99281009D02*
X112961904Y-99376247D01*
X112961904Y-99376247D02*
X112961904Y-99614342D01*
X112961904Y-99614342D02*
X112914285Y-99709580D01*
X112914285Y-99709580D02*
X112866666Y-99757200D01*
X112866666Y-99757200D02*
X112771428Y-99804819D01*
X112771428Y-99804819D02*
X112533333Y-99804819D01*
X112533333Y-99804819D02*
X112438095Y-99757200D01*
X112438095Y-99757200D02*
X112390476Y-99709580D01*
X136061905Y-111442319D02*
X136061905Y-112251842D01*
X136061905Y-112251842D02*
X136109524Y-112347080D01*
X136109524Y-112347080D02*
X136157143Y-112394700D01*
X136157143Y-112394700D02*
X136252381Y-112442319D01*
X136252381Y-112442319D02*
X136442857Y-112442319D01*
X136442857Y-112442319D02*
X136538095Y-112394700D01*
X136538095Y-112394700D02*
X136585714Y-112347080D01*
X136585714Y-112347080D02*
X136633333Y-112251842D01*
X136633333Y-112251842D02*
X136633333Y-111442319D01*
X137633333Y-112442319D02*
X137061905Y-112442319D01*
X137347619Y-112442319D02*
X137347619Y-111442319D01*
X137347619Y-111442319D02*
X137252381Y-111585176D01*
X137252381Y-111585176D02*
X137157143Y-111680414D01*
X137157143Y-111680414D02*
X137061905Y-111728033D01*
X138014286Y-111537557D02*
X138061905Y-111489938D01*
X138061905Y-111489938D02*
X138157143Y-111442319D01*
X138157143Y-111442319D02*
X138395238Y-111442319D01*
X138395238Y-111442319D02*
X138490476Y-111489938D01*
X138490476Y-111489938D02*
X138538095Y-111537557D01*
X138538095Y-111537557D02*
X138585714Y-111632795D01*
X138585714Y-111632795D02*
X138585714Y-111728033D01*
X138585714Y-111728033D02*
X138538095Y-111870890D01*
X138538095Y-111870890D02*
X137966667Y-112442319D01*
X137966667Y-112442319D02*
X138585714Y-112442319D01*
X107557142Y-106159580D02*
X107509523Y-106207200D01*
X107509523Y-106207200D02*
X107366666Y-106254819D01*
X107366666Y-106254819D02*
X107271428Y-106254819D01*
X107271428Y-106254819D02*
X107128571Y-106207200D01*
X107128571Y-106207200D02*
X107033333Y-106111961D01*
X107033333Y-106111961D02*
X106985714Y-106016723D01*
X106985714Y-106016723D02*
X106938095Y-105826247D01*
X106938095Y-105826247D02*
X106938095Y-105683390D01*
X106938095Y-105683390D02*
X106985714Y-105492914D01*
X106985714Y-105492914D02*
X107033333Y-105397676D01*
X107033333Y-105397676D02*
X107128571Y-105302438D01*
X107128571Y-105302438D02*
X107271428Y-105254819D01*
X107271428Y-105254819D02*
X107366666Y-105254819D01*
X107366666Y-105254819D02*
X107509523Y-105302438D01*
X107509523Y-105302438D02*
X107557142Y-105350057D01*
X107938095Y-105350057D02*
X107985714Y-105302438D01*
X107985714Y-105302438D02*
X108080952Y-105254819D01*
X108080952Y-105254819D02*
X108319047Y-105254819D01*
X108319047Y-105254819D02*
X108414285Y-105302438D01*
X108414285Y-105302438D02*
X108461904Y-105350057D01*
X108461904Y-105350057D02*
X108509523Y-105445295D01*
X108509523Y-105445295D02*
X108509523Y-105540533D01*
X108509523Y-105540533D02*
X108461904Y-105683390D01*
X108461904Y-105683390D02*
X107890476Y-106254819D01*
X107890476Y-106254819D02*
X108509523Y-106254819D01*
X109366666Y-105254819D02*
X109176190Y-105254819D01*
X109176190Y-105254819D02*
X109080952Y-105302438D01*
X109080952Y-105302438D02*
X109033333Y-105350057D01*
X109033333Y-105350057D02*
X108938095Y-105492914D01*
X108938095Y-105492914D02*
X108890476Y-105683390D01*
X108890476Y-105683390D02*
X108890476Y-106064342D01*
X108890476Y-106064342D02*
X108938095Y-106159580D01*
X108938095Y-106159580D02*
X108985714Y-106207200D01*
X108985714Y-106207200D02*
X109080952Y-106254819D01*
X109080952Y-106254819D02*
X109271428Y-106254819D01*
X109271428Y-106254819D02*
X109366666Y-106207200D01*
X109366666Y-106207200D02*
X109414285Y-106159580D01*
X109414285Y-106159580D02*
X109461904Y-106064342D01*
X109461904Y-106064342D02*
X109461904Y-105826247D01*
X109461904Y-105826247D02*
X109414285Y-105731009D01*
X109414285Y-105731009D02*
X109366666Y-105683390D01*
X109366666Y-105683390D02*
X109271428Y-105635771D01*
X109271428Y-105635771D02*
X109080952Y-105635771D01*
X109080952Y-105635771D02*
X108985714Y-105683390D01*
X108985714Y-105683390D02*
X108938095Y-105731009D01*
X108938095Y-105731009D02*
X108890476Y-105826247D01*
X98307142Y-115617319D02*
X97973809Y-115141128D01*
X97735714Y-115617319D02*
X97735714Y-114617319D01*
X97735714Y-114617319D02*
X98116666Y-114617319D01*
X98116666Y-114617319D02*
X98211904Y-114664938D01*
X98211904Y-114664938D02*
X98259523Y-114712557D01*
X98259523Y-114712557D02*
X98307142Y-114807795D01*
X98307142Y-114807795D02*
X98307142Y-114950652D01*
X98307142Y-114950652D02*
X98259523Y-115045890D01*
X98259523Y-115045890D02*
X98211904Y-115093509D01*
X98211904Y-115093509D02*
X98116666Y-115141128D01*
X98116666Y-115141128D02*
X97735714Y-115141128D01*
X98688095Y-114712557D02*
X98735714Y-114664938D01*
X98735714Y-114664938D02*
X98830952Y-114617319D01*
X98830952Y-114617319D02*
X99069047Y-114617319D01*
X99069047Y-114617319D02*
X99164285Y-114664938D01*
X99164285Y-114664938D02*
X99211904Y-114712557D01*
X99211904Y-114712557D02*
X99259523Y-114807795D01*
X99259523Y-114807795D02*
X99259523Y-114903033D01*
X99259523Y-114903033D02*
X99211904Y-115045890D01*
X99211904Y-115045890D02*
X98640476Y-115617319D01*
X98640476Y-115617319D02*
X99259523Y-115617319D01*
X100116666Y-114950652D02*
X100116666Y-115617319D01*
X99878571Y-114569700D02*
X99640476Y-115283985D01*
X99640476Y-115283985D02*
X100259523Y-115283985D01*
X133957142Y-96659580D02*
X133909523Y-96707200D01*
X133909523Y-96707200D02*
X133766666Y-96754819D01*
X133766666Y-96754819D02*
X133671428Y-96754819D01*
X133671428Y-96754819D02*
X133528571Y-96707200D01*
X133528571Y-96707200D02*
X133433333Y-96611961D01*
X133433333Y-96611961D02*
X133385714Y-96516723D01*
X133385714Y-96516723D02*
X133338095Y-96326247D01*
X133338095Y-96326247D02*
X133338095Y-96183390D01*
X133338095Y-96183390D02*
X133385714Y-95992914D01*
X133385714Y-95992914D02*
X133433333Y-95897676D01*
X133433333Y-95897676D02*
X133528571Y-95802438D01*
X133528571Y-95802438D02*
X133671428Y-95754819D01*
X133671428Y-95754819D02*
X133766666Y-95754819D01*
X133766666Y-95754819D02*
X133909523Y-95802438D01*
X133909523Y-95802438D02*
X133957142Y-95850057D01*
X134290476Y-95754819D02*
X134909523Y-95754819D01*
X134909523Y-95754819D02*
X134576190Y-96135771D01*
X134576190Y-96135771D02*
X134719047Y-96135771D01*
X134719047Y-96135771D02*
X134814285Y-96183390D01*
X134814285Y-96183390D02*
X134861904Y-96231009D01*
X134861904Y-96231009D02*
X134909523Y-96326247D01*
X134909523Y-96326247D02*
X134909523Y-96564342D01*
X134909523Y-96564342D02*
X134861904Y-96659580D01*
X134861904Y-96659580D02*
X134814285Y-96707200D01*
X134814285Y-96707200D02*
X134719047Y-96754819D01*
X134719047Y-96754819D02*
X134433333Y-96754819D01*
X134433333Y-96754819D02*
X134338095Y-96707200D01*
X134338095Y-96707200D02*
X134290476Y-96659580D01*
X135814285Y-95754819D02*
X135338095Y-95754819D01*
X135338095Y-95754819D02*
X135290476Y-96231009D01*
X135290476Y-96231009D02*
X135338095Y-96183390D01*
X135338095Y-96183390D02*
X135433333Y-96135771D01*
X135433333Y-96135771D02*
X135671428Y-96135771D01*
X135671428Y-96135771D02*
X135766666Y-96183390D01*
X135766666Y-96183390D02*
X135814285Y-96231009D01*
X135814285Y-96231009D02*
X135861904Y-96326247D01*
X135861904Y-96326247D02*
X135861904Y-96564342D01*
X135861904Y-96564342D02*
X135814285Y-96659580D01*
X135814285Y-96659580D02*
X135766666Y-96707200D01*
X135766666Y-96707200D02*
X135671428Y-96754819D01*
X135671428Y-96754819D02*
X135433333Y-96754819D01*
X135433333Y-96754819D02*
X135338095Y-96707200D01*
X135338095Y-96707200D02*
X135290476Y-96659580D01*
X139633333Y-103554819D02*
X139300000Y-103078628D01*
X139061905Y-103554819D02*
X139061905Y-102554819D01*
X139061905Y-102554819D02*
X139442857Y-102554819D01*
X139442857Y-102554819D02*
X139538095Y-102602438D01*
X139538095Y-102602438D02*
X139585714Y-102650057D01*
X139585714Y-102650057D02*
X139633333Y-102745295D01*
X139633333Y-102745295D02*
X139633333Y-102888152D01*
X139633333Y-102888152D02*
X139585714Y-102983390D01*
X139585714Y-102983390D02*
X139538095Y-103031009D01*
X139538095Y-103031009D02*
X139442857Y-103078628D01*
X139442857Y-103078628D02*
X139061905Y-103078628D01*
X140490476Y-102888152D02*
X140490476Y-103554819D01*
X140252381Y-102507200D02*
X140014286Y-103221485D01*
X140014286Y-103221485D02*
X140633333Y-103221485D01*
X108666666Y-122194819D02*
X108666666Y-122909104D01*
X108666666Y-122909104D02*
X108619047Y-123051961D01*
X108619047Y-123051961D02*
X108523809Y-123147200D01*
X108523809Y-123147200D02*
X108380952Y-123194819D01*
X108380952Y-123194819D02*
X108285714Y-123194819D01*
X109571428Y-122194819D02*
X109380952Y-122194819D01*
X109380952Y-122194819D02*
X109285714Y-122242438D01*
X109285714Y-122242438D02*
X109238095Y-122290057D01*
X109238095Y-122290057D02*
X109142857Y-122432914D01*
X109142857Y-122432914D02*
X109095238Y-122623390D01*
X109095238Y-122623390D02*
X109095238Y-123004342D01*
X109095238Y-123004342D02*
X109142857Y-123099580D01*
X109142857Y-123099580D02*
X109190476Y-123147200D01*
X109190476Y-123147200D02*
X109285714Y-123194819D01*
X109285714Y-123194819D02*
X109476190Y-123194819D01*
X109476190Y-123194819D02*
X109571428Y-123147200D01*
X109571428Y-123147200D02*
X109619047Y-123099580D01*
X109619047Y-123099580D02*
X109666666Y-123004342D01*
X109666666Y-123004342D02*
X109666666Y-122766247D01*
X109666666Y-122766247D02*
X109619047Y-122671009D01*
X109619047Y-122671009D02*
X109571428Y-122623390D01*
X109571428Y-122623390D02*
X109476190Y-122575771D01*
X109476190Y-122575771D02*
X109285714Y-122575771D01*
X109285714Y-122575771D02*
X109190476Y-122623390D01*
X109190476Y-122623390D02*
X109142857Y-122671009D01*
X109142857Y-122671009D02*
X109095238Y-122766247D01*
X116357142Y-118959580D02*
X116309523Y-119007200D01*
X116309523Y-119007200D02*
X116166666Y-119054819D01*
X116166666Y-119054819D02*
X116071428Y-119054819D01*
X116071428Y-119054819D02*
X115928571Y-119007200D01*
X115928571Y-119007200D02*
X115833333Y-118911961D01*
X115833333Y-118911961D02*
X115785714Y-118816723D01*
X115785714Y-118816723D02*
X115738095Y-118626247D01*
X115738095Y-118626247D02*
X115738095Y-118483390D01*
X115738095Y-118483390D02*
X115785714Y-118292914D01*
X115785714Y-118292914D02*
X115833333Y-118197676D01*
X115833333Y-118197676D02*
X115928571Y-118102438D01*
X115928571Y-118102438D02*
X116071428Y-118054819D01*
X116071428Y-118054819D02*
X116166666Y-118054819D01*
X116166666Y-118054819D02*
X116309523Y-118102438D01*
X116309523Y-118102438D02*
X116357142Y-118150057D01*
X116738095Y-118150057D02*
X116785714Y-118102438D01*
X116785714Y-118102438D02*
X116880952Y-118054819D01*
X116880952Y-118054819D02*
X117119047Y-118054819D01*
X117119047Y-118054819D02*
X117214285Y-118102438D01*
X117214285Y-118102438D02*
X117261904Y-118150057D01*
X117261904Y-118150057D02*
X117309523Y-118245295D01*
X117309523Y-118245295D02*
X117309523Y-118340533D01*
X117309523Y-118340533D02*
X117261904Y-118483390D01*
X117261904Y-118483390D02*
X116690476Y-119054819D01*
X116690476Y-119054819D02*
X117309523Y-119054819D01*
X118214285Y-118054819D02*
X117738095Y-118054819D01*
X117738095Y-118054819D02*
X117690476Y-118531009D01*
X117690476Y-118531009D02*
X117738095Y-118483390D01*
X117738095Y-118483390D02*
X117833333Y-118435771D01*
X117833333Y-118435771D02*
X118071428Y-118435771D01*
X118071428Y-118435771D02*
X118166666Y-118483390D01*
X118166666Y-118483390D02*
X118214285Y-118531009D01*
X118214285Y-118531009D02*
X118261904Y-118626247D01*
X118261904Y-118626247D02*
X118261904Y-118864342D01*
X118261904Y-118864342D02*
X118214285Y-118959580D01*
X118214285Y-118959580D02*
X118166666Y-119007200D01*
X118166666Y-119007200D02*
X118071428Y-119054819D01*
X118071428Y-119054819D02*
X117833333Y-119054819D01*
X117833333Y-119054819D02*
X117738095Y-119007200D01*
X117738095Y-119007200D02*
X117690476Y-118959580D01*
X126657142Y-97659580D02*
X126609523Y-97707200D01*
X126609523Y-97707200D02*
X126466666Y-97754819D01*
X126466666Y-97754819D02*
X126371428Y-97754819D01*
X126371428Y-97754819D02*
X126228571Y-97707200D01*
X126228571Y-97707200D02*
X126133333Y-97611961D01*
X126133333Y-97611961D02*
X126085714Y-97516723D01*
X126085714Y-97516723D02*
X126038095Y-97326247D01*
X126038095Y-97326247D02*
X126038095Y-97183390D01*
X126038095Y-97183390D02*
X126085714Y-96992914D01*
X126085714Y-96992914D02*
X126133333Y-96897676D01*
X126133333Y-96897676D02*
X126228571Y-96802438D01*
X126228571Y-96802438D02*
X126371428Y-96754819D01*
X126371428Y-96754819D02*
X126466666Y-96754819D01*
X126466666Y-96754819D02*
X126609523Y-96802438D01*
X126609523Y-96802438D02*
X126657142Y-96850057D01*
X127609523Y-97754819D02*
X127038095Y-97754819D01*
X127323809Y-97754819D02*
X127323809Y-96754819D01*
X127323809Y-96754819D02*
X127228571Y-96897676D01*
X127228571Y-96897676D02*
X127133333Y-96992914D01*
X127133333Y-96992914D02*
X127038095Y-97040533D01*
X128466666Y-96754819D02*
X128276190Y-96754819D01*
X128276190Y-96754819D02*
X128180952Y-96802438D01*
X128180952Y-96802438D02*
X128133333Y-96850057D01*
X128133333Y-96850057D02*
X128038095Y-96992914D01*
X128038095Y-96992914D02*
X127990476Y-97183390D01*
X127990476Y-97183390D02*
X127990476Y-97564342D01*
X127990476Y-97564342D02*
X128038095Y-97659580D01*
X128038095Y-97659580D02*
X128085714Y-97707200D01*
X128085714Y-97707200D02*
X128180952Y-97754819D01*
X128180952Y-97754819D02*
X128371428Y-97754819D01*
X128371428Y-97754819D02*
X128466666Y-97707200D01*
X128466666Y-97707200D02*
X128514285Y-97659580D01*
X128514285Y-97659580D02*
X128561904Y-97564342D01*
X128561904Y-97564342D02*
X128561904Y-97326247D01*
X128561904Y-97326247D02*
X128514285Y-97231009D01*
X128514285Y-97231009D02*
X128466666Y-97183390D01*
X128466666Y-97183390D02*
X128371428Y-97135771D01*
X128371428Y-97135771D02*
X128180952Y-97135771D01*
X128180952Y-97135771D02*
X128085714Y-97183390D01*
X128085714Y-97183390D02*
X128038095Y-97231009D01*
X128038095Y-97231009D02*
X127990476Y-97326247D01*
X110307142Y-102959580D02*
X110259523Y-103007200D01*
X110259523Y-103007200D02*
X110116666Y-103054819D01*
X110116666Y-103054819D02*
X110021428Y-103054819D01*
X110021428Y-103054819D02*
X109878571Y-103007200D01*
X109878571Y-103007200D02*
X109783333Y-102911961D01*
X109783333Y-102911961D02*
X109735714Y-102816723D01*
X109735714Y-102816723D02*
X109688095Y-102626247D01*
X109688095Y-102626247D02*
X109688095Y-102483390D01*
X109688095Y-102483390D02*
X109735714Y-102292914D01*
X109735714Y-102292914D02*
X109783333Y-102197676D01*
X109783333Y-102197676D02*
X109878571Y-102102438D01*
X109878571Y-102102438D02*
X110021428Y-102054819D01*
X110021428Y-102054819D02*
X110116666Y-102054819D01*
X110116666Y-102054819D02*
X110259523Y-102102438D01*
X110259523Y-102102438D02*
X110307142Y-102150057D01*
X111259523Y-103054819D02*
X110688095Y-103054819D01*
X110973809Y-103054819D02*
X110973809Y-102054819D01*
X110973809Y-102054819D02*
X110878571Y-102197676D01*
X110878571Y-102197676D02*
X110783333Y-102292914D01*
X110783333Y-102292914D02*
X110688095Y-102340533D01*
X111592857Y-102054819D02*
X112259523Y-102054819D01*
X112259523Y-102054819D02*
X111830952Y-103054819D01*
X136857142Y-100959580D02*
X136809523Y-101007200D01*
X136809523Y-101007200D02*
X136666666Y-101054819D01*
X136666666Y-101054819D02*
X136571428Y-101054819D01*
X136571428Y-101054819D02*
X136428571Y-101007200D01*
X136428571Y-101007200D02*
X136333333Y-100911961D01*
X136333333Y-100911961D02*
X136285714Y-100816723D01*
X136285714Y-100816723D02*
X136238095Y-100626247D01*
X136238095Y-100626247D02*
X136238095Y-100483390D01*
X136238095Y-100483390D02*
X136285714Y-100292914D01*
X136285714Y-100292914D02*
X136333333Y-100197676D01*
X136333333Y-100197676D02*
X136428571Y-100102438D01*
X136428571Y-100102438D02*
X136571428Y-100054819D01*
X136571428Y-100054819D02*
X136666666Y-100054819D01*
X136666666Y-100054819D02*
X136809523Y-100102438D01*
X136809523Y-100102438D02*
X136857142Y-100150057D01*
X137238095Y-100150057D02*
X137285714Y-100102438D01*
X137285714Y-100102438D02*
X137380952Y-100054819D01*
X137380952Y-100054819D02*
X137619047Y-100054819D01*
X137619047Y-100054819D02*
X137714285Y-100102438D01*
X137714285Y-100102438D02*
X137761904Y-100150057D01*
X137761904Y-100150057D02*
X137809523Y-100245295D01*
X137809523Y-100245295D02*
X137809523Y-100340533D01*
X137809523Y-100340533D02*
X137761904Y-100483390D01*
X137761904Y-100483390D02*
X137190476Y-101054819D01*
X137190476Y-101054819D02*
X137809523Y-101054819D01*
X138142857Y-100054819D02*
X138809523Y-100054819D01*
X138809523Y-100054819D02*
X138380952Y-101054819D01*
X95314285Y-115931009D02*
X95457142Y-115978628D01*
X95457142Y-115978628D02*
X95504761Y-116026247D01*
X95504761Y-116026247D02*
X95552380Y-116121485D01*
X95552380Y-116121485D02*
X95552380Y-116264342D01*
X95552380Y-116264342D02*
X95504761Y-116359580D01*
X95504761Y-116359580D02*
X95457142Y-116407200D01*
X95457142Y-116407200D02*
X95361904Y-116454819D01*
X95361904Y-116454819D02*
X94980952Y-116454819D01*
X94980952Y-116454819D02*
X94980952Y-115454819D01*
X94980952Y-115454819D02*
X95314285Y-115454819D01*
X95314285Y-115454819D02*
X95409523Y-115502438D01*
X95409523Y-115502438D02*
X95457142Y-115550057D01*
X95457142Y-115550057D02*
X95504761Y-115645295D01*
X95504761Y-115645295D02*
X95504761Y-115740533D01*
X95504761Y-115740533D02*
X95457142Y-115835771D01*
X95457142Y-115835771D02*
X95409523Y-115883390D01*
X95409523Y-115883390D02*
X95314285Y-115931009D01*
X95314285Y-115931009D02*
X94980952Y-115931009D01*
X95838095Y-115454819D02*
X96409523Y-115454819D01*
X96123809Y-116454819D02*
X96123809Y-115454819D01*
X97266666Y-116454819D02*
X96695238Y-116454819D01*
X96980952Y-116454819D02*
X96980952Y-115454819D01*
X96980952Y-115454819D02*
X96885714Y-115597676D01*
X96885714Y-115597676D02*
X96790476Y-115692914D01*
X96790476Y-115692914D02*
X96695238Y-115740533D01*
X93677257Y-116042857D02*
X93724877Y-116090476D01*
X93724877Y-116090476D02*
X93772496Y-116233333D01*
X93772496Y-116233333D02*
X93772496Y-116328571D01*
X93772496Y-116328571D02*
X93724877Y-116471428D01*
X93724877Y-116471428D02*
X93629638Y-116566666D01*
X93629638Y-116566666D02*
X93534400Y-116614285D01*
X93534400Y-116614285D02*
X93343924Y-116661904D01*
X93343924Y-116661904D02*
X93201067Y-116661904D01*
X93201067Y-116661904D02*
X93010591Y-116614285D01*
X93010591Y-116614285D02*
X92915353Y-116566666D01*
X92915353Y-116566666D02*
X92820115Y-116471428D01*
X92820115Y-116471428D02*
X92772496Y-116328571D01*
X92772496Y-116328571D02*
X92772496Y-116233333D01*
X92772496Y-116233333D02*
X92820115Y-116090476D01*
X92820115Y-116090476D02*
X92867734Y-116042857D01*
X93772496Y-115090476D02*
X93772496Y-115661904D01*
X93772496Y-115376190D02*
X92772496Y-115376190D01*
X92772496Y-115376190D02*
X92915353Y-115471428D01*
X92915353Y-115471428D02*
X93010591Y-115566666D01*
X93010591Y-115566666D02*
X93058210Y-115661904D01*
X92772496Y-114757142D02*
X92772496Y-114138095D01*
X92772496Y-114138095D02*
X93153448Y-114471428D01*
X93153448Y-114471428D02*
X93153448Y-114328571D01*
X93153448Y-114328571D02*
X93201067Y-114233333D01*
X93201067Y-114233333D02*
X93248686Y-114185714D01*
X93248686Y-114185714D02*
X93343924Y-114138095D01*
X93343924Y-114138095D02*
X93582019Y-114138095D01*
X93582019Y-114138095D02*
X93677257Y-114185714D01*
X93677257Y-114185714D02*
X93724877Y-114233333D01*
X93724877Y-114233333D02*
X93772496Y-114328571D01*
X93772496Y-114328571D02*
X93772496Y-114614285D01*
X93772496Y-114614285D02*
X93724877Y-114709523D01*
X93724877Y-114709523D02*
X93677257Y-114757142D01*
X140645833Y-110389580D02*
X140598214Y-110437200D01*
X140598214Y-110437200D02*
X140455357Y-110484819D01*
X140455357Y-110484819D02*
X140360119Y-110484819D01*
X140360119Y-110484819D02*
X140217262Y-110437200D01*
X140217262Y-110437200D02*
X140122024Y-110341961D01*
X140122024Y-110341961D02*
X140074405Y-110246723D01*
X140074405Y-110246723D02*
X140026786Y-110056247D01*
X140026786Y-110056247D02*
X140026786Y-109913390D01*
X140026786Y-109913390D02*
X140074405Y-109722914D01*
X140074405Y-109722914D02*
X140122024Y-109627676D01*
X140122024Y-109627676D02*
X140217262Y-109532438D01*
X140217262Y-109532438D02*
X140360119Y-109484819D01*
X140360119Y-109484819D02*
X140455357Y-109484819D01*
X140455357Y-109484819D02*
X140598214Y-109532438D01*
X140598214Y-109532438D02*
X140645833Y-109580057D01*
X141550595Y-109484819D02*
X141074405Y-109484819D01*
X141074405Y-109484819D02*
X141026786Y-109961009D01*
X141026786Y-109961009D02*
X141074405Y-109913390D01*
X141074405Y-109913390D02*
X141169643Y-109865771D01*
X141169643Y-109865771D02*
X141407738Y-109865771D01*
X141407738Y-109865771D02*
X141502976Y-109913390D01*
X141502976Y-109913390D02*
X141550595Y-109961009D01*
X141550595Y-109961009D02*
X141598214Y-110056247D01*
X141598214Y-110056247D02*
X141598214Y-110294342D01*
X141598214Y-110294342D02*
X141550595Y-110389580D01*
X141550595Y-110389580D02*
X141502976Y-110437200D01*
X141502976Y-110437200D02*
X141407738Y-110484819D01*
X141407738Y-110484819D02*
X141169643Y-110484819D01*
X141169643Y-110484819D02*
X141074405Y-110437200D01*
X141074405Y-110437200D02*
X141026786Y-110389580D01*
X132357142Y-112959580D02*
X132309523Y-113007200D01*
X132309523Y-113007200D02*
X132166666Y-113054819D01*
X132166666Y-113054819D02*
X132071428Y-113054819D01*
X132071428Y-113054819D02*
X131928571Y-113007200D01*
X131928571Y-113007200D02*
X131833333Y-112911961D01*
X131833333Y-112911961D02*
X131785714Y-112816723D01*
X131785714Y-112816723D02*
X131738095Y-112626247D01*
X131738095Y-112626247D02*
X131738095Y-112483390D01*
X131738095Y-112483390D02*
X131785714Y-112292914D01*
X131785714Y-112292914D02*
X131833333Y-112197676D01*
X131833333Y-112197676D02*
X131928571Y-112102438D01*
X131928571Y-112102438D02*
X132071428Y-112054819D01*
X132071428Y-112054819D02*
X132166666Y-112054819D01*
X132166666Y-112054819D02*
X132309523Y-112102438D01*
X132309523Y-112102438D02*
X132357142Y-112150057D01*
X133214285Y-112388152D02*
X133214285Y-113054819D01*
X132976190Y-112007200D02*
X132738095Y-112721485D01*
X132738095Y-112721485D02*
X133357142Y-112721485D01*
X133642857Y-112054819D02*
X134309523Y-112054819D01*
X134309523Y-112054819D02*
X133880952Y-113054819D01*
X88966666Y-105954819D02*
X88966666Y-106669104D01*
X88966666Y-106669104D02*
X88919047Y-106811961D01*
X88919047Y-106811961D02*
X88823809Y-106907200D01*
X88823809Y-106907200D02*
X88680952Y-106954819D01*
X88680952Y-106954819D02*
X88585714Y-106954819D01*
X89395238Y-106050057D02*
X89442857Y-106002438D01*
X89442857Y-106002438D02*
X89538095Y-105954819D01*
X89538095Y-105954819D02*
X89776190Y-105954819D01*
X89776190Y-105954819D02*
X89871428Y-106002438D01*
X89871428Y-106002438D02*
X89919047Y-106050057D01*
X89919047Y-106050057D02*
X89966666Y-106145295D01*
X89966666Y-106145295D02*
X89966666Y-106240533D01*
X89966666Y-106240533D02*
X89919047Y-106383390D01*
X89919047Y-106383390D02*
X89347619Y-106954819D01*
X89347619Y-106954819D02*
X89966666Y-106954819D01*
X102833333Y-118859580D02*
X102785714Y-118907200D01*
X102785714Y-118907200D02*
X102642857Y-118954819D01*
X102642857Y-118954819D02*
X102547619Y-118954819D01*
X102547619Y-118954819D02*
X102404762Y-118907200D01*
X102404762Y-118907200D02*
X102309524Y-118811961D01*
X102309524Y-118811961D02*
X102261905Y-118716723D01*
X102261905Y-118716723D02*
X102214286Y-118526247D01*
X102214286Y-118526247D02*
X102214286Y-118383390D01*
X102214286Y-118383390D02*
X102261905Y-118192914D01*
X102261905Y-118192914D02*
X102309524Y-118097676D01*
X102309524Y-118097676D02*
X102404762Y-118002438D01*
X102404762Y-118002438D02*
X102547619Y-117954819D01*
X102547619Y-117954819D02*
X102642857Y-117954819D01*
X102642857Y-117954819D02*
X102785714Y-118002438D01*
X102785714Y-118002438D02*
X102833333Y-118050057D01*
X103166667Y-117954819D02*
X103833333Y-117954819D01*
X103833333Y-117954819D02*
X103404762Y-118954819D01*
X94694642Y-96224819D02*
X94361309Y-95748628D01*
X94123214Y-96224819D02*
X94123214Y-95224819D01*
X94123214Y-95224819D02*
X94504166Y-95224819D01*
X94504166Y-95224819D02*
X94599404Y-95272438D01*
X94599404Y-95272438D02*
X94647023Y-95320057D01*
X94647023Y-95320057D02*
X94694642Y-95415295D01*
X94694642Y-95415295D02*
X94694642Y-95558152D01*
X94694642Y-95558152D02*
X94647023Y-95653390D01*
X94647023Y-95653390D02*
X94599404Y-95701009D01*
X94599404Y-95701009D02*
X94504166Y-95748628D01*
X94504166Y-95748628D02*
X94123214Y-95748628D01*
X95647023Y-96224819D02*
X95075595Y-96224819D01*
X95361309Y-96224819D02*
X95361309Y-95224819D01*
X95361309Y-95224819D02*
X95266071Y-95367676D01*
X95266071Y-95367676D02*
X95170833Y-95462914D01*
X95170833Y-95462914D02*
X95075595Y-95510533D01*
X96551785Y-95224819D02*
X96075595Y-95224819D01*
X96075595Y-95224819D02*
X96027976Y-95701009D01*
X96027976Y-95701009D02*
X96075595Y-95653390D01*
X96075595Y-95653390D02*
X96170833Y-95605771D01*
X96170833Y-95605771D02*
X96408928Y-95605771D01*
X96408928Y-95605771D02*
X96504166Y-95653390D01*
X96504166Y-95653390D02*
X96551785Y-95701009D01*
X96551785Y-95701009D02*
X96599404Y-95796247D01*
X96599404Y-95796247D02*
X96599404Y-96034342D01*
X96599404Y-96034342D02*
X96551785Y-96129580D01*
X96551785Y-96129580D02*
X96504166Y-96177200D01*
X96504166Y-96177200D02*
X96408928Y-96224819D01*
X96408928Y-96224819D02*
X96170833Y-96224819D01*
X96170833Y-96224819D02*
X96075595Y-96177200D01*
X96075595Y-96177200D02*
X96027976Y-96129580D01*
X124261905Y-85954819D02*
X124261905Y-86764342D01*
X124261905Y-86764342D02*
X124309524Y-86859580D01*
X124309524Y-86859580D02*
X124357143Y-86907200D01*
X124357143Y-86907200D02*
X124452381Y-86954819D01*
X124452381Y-86954819D02*
X124642857Y-86954819D01*
X124642857Y-86954819D02*
X124738095Y-86907200D01*
X124738095Y-86907200D02*
X124785714Y-86859580D01*
X124785714Y-86859580D02*
X124833333Y-86764342D01*
X124833333Y-86764342D02*
X124833333Y-85954819D01*
X125833333Y-86954819D02*
X125261905Y-86954819D01*
X125547619Y-86954819D02*
X125547619Y-85954819D01*
X125547619Y-85954819D02*
X125452381Y-86097676D01*
X125452381Y-86097676D02*
X125357143Y-86192914D01*
X125357143Y-86192914D02*
X125261905Y-86240533D01*
X126785714Y-86954819D02*
X126214286Y-86954819D01*
X126500000Y-86954819D02*
X126500000Y-85954819D01*
X126500000Y-85954819D02*
X126404762Y-86097676D01*
X126404762Y-86097676D02*
X126309524Y-86192914D01*
X126309524Y-86192914D02*
X126214286Y-86240533D01*
X127933333Y-101054819D02*
X127600000Y-100578628D01*
X127361905Y-101054819D02*
X127361905Y-100054819D01*
X127361905Y-100054819D02*
X127742857Y-100054819D01*
X127742857Y-100054819D02*
X127838095Y-100102438D01*
X127838095Y-100102438D02*
X127885714Y-100150057D01*
X127885714Y-100150057D02*
X127933333Y-100245295D01*
X127933333Y-100245295D02*
X127933333Y-100388152D01*
X127933333Y-100388152D02*
X127885714Y-100483390D01*
X127885714Y-100483390D02*
X127838095Y-100531009D01*
X127838095Y-100531009D02*
X127742857Y-100578628D01*
X127742857Y-100578628D02*
X127361905Y-100578628D01*
X128838095Y-100054819D02*
X128361905Y-100054819D01*
X128361905Y-100054819D02*
X128314286Y-100531009D01*
X128314286Y-100531009D02*
X128361905Y-100483390D01*
X128361905Y-100483390D02*
X128457143Y-100435771D01*
X128457143Y-100435771D02*
X128695238Y-100435771D01*
X128695238Y-100435771D02*
X128790476Y-100483390D01*
X128790476Y-100483390D02*
X128838095Y-100531009D01*
X128838095Y-100531009D02*
X128885714Y-100626247D01*
X128885714Y-100626247D02*
X128885714Y-100864342D01*
X128885714Y-100864342D02*
X128838095Y-100959580D01*
X128838095Y-100959580D02*
X128790476Y-101007200D01*
X128790476Y-101007200D02*
X128695238Y-101054819D01*
X128695238Y-101054819D02*
X128457143Y-101054819D01*
X128457143Y-101054819D02*
X128361905Y-101007200D01*
X128361905Y-101007200D02*
X128314286Y-100959580D01*
X125433333Y-93254819D02*
X125100000Y-92778628D01*
X124861905Y-93254819D02*
X124861905Y-92254819D01*
X124861905Y-92254819D02*
X125242857Y-92254819D01*
X125242857Y-92254819D02*
X125338095Y-92302438D01*
X125338095Y-92302438D02*
X125385714Y-92350057D01*
X125385714Y-92350057D02*
X125433333Y-92445295D01*
X125433333Y-92445295D02*
X125433333Y-92588152D01*
X125433333Y-92588152D02*
X125385714Y-92683390D01*
X125385714Y-92683390D02*
X125338095Y-92731009D01*
X125338095Y-92731009D02*
X125242857Y-92778628D01*
X125242857Y-92778628D02*
X124861905Y-92778628D01*
X125766667Y-92254819D02*
X126385714Y-92254819D01*
X126385714Y-92254819D02*
X126052381Y-92635771D01*
X126052381Y-92635771D02*
X126195238Y-92635771D01*
X126195238Y-92635771D02*
X126290476Y-92683390D01*
X126290476Y-92683390D02*
X126338095Y-92731009D01*
X126338095Y-92731009D02*
X126385714Y-92826247D01*
X126385714Y-92826247D02*
X126385714Y-93064342D01*
X126385714Y-93064342D02*
X126338095Y-93159580D01*
X126338095Y-93159580D02*
X126290476Y-93207200D01*
X126290476Y-93207200D02*
X126195238Y-93254819D01*
X126195238Y-93254819D02*
X125909524Y-93254819D01*
X125909524Y-93254819D02*
X125814286Y-93207200D01*
X125814286Y-93207200D02*
X125766667Y-93159580D01*
X120157142Y-121459580D02*
X120109523Y-121507200D01*
X120109523Y-121507200D02*
X119966666Y-121554819D01*
X119966666Y-121554819D02*
X119871428Y-121554819D01*
X119871428Y-121554819D02*
X119728571Y-121507200D01*
X119728571Y-121507200D02*
X119633333Y-121411961D01*
X119633333Y-121411961D02*
X119585714Y-121316723D01*
X119585714Y-121316723D02*
X119538095Y-121126247D01*
X119538095Y-121126247D02*
X119538095Y-120983390D01*
X119538095Y-120983390D02*
X119585714Y-120792914D01*
X119585714Y-120792914D02*
X119633333Y-120697676D01*
X119633333Y-120697676D02*
X119728571Y-120602438D01*
X119728571Y-120602438D02*
X119871428Y-120554819D01*
X119871428Y-120554819D02*
X119966666Y-120554819D01*
X119966666Y-120554819D02*
X120109523Y-120602438D01*
X120109523Y-120602438D02*
X120157142Y-120650057D01*
X121014285Y-120888152D02*
X121014285Y-121554819D01*
X120776190Y-120507200D02*
X120538095Y-121221485D01*
X120538095Y-121221485D02*
X121157142Y-121221485D01*
X121490476Y-120650057D02*
X121538095Y-120602438D01*
X121538095Y-120602438D02*
X121633333Y-120554819D01*
X121633333Y-120554819D02*
X121871428Y-120554819D01*
X121871428Y-120554819D02*
X121966666Y-120602438D01*
X121966666Y-120602438D02*
X122014285Y-120650057D01*
X122014285Y-120650057D02*
X122061904Y-120745295D01*
X122061904Y-120745295D02*
X122061904Y-120840533D01*
X122061904Y-120840533D02*
X122014285Y-120983390D01*
X122014285Y-120983390D02*
X121442857Y-121554819D01*
X121442857Y-121554819D02*
X122061904Y-121554819D01*
X110466666Y-129654819D02*
X110466666Y-130369104D01*
X110466666Y-130369104D02*
X110419047Y-130511961D01*
X110419047Y-130511961D02*
X110323809Y-130607200D01*
X110323809Y-130607200D02*
X110180952Y-130654819D01*
X110180952Y-130654819D02*
X110085714Y-130654819D01*
X111371428Y-129988152D02*
X111371428Y-130654819D01*
X111133333Y-129607200D02*
X110895238Y-130321485D01*
X110895238Y-130321485D02*
X111514285Y-130321485D01*
X122633333Y-111954819D02*
X122300000Y-111478628D01*
X122061905Y-111954819D02*
X122061905Y-110954819D01*
X122061905Y-110954819D02*
X122442857Y-110954819D01*
X122442857Y-110954819D02*
X122538095Y-111002438D01*
X122538095Y-111002438D02*
X122585714Y-111050057D01*
X122585714Y-111050057D02*
X122633333Y-111145295D01*
X122633333Y-111145295D02*
X122633333Y-111288152D01*
X122633333Y-111288152D02*
X122585714Y-111383390D01*
X122585714Y-111383390D02*
X122538095Y-111431009D01*
X122538095Y-111431009D02*
X122442857Y-111478628D01*
X122442857Y-111478628D02*
X122061905Y-111478628D01*
X123490476Y-110954819D02*
X123300000Y-110954819D01*
X123300000Y-110954819D02*
X123204762Y-111002438D01*
X123204762Y-111002438D02*
X123157143Y-111050057D01*
X123157143Y-111050057D02*
X123061905Y-111192914D01*
X123061905Y-111192914D02*
X123014286Y-111383390D01*
X123014286Y-111383390D02*
X123014286Y-111764342D01*
X123014286Y-111764342D02*
X123061905Y-111859580D01*
X123061905Y-111859580D02*
X123109524Y-111907200D01*
X123109524Y-111907200D02*
X123204762Y-111954819D01*
X123204762Y-111954819D02*
X123395238Y-111954819D01*
X123395238Y-111954819D02*
X123490476Y-111907200D01*
X123490476Y-111907200D02*
X123538095Y-111859580D01*
X123538095Y-111859580D02*
X123585714Y-111764342D01*
X123585714Y-111764342D02*
X123585714Y-111526247D01*
X123585714Y-111526247D02*
X123538095Y-111431009D01*
X123538095Y-111431009D02*
X123490476Y-111383390D01*
X123490476Y-111383390D02*
X123395238Y-111335771D01*
X123395238Y-111335771D02*
X123204762Y-111335771D01*
X123204762Y-111335771D02*
X123109524Y-111383390D01*
X123109524Y-111383390D02*
X123061905Y-111431009D01*
X123061905Y-111431009D02*
X123014286Y-111526247D01*
X82333333Y-80259580D02*
X82285714Y-80307200D01*
X82285714Y-80307200D02*
X82142857Y-80354819D01*
X82142857Y-80354819D02*
X82047619Y-80354819D01*
X82047619Y-80354819D02*
X81904762Y-80307200D01*
X81904762Y-80307200D02*
X81809524Y-80211961D01*
X81809524Y-80211961D02*
X81761905Y-80116723D01*
X81761905Y-80116723D02*
X81714286Y-79926247D01*
X81714286Y-79926247D02*
X81714286Y-79783390D01*
X81714286Y-79783390D02*
X81761905Y-79592914D01*
X81761905Y-79592914D02*
X81809524Y-79497676D01*
X81809524Y-79497676D02*
X81904762Y-79402438D01*
X81904762Y-79402438D02*
X82047619Y-79354819D01*
X82047619Y-79354819D02*
X82142857Y-79354819D01*
X82142857Y-79354819D02*
X82285714Y-79402438D01*
X82285714Y-79402438D02*
X82333333Y-79450057D01*
X82904762Y-79783390D02*
X82809524Y-79735771D01*
X82809524Y-79735771D02*
X82761905Y-79688152D01*
X82761905Y-79688152D02*
X82714286Y-79592914D01*
X82714286Y-79592914D02*
X82714286Y-79545295D01*
X82714286Y-79545295D02*
X82761905Y-79450057D01*
X82761905Y-79450057D02*
X82809524Y-79402438D01*
X82809524Y-79402438D02*
X82904762Y-79354819D01*
X82904762Y-79354819D02*
X83095238Y-79354819D01*
X83095238Y-79354819D02*
X83190476Y-79402438D01*
X83190476Y-79402438D02*
X83238095Y-79450057D01*
X83238095Y-79450057D02*
X83285714Y-79545295D01*
X83285714Y-79545295D02*
X83285714Y-79592914D01*
X83285714Y-79592914D02*
X83238095Y-79688152D01*
X83238095Y-79688152D02*
X83190476Y-79735771D01*
X83190476Y-79735771D02*
X83095238Y-79783390D01*
X83095238Y-79783390D02*
X82904762Y-79783390D01*
X82904762Y-79783390D02*
X82809524Y-79831009D01*
X82809524Y-79831009D02*
X82761905Y-79878628D01*
X82761905Y-79878628D02*
X82714286Y-79973866D01*
X82714286Y-79973866D02*
X82714286Y-80164342D01*
X82714286Y-80164342D02*
X82761905Y-80259580D01*
X82761905Y-80259580D02*
X82809524Y-80307200D01*
X82809524Y-80307200D02*
X82904762Y-80354819D01*
X82904762Y-80354819D02*
X83095238Y-80354819D01*
X83095238Y-80354819D02*
X83190476Y-80307200D01*
X83190476Y-80307200D02*
X83238095Y-80259580D01*
X83238095Y-80259580D02*
X83285714Y-80164342D01*
X83285714Y-80164342D02*
X83285714Y-79973866D01*
X83285714Y-79973866D02*
X83238095Y-79878628D01*
X83238095Y-79878628D02*
X83190476Y-79831009D01*
X83190476Y-79831009D02*
X83095238Y-79783390D01*
X110557142Y-97159580D02*
X110509523Y-97207200D01*
X110509523Y-97207200D02*
X110366666Y-97254819D01*
X110366666Y-97254819D02*
X110271428Y-97254819D01*
X110271428Y-97254819D02*
X110128571Y-97207200D01*
X110128571Y-97207200D02*
X110033333Y-97111961D01*
X110033333Y-97111961D02*
X109985714Y-97016723D01*
X109985714Y-97016723D02*
X109938095Y-96826247D01*
X109938095Y-96826247D02*
X109938095Y-96683390D01*
X109938095Y-96683390D02*
X109985714Y-96492914D01*
X109985714Y-96492914D02*
X110033333Y-96397676D01*
X110033333Y-96397676D02*
X110128571Y-96302438D01*
X110128571Y-96302438D02*
X110271428Y-96254819D01*
X110271428Y-96254819D02*
X110366666Y-96254819D01*
X110366666Y-96254819D02*
X110509523Y-96302438D01*
X110509523Y-96302438D02*
X110557142Y-96350057D01*
X111509523Y-97254819D02*
X110938095Y-97254819D01*
X111223809Y-97254819D02*
X111223809Y-96254819D01*
X111223809Y-96254819D02*
X111128571Y-96397676D01*
X111128571Y-96397676D02*
X111033333Y-96492914D01*
X111033333Y-96492914D02*
X110938095Y-96540533D01*
X112414285Y-96254819D02*
X111938095Y-96254819D01*
X111938095Y-96254819D02*
X111890476Y-96731009D01*
X111890476Y-96731009D02*
X111938095Y-96683390D01*
X111938095Y-96683390D02*
X112033333Y-96635771D01*
X112033333Y-96635771D02*
X112271428Y-96635771D01*
X112271428Y-96635771D02*
X112366666Y-96683390D01*
X112366666Y-96683390D02*
X112414285Y-96731009D01*
X112414285Y-96731009D02*
X112461904Y-96826247D01*
X112461904Y-96826247D02*
X112461904Y-97064342D01*
X112461904Y-97064342D02*
X112414285Y-97159580D01*
X112414285Y-97159580D02*
X112366666Y-97207200D01*
X112366666Y-97207200D02*
X112271428Y-97254819D01*
X112271428Y-97254819D02*
X112033333Y-97254819D01*
X112033333Y-97254819D02*
X111938095Y-97207200D01*
X111938095Y-97207200D02*
X111890476Y-97159580D01*
X136454819Y-87261904D02*
X137264342Y-87261904D01*
X137264342Y-87261904D02*
X137359580Y-87214285D01*
X137359580Y-87214285D02*
X137407200Y-87166666D01*
X137407200Y-87166666D02*
X137454819Y-87071428D01*
X137454819Y-87071428D02*
X137454819Y-86880952D01*
X137454819Y-86880952D02*
X137407200Y-86785714D01*
X137407200Y-86785714D02*
X137359580Y-86738095D01*
X137359580Y-86738095D02*
X137264342Y-86690476D01*
X137264342Y-86690476D02*
X136454819Y-86690476D01*
X136454819Y-85785714D02*
X136454819Y-85976190D01*
X136454819Y-85976190D02*
X136502438Y-86071428D01*
X136502438Y-86071428D02*
X136550057Y-86119047D01*
X136550057Y-86119047D02*
X136692914Y-86214285D01*
X136692914Y-86214285D02*
X136883390Y-86261904D01*
X136883390Y-86261904D02*
X137264342Y-86261904D01*
X137264342Y-86261904D02*
X137359580Y-86214285D01*
X137359580Y-86214285D02*
X137407200Y-86166666D01*
X137407200Y-86166666D02*
X137454819Y-86071428D01*
X137454819Y-86071428D02*
X137454819Y-85880952D01*
X137454819Y-85880952D02*
X137407200Y-85785714D01*
X137407200Y-85785714D02*
X137359580Y-85738095D01*
X137359580Y-85738095D02*
X137264342Y-85690476D01*
X137264342Y-85690476D02*
X137026247Y-85690476D01*
X137026247Y-85690476D02*
X136931009Y-85738095D01*
X136931009Y-85738095D02*
X136883390Y-85785714D01*
X136883390Y-85785714D02*
X136835771Y-85880952D01*
X136835771Y-85880952D02*
X136835771Y-86071428D01*
X136835771Y-86071428D02*
X136883390Y-86166666D01*
X136883390Y-86166666D02*
X136931009Y-86214285D01*
X136931009Y-86214285D02*
X137026247Y-86261904D01*
X127533333Y-111954819D02*
X127200000Y-111478628D01*
X126961905Y-111954819D02*
X126961905Y-110954819D01*
X126961905Y-110954819D02*
X127342857Y-110954819D01*
X127342857Y-110954819D02*
X127438095Y-111002438D01*
X127438095Y-111002438D02*
X127485714Y-111050057D01*
X127485714Y-111050057D02*
X127533333Y-111145295D01*
X127533333Y-111145295D02*
X127533333Y-111288152D01*
X127533333Y-111288152D02*
X127485714Y-111383390D01*
X127485714Y-111383390D02*
X127438095Y-111431009D01*
X127438095Y-111431009D02*
X127342857Y-111478628D01*
X127342857Y-111478628D02*
X126961905Y-111478628D01*
X128104762Y-111383390D02*
X128009524Y-111335771D01*
X128009524Y-111335771D02*
X127961905Y-111288152D01*
X127961905Y-111288152D02*
X127914286Y-111192914D01*
X127914286Y-111192914D02*
X127914286Y-111145295D01*
X127914286Y-111145295D02*
X127961905Y-111050057D01*
X127961905Y-111050057D02*
X128009524Y-111002438D01*
X128009524Y-111002438D02*
X128104762Y-110954819D01*
X128104762Y-110954819D02*
X128295238Y-110954819D01*
X128295238Y-110954819D02*
X128390476Y-111002438D01*
X128390476Y-111002438D02*
X128438095Y-111050057D01*
X128438095Y-111050057D02*
X128485714Y-111145295D01*
X128485714Y-111145295D02*
X128485714Y-111192914D01*
X128485714Y-111192914D02*
X128438095Y-111288152D01*
X128438095Y-111288152D02*
X128390476Y-111335771D01*
X128390476Y-111335771D02*
X128295238Y-111383390D01*
X128295238Y-111383390D02*
X128104762Y-111383390D01*
X128104762Y-111383390D02*
X128009524Y-111431009D01*
X128009524Y-111431009D02*
X127961905Y-111478628D01*
X127961905Y-111478628D02*
X127914286Y-111573866D01*
X127914286Y-111573866D02*
X127914286Y-111764342D01*
X127914286Y-111764342D02*
X127961905Y-111859580D01*
X127961905Y-111859580D02*
X128009524Y-111907200D01*
X128009524Y-111907200D02*
X128104762Y-111954819D01*
X128104762Y-111954819D02*
X128295238Y-111954819D01*
X128295238Y-111954819D02*
X128390476Y-111907200D01*
X128390476Y-111907200D02*
X128438095Y-111859580D01*
X128438095Y-111859580D02*
X128485714Y-111764342D01*
X128485714Y-111764342D02*
X128485714Y-111573866D01*
X128485714Y-111573866D02*
X128438095Y-111478628D01*
X128438095Y-111478628D02*
X128390476Y-111431009D01*
X128390476Y-111431009D02*
X128295238Y-111383390D01*
X110294642Y-101509580D02*
X110247023Y-101557200D01*
X110247023Y-101557200D02*
X110104166Y-101604819D01*
X110104166Y-101604819D02*
X110008928Y-101604819D01*
X110008928Y-101604819D02*
X109866071Y-101557200D01*
X109866071Y-101557200D02*
X109770833Y-101461961D01*
X109770833Y-101461961D02*
X109723214Y-101366723D01*
X109723214Y-101366723D02*
X109675595Y-101176247D01*
X109675595Y-101176247D02*
X109675595Y-101033390D01*
X109675595Y-101033390D02*
X109723214Y-100842914D01*
X109723214Y-100842914D02*
X109770833Y-100747676D01*
X109770833Y-100747676D02*
X109866071Y-100652438D01*
X109866071Y-100652438D02*
X110008928Y-100604819D01*
X110008928Y-100604819D02*
X110104166Y-100604819D01*
X110104166Y-100604819D02*
X110247023Y-100652438D01*
X110247023Y-100652438D02*
X110294642Y-100700057D01*
X110675595Y-100700057D02*
X110723214Y-100652438D01*
X110723214Y-100652438D02*
X110818452Y-100604819D01*
X110818452Y-100604819D02*
X111056547Y-100604819D01*
X111056547Y-100604819D02*
X111151785Y-100652438D01*
X111151785Y-100652438D02*
X111199404Y-100700057D01*
X111199404Y-100700057D02*
X111247023Y-100795295D01*
X111247023Y-100795295D02*
X111247023Y-100890533D01*
X111247023Y-100890533D02*
X111199404Y-101033390D01*
X111199404Y-101033390D02*
X110627976Y-101604819D01*
X110627976Y-101604819D02*
X111247023Y-101604819D01*
X111580357Y-100604819D02*
X112199404Y-100604819D01*
X112199404Y-100604819D02*
X111866071Y-100985771D01*
X111866071Y-100985771D02*
X112008928Y-100985771D01*
X112008928Y-100985771D02*
X112104166Y-101033390D01*
X112104166Y-101033390D02*
X112151785Y-101081009D01*
X112151785Y-101081009D02*
X112199404Y-101176247D01*
X112199404Y-101176247D02*
X112199404Y-101414342D01*
X112199404Y-101414342D02*
X112151785Y-101509580D01*
X112151785Y-101509580D02*
X112104166Y-101557200D01*
X112104166Y-101557200D02*
X112008928Y-101604819D01*
X112008928Y-101604819D02*
X111723214Y-101604819D01*
X111723214Y-101604819D02*
X111627976Y-101557200D01*
X111627976Y-101557200D02*
X111580357Y-101509580D01*
X129957142Y-94654819D02*
X129623809Y-94178628D01*
X129385714Y-94654819D02*
X129385714Y-93654819D01*
X129385714Y-93654819D02*
X129766666Y-93654819D01*
X129766666Y-93654819D02*
X129861904Y-93702438D01*
X129861904Y-93702438D02*
X129909523Y-93750057D01*
X129909523Y-93750057D02*
X129957142Y-93845295D01*
X129957142Y-93845295D02*
X129957142Y-93988152D01*
X129957142Y-93988152D02*
X129909523Y-94083390D01*
X129909523Y-94083390D02*
X129861904Y-94131009D01*
X129861904Y-94131009D02*
X129766666Y-94178628D01*
X129766666Y-94178628D02*
X129385714Y-94178628D01*
X130338095Y-93750057D02*
X130385714Y-93702438D01*
X130385714Y-93702438D02*
X130480952Y-93654819D01*
X130480952Y-93654819D02*
X130719047Y-93654819D01*
X130719047Y-93654819D02*
X130814285Y-93702438D01*
X130814285Y-93702438D02*
X130861904Y-93750057D01*
X130861904Y-93750057D02*
X130909523Y-93845295D01*
X130909523Y-93845295D02*
X130909523Y-93940533D01*
X130909523Y-93940533D02*
X130861904Y-94083390D01*
X130861904Y-94083390D02*
X130290476Y-94654819D01*
X130290476Y-94654819D02*
X130909523Y-94654819D01*
X131290476Y-93750057D02*
X131338095Y-93702438D01*
X131338095Y-93702438D02*
X131433333Y-93654819D01*
X131433333Y-93654819D02*
X131671428Y-93654819D01*
X131671428Y-93654819D02*
X131766666Y-93702438D01*
X131766666Y-93702438D02*
X131814285Y-93750057D01*
X131814285Y-93750057D02*
X131861904Y-93845295D01*
X131861904Y-93845295D02*
X131861904Y-93940533D01*
X131861904Y-93940533D02*
X131814285Y-94083390D01*
X131814285Y-94083390D02*
X131242857Y-94654819D01*
X131242857Y-94654819D02*
X131861904Y-94654819D01*
X89257142Y-79754819D02*
X88923809Y-79278628D01*
X88685714Y-79754819D02*
X88685714Y-78754819D01*
X88685714Y-78754819D02*
X89066666Y-78754819D01*
X89066666Y-78754819D02*
X89161904Y-78802438D01*
X89161904Y-78802438D02*
X89209523Y-78850057D01*
X89209523Y-78850057D02*
X89257142Y-78945295D01*
X89257142Y-78945295D02*
X89257142Y-79088152D01*
X89257142Y-79088152D02*
X89209523Y-79183390D01*
X89209523Y-79183390D02*
X89161904Y-79231009D01*
X89161904Y-79231009D02*
X89066666Y-79278628D01*
X89066666Y-79278628D02*
X88685714Y-79278628D01*
X90209523Y-79754819D02*
X89638095Y-79754819D01*
X89923809Y-79754819D02*
X89923809Y-78754819D01*
X89923809Y-78754819D02*
X89828571Y-78897676D01*
X89828571Y-78897676D02*
X89733333Y-78992914D01*
X89733333Y-78992914D02*
X89638095Y-79040533D01*
X90542857Y-78754819D02*
X91209523Y-78754819D01*
X91209523Y-78754819D02*
X90780952Y-79754819D01*
X108607142Y-75004819D02*
X108273809Y-74528628D01*
X108035714Y-75004819D02*
X108035714Y-74004819D01*
X108035714Y-74004819D02*
X108416666Y-74004819D01*
X108416666Y-74004819D02*
X108511904Y-74052438D01*
X108511904Y-74052438D02*
X108559523Y-74100057D01*
X108559523Y-74100057D02*
X108607142Y-74195295D01*
X108607142Y-74195295D02*
X108607142Y-74338152D01*
X108607142Y-74338152D02*
X108559523Y-74433390D01*
X108559523Y-74433390D02*
X108511904Y-74481009D01*
X108511904Y-74481009D02*
X108416666Y-74528628D01*
X108416666Y-74528628D02*
X108035714Y-74528628D01*
X108988095Y-74100057D02*
X109035714Y-74052438D01*
X109035714Y-74052438D02*
X109130952Y-74004819D01*
X109130952Y-74004819D02*
X109369047Y-74004819D01*
X109369047Y-74004819D02*
X109464285Y-74052438D01*
X109464285Y-74052438D02*
X109511904Y-74100057D01*
X109511904Y-74100057D02*
X109559523Y-74195295D01*
X109559523Y-74195295D02*
X109559523Y-74290533D01*
X109559523Y-74290533D02*
X109511904Y-74433390D01*
X109511904Y-74433390D02*
X108940476Y-75004819D01*
X108940476Y-75004819D02*
X109559523Y-75004819D01*
X110511904Y-75004819D02*
X109940476Y-75004819D01*
X110226190Y-75004819D02*
X110226190Y-74004819D01*
X110226190Y-74004819D02*
X110130952Y-74147676D01*
X110130952Y-74147676D02*
X110035714Y-74242914D01*
X110035714Y-74242914D02*
X109940476Y-74290533D01*
D11*
X97161905Y-107057419D02*
X97161905Y-107866942D01*
X97161905Y-107866942D02*
X97209524Y-107962180D01*
X97209524Y-107962180D02*
X97257143Y-108009800D01*
X97257143Y-108009800D02*
X97352381Y-108057419D01*
X97352381Y-108057419D02*
X97542857Y-108057419D01*
X97542857Y-108057419D02*
X97638095Y-108009800D01*
X97638095Y-108009800D02*
X97685714Y-107962180D01*
X97685714Y-107962180D02*
X97733333Y-107866942D01*
X97733333Y-107866942D02*
X97733333Y-107057419D01*
X98733333Y-108057419D02*
X98161905Y-108057419D01*
X98447619Y-108057419D02*
X98447619Y-107057419D01*
X98447619Y-107057419D02*
X98352381Y-107200276D01*
X98352381Y-107200276D02*
X98257143Y-107295514D01*
X98257143Y-107295514D02*
X98161905Y-107343133D01*
X99352381Y-107057419D02*
X99447619Y-107057419D01*
X99447619Y-107057419D02*
X99542857Y-107105038D01*
X99542857Y-107105038D02*
X99590476Y-107152657D01*
X99590476Y-107152657D02*
X99638095Y-107247895D01*
X99638095Y-107247895D02*
X99685714Y-107438371D01*
X99685714Y-107438371D02*
X99685714Y-107676466D01*
X99685714Y-107676466D02*
X99638095Y-107866942D01*
X99638095Y-107866942D02*
X99590476Y-107962180D01*
X99590476Y-107962180D02*
X99542857Y-108009800D01*
X99542857Y-108009800D02*
X99447619Y-108057419D01*
X99447619Y-108057419D02*
X99352381Y-108057419D01*
X99352381Y-108057419D02*
X99257143Y-108009800D01*
X99257143Y-108009800D02*
X99209524Y-107962180D01*
X99209524Y-107962180D02*
X99161905Y-107866942D01*
X99161905Y-107866942D02*
X99114286Y-107676466D01*
X99114286Y-107676466D02*
X99114286Y-107438371D01*
X99114286Y-107438371D02*
X99161905Y-107247895D01*
X99161905Y-107247895D02*
X99209524Y-107152657D01*
X99209524Y-107152657D02*
X99257143Y-107105038D01*
X99257143Y-107105038D02*
X99352381Y-107057419D01*
D10*
X90683333Y-86909580D02*
X90635714Y-86957200D01*
X90635714Y-86957200D02*
X90492857Y-87004819D01*
X90492857Y-87004819D02*
X90397619Y-87004819D01*
X90397619Y-87004819D02*
X90254762Y-86957200D01*
X90254762Y-86957200D02*
X90159524Y-86861961D01*
X90159524Y-86861961D02*
X90111905Y-86766723D01*
X90111905Y-86766723D02*
X90064286Y-86576247D01*
X90064286Y-86576247D02*
X90064286Y-86433390D01*
X90064286Y-86433390D02*
X90111905Y-86242914D01*
X90111905Y-86242914D02*
X90159524Y-86147676D01*
X90159524Y-86147676D02*
X90254762Y-86052438D01*
X90254762Y-86052438D02*
X90397619Y-86004819D01*
X90397619Y-86004819D02*
X90492857Y-86004819D01*
X90492857Y-86004819D02*
X90635714Y-86052438D01*
X90635714Y-86052438D02*
X90683333Y-86100057D01*
X91159524Y-87004819D02*
X91350000Y-87004819D01*
X91350000Y-87004819D02*
X91445238Y-86957200D01*
X91445238Y-86957200D02*
X91492857Y-86909580D01*
X91492857Y-86909580D02*
X91588095Y-86766723D01*
X91588095Y-86766723D02*
X91635714Y-86576247D01*
X91635714Y-86576247D02*
X91635714Y-86195295D01*
X91635714Y-86195295D02*
X91588095Y-86100057D01*
X91588095Y-86100057D02*
X91540476Y-86052438D01*
X91540476Y-86052438D02*
X91445238Y-86004819D01*
X91445238Y-86004819D02*
X91254762Y-86004819D01*
X91254762Y-86004819D02*
X91159524Y-86052438D01*
X91159524Y-86052438D02*
X91111905Y-86100057D01*
X91111905Y-86100057D02*
X91064286Y-86195295D01*
X91064286Y-86195295D02*
X91064286Y-86433390D01*
X91064286Y-86433390D02*
X91111905Y-86528628D01*
X91111905Y-86528628D02*
X91159524Y-86576247D01*
X91159524Y-86576247D02*
X91254762Y-86623866D01*
X91254762Y-86623866D02*
X91445238Y-86623866D01*
X91445238Y-86623866D02*
X91540476Y-86576247D01*
X91540476Y-86576247D02*
X91588095Y-86528628D01*
X91588095Y-86528628D02*
X91635714Y-86433390D01*
X78066666Y-110104819D02*
X78066666Y-110819104D01*
X78066666Y-110819104D02*
X78019047Y-110961961D01*
X78019047Y-110961961D02*
X77923809Y-111057200D01*
X77923809Y-111057200D02*
X77780952Y-111104819D01*
X77780952Y-111104819D02*
X77685714Y-111104819D01*
X78447619Y-110104819D02*
X79114285Y-110104819D01*
X79114285Y-110104819D02*
X78685714Y-111104819D01*
X142738095Y-107304819D02*
X142738095Y-108114342D01*
X142738095Y-108114342D02*
X142785714Y-108209580D01*
X142785714Y-108209580D02*
X142833333Y-108257200D01*
X142833333Y-108257200D02*
X142928571Y-108304819D01*
X142928571Y-108304819D02*
X143119047Y-108304819D01*
X143119047Y-108304819D02*
X143214285Y-108257200D01*
X143214285Y-108257200D02*
X143261904Y-108209580D01*
X143261904Y-108209580D02*
X143309523Y-108114342D01*
X143309523Y-108114342D02*
X143309523Y-107304819D01*
X144309523Y-108304819D02*
X143738095Y-108304819D01*
X144023809Y-108304819D02*
X144023809Y-107304819D01*
X144023809Y-107304819D02*
X143928571Y-107447676D01*
X143928571Y-107447676D02*
X143833333Y-107542914D01*
X143833333Y-107542914D02*
X143738095Y-107590533D01*
X100357142Y-84359580D02*
X100309523Y-84407200D01*
X100309523Y-84407200D02*
X100166666Y-84454819D01*
X100166666Y-84454819D02*
X100071428Y-84454819D01*
X100071428Y-84454819D02*
X99928571Y-84407200D01*
X99928571Y-84407200D02*
X99833333Y-84311961D01*
X99833333Y-84311961D02*
X99785714Y-84216723D01*
X99785714Y-84216723D02*
X99738095Y-84026247D01*
X99738095Y-84026247D02*
X99738095Y-83883390D01*
X99738095Y-83883390D02*
X99785714Y-83692914D01*
X99785714Y-83692914D02*
X99833333Y-83597676D01*
X99833333Y-83597676D02*
X99928571Y-83502438D01*
X99928571Y-83502438D02*
X100071428Y-83454819D01*
X100071428Y-83454819D02*
X100166666Y-83454819D01*
X100166666Y-83454819D02*
X100309523Y-83502438D01*
X100309523Y-83502438D02*
X100357142Y-83550057D01*
X101309523Y-84454819D02*
X100738095Y-84454819D01*
X101023809Y-84454819D02*
X101023809Y-83454819D01*
X101023809Y-83454819D02*
X100928571Y-83597676D01*
X100928571Y-83597676D02*
X100833333Y-83692914D01*
X100833333Y-83692914D02*
X100738095Y-83740533D01*
X101928571Y-83454819D02*
X102023809Y-83454819D01*
X102023809Y-83454819D02*
X102119047Y-83502438D01*
X102119047Y-83502438D02*
X102166666Y-83550057D01*
X102166666Y-83550057D02*
X102214285Y-83645295D01*
X102214285Y-83645295D02*
X102261904Y-83835771D01*
X102261904Y-83835771D02*
X102261904Y-84073866D01*
X102261904Y-84073866D02*
X102214285Y-84264342D01*
X102214285Y-84264342D02*
X102166666Y-84359580D01*
X102166666Y-84359580D02*
X102119047Y-84407200D01*
X102119047Y-84407200D02*
X102023809Y-84454819D01*
X102023809Y-84454819D02*
X101928571Y-84454819D01*
X101928571Y-84454819D02*
X101833333Y-84407200D01*
X101833333Y-84407200D02*
X101785714Y-84359580D01*
X101785714Y-84359580D02*
X101738095Y-84264342D01*
X101738095Y-84264342D02*
X101690476Y-84073866D01*
X101690476Y-84073866D02*
X101690476Y-83835771D01*
X101690476Y-83835771D02*
X101738095Y-83645295D01*
X101738095Y-83645295D02*
X101785714Y-83550057D01*
X101785714Y-83550057D02*
X101833333Y-83502438D01*
X101833333Y-83502438D02*
X101928571Y-83454819D01*
X123557142Y-84259580D02*
X123509523Y-84307200D01*
X123509523Y-84307200D02*
X123366666Y-84354819D01*
X123366666Y-84354819D02*
X123271428Y-84354819D01*
X123271428Y-84354819D02*
X123128571Y-84307200D01*
X123128571Y-84307200D02*
X123033333Y-84211961D01*
X123033333Y-84211961D02*
X122985714Y-84116723D01*
X122985714Y-84116723D02*
X122938095Y-83926247D01*
X122938095Y-83926247D02*
X122938095Y-83783390D01*
X122938095Y-83783390D02*
X122985714Y-83592914D01*
X122985714Y-83592914D02*
X123033333Y-83497676D01*
X123033333Y-83497676D02*
X123128571Y-83402438D01*
X123128571Y-83402438D02*
X123271428Y-83354819D01*
X123271428Y-83354819D02*
X123366666Y-83354819D01*
X123366666Y-83354819D02*
X123509523Y-83402438D01*
X123509523Y-83402438D02*
X123557142Y-83450057D01*
X124414285Y-83688152D02*
X124414285Y-84354819D01*
X124176190Y-83307200D02*
X123938095Y-84021485D01*
X123938095Y-84021485D02*
X124557142Y-84021485D01*
X125414285Y-83354819D02*
X124938095Y-83354819D01*
X124938095Y-83354819D02*
X124890476Y-83831009D01*
X124890476Y-83831009D02*
X124938095Y-83783390D01*
X124938095Y-83783390D02*
X125033333Y-83735771D01*
X125033333Y-83735771D02*
X125271428Y-83735771D01*
X125271428Y-83735771D02*
X125366666Y-83783390D01*
X125366666Y-83783390D02*
X125414285Y-83831009D01*
X125414285Y-83831009D02*
X125461904Y-83926247D01*
X125461904Y-83926247D02*
X125461904Y-84164342D01*
X125461904Y-84164342D02*
X125414285Y-84259580D01*
X125414285Y-84259580D02*
X125366666Y-84307200D01*
X125366666Y-84307200D02*
X125271428Y-84354819D01*
X125271428Y-84354819D02*
X125033333Y-84354819D01*
X125033333Y-84354819D02*
X124938095Y-84307200D01*
X124938095Y-84307200D02*
X124890476Y-84259580D01*
X129107142Y-109004819D02*
X128773809Y-108528628D01*
X128535714Y-109004819D02*
X128535714Y-108004819D01*
X128535714Y-108004819D02*
X128916666Y-108004819D01*
X128916666Y-108004819D02*
X129011904Y-108052438D01*
X129011904Y-108052438D02*
X129059523Y-108100057D01*
X129059523Y-108100057D02*
X129107142Y-108195295D01*
X129107142Y-108195295D02*
X129107142Y-108338152D01*
X129107142Y-108338152D02*
X129059523Y-108433390D01*
X129059523Y-108433390D02*
X129011904Y-108481009D01*
X129011904Y-108481009D02*
X128916666Y-108528628D01*
X128916666Y-108528628D02*
X128535714Y-108528628D01*
X130059523Y-109004819D02*
X129488095Y-109004819D01*
X129773809Y-109004819D02*
X129773809Y-108004819D01*
X129773809Y-108004819D02*
X129678571Y-108147676D01*
X129678571Y-108147676D02*
X129583333Y-108242914D01*
X129583333Y-108242914D02*
X129488095Y-108290533D01*
X130916666Y-108338152D02*
X130916666Y-109004819D01*
X130678571Y-107957200D02*
X130440476Y-108671485D01*
X130440476Y-108671485D02*
X131059523Y-108671485D01*
X98257142Y-113659580D02*
X98209523Y-113707200D01*
X98209523Y-113707200D02*
X98066666Y-113754819D01*
X98066666Y-113754819D02*
X97971428Y-113754819D01*
X97971428Y-113754819D02*
X97828571Y-113707200D01*
X97828571Y-113707200D02*
X97733333Y-113611961D01*
X97733333Y-113611961D02*
X97685714Y-113516723D01*
X97685714Y-113516723D02*
X97638095Y-113326247D01*
X97638095Y-113326247D02*
X97638095Y-113183390D01*
X97638095Y-113183390D02*
X97685714Y-112992914D01*
X97685714Y-112992914D02*
X97733333Y-112897676D01*
X97733333Y-112897676D02*
X97828571Y-112802438D01*
X97828571Y-112802438D02*
X97971428Y-112754819D01*
X97971428Y-112754819D02*
X98066666Y-112754819D01*
X98066666Y-112754819D02*
X98209523Y-112802438D01*
X98209523Y-112802438D02*
X98257142Y-112850057D01*
X98590476Y-112754819D02*
X99209523Y-112754819D01*
X99209523Y-112754819D02*
X98876190Y-113135771D01*
X98876190Y-113135771D02*
X99019047Y-113135771D01*
X99019047Y-113135771D02*
X99114285Y-113183390D01*
X99114285Y-113183390D02*
X99161904Y-113231009D01*
X99161904Y-113231009D02*
X99209523Y-113326247D01*
X99209523Y-113326247D02*
X99209523Y-113564342D01*
X99209523Y-113564342D02*
X99161904Y-113659580D01*
X99161904Y-113659580D02*
X99114285Y-113707200D01*
X99114285Y-113707200D02*
X99019047Y-113754819D01*
X99019047Y-113754819D02*
X98733333Y-113754819D01*
X98733333Y-113754819D02*
X98638095Y-113707200D01*
X98638095Y-113707200D02*
X98590476Y-113659580D01*
X100066666Y-112754819D02*
X99876190Y-112754819D01*
X99876190Y-112754819D02*
X99780952Y-112802438D01*
X99780952Y-112802438D02*
X99733333Y-112850057D01*
X99733333Y-112850057D02*
X99638095Y-112992914D01*
X99638095Y-112992914D02*
X99590476Y-113183390D01*
X99590476Y-113183390D02*
X99590476Y-113564342D01*
X99590476Y-113564342D02*
X99638095Y-113659580D01*
X99638095Y-113659580D02*
X99685714Y-113707200D01*
X99685714Y-113707200D02*
X99780952Y-113754819D01*
X99780952Y-113754819D02*
X99971428Y-113754819D01*
X99971428Y-113754819D02*
X100066666Y-113707200D01*
X100066666Y-113707200D02*
X100114285Y-113659580D01*
X100114285Y-113659580D02*
X100161904Y-113564342D01*
X100161904Y-113564342D02*
X100161904Y-113326247D01*
X100161904Y-113326247D02*
X100114285Y-113231009D01*
X100114285Y-113231009D02*
X100066666Y-113183390D01*
X100066666Y-113183390D02*
X99971428Y-113135771D01*
X99971428Y-113135771D02*
X99780952Y-113135771D01*
X99780952Y-113135771D02*
X99685714Y-113183390D01*
X99685714Y-113183390D02*
X99638095Y-113231009D01*
X99638095Y-113231009D02*
X99590476Y-113326247D01*
X135323809Y-103178628D02*
X135323809Y-103654819D01*
X134990476Y-102654819D02*
X135323809Y-103178628D01*
X135323809Y-103178628D02*
X135657142Y-102654819D01*
X136514285Y-103654819D02*
X135942857Y-103654819D01*
X136228571Y-103654819D02*
X136228571Y-102654819D01*
X136228571Y-102654819D02*
X136133333Y-102797676D01*
X136133333Y-102797676D02*
X136038095Y-102892914D01*
X136038095Y-102892914D02*
X135942857Y-102940533D01*
X152433333Y-107259580D02*
X152385714Y-107307200D01*
X152385714Y-107307200D02*
X152242857Y-107354819D01*
X152242857Y-107354819D02*
X152147619Y-107354819D01*
X152147619Y-107354819D02*
X152004762Y-107307200D01*
X152004762Y-107307200D02*
X151909524Y-107211961D01*
X151909524Y-107211961D02*
X151861905Y-107116723D01*
X151861905Y-107116723D02*
X151814286Y-106926247D01*
X151814286Y-106926247D02*
X151814286Y-106783390D01*
X151814286Y-106783390D02*
X151861905Y-106592914D01*
X151861905Y-106592914D02*
X151909524Y-106497676D01*
X151909524Y-106497676D02*
X152004762Y-106402438D01*
X152004762Y-106402438D02*
X152147619Y-106354819D01*
X152147619Y-106354819D02*
X152242857Y-106354819D01*
X152242857Y-106354819D02*
X152385714Y-106402438D01*
X152385714Y-106402438D02*
X152433333Y-106450057D01*
X153290476Y-106688152D02*
X153290476Y-107354819D01*
X153052381Y-106307200D02*
X152814286Y-107021485D01*
X152814286Y-107021485D02*
X153433333Y-107021485D01*
X106207142Y-114467319D02*
X105873809Y-113991128D01*
X105635714Y-114467319D02*
X105635714Y-113467319D01*
X105635714Y-113467319D02*
X106016666Y-113467319D01*
X106016666Y-113467319D02*
X106111904Y-113514938D01*
X106111904Y-113514938D02*
X106159523Y-113562557D01*
X106159523Y-113562557D02*
X106207142Y-113657795D01*
X106207142Y-113657795D02*
X106207142Y-113800652D01*
X106207142Y-113800652D02*
X106159523Y-113895890D01*
X106159523Y-113895890D02*
X106111904Y-113943509D01*
X106111904Y-113943509D02*
X106016666Y-113991128D01*
X106016666Y-113991128D02*
X105635714Y-113991128D01*
X106588095Y-113562557D02*
X106635714Y-113514938D01*
X106635714Y-113514938D02*
X106730952Y-113467319D01*
X106730952Y-113467319D02*
X106969047Y-113467319D01*
X106969047Y-113467319D02*
X107064285Y-113514938D01*
X107064285Y-113514938D02*
X107111904Y-113562557D01*
X107111904Y-113562557D02*
X107159523Y-113657795D01*
X107159523Y-113657795D02*
X107159523Y-113753033D01*
X107159523Y-113753033D02*
X107111904Y-113895890D01*
X107111904Y-113895890D02*
X106540476Y-114467319D01*
X106540476Y-114467319D02*
X107159523Y-114467319D01*
X107492857Y-113467319D02*
X108111904Y-113467319D01*
X108111904Y-113467319D02*
X107778571Y-113848271D01*
X107778571Y-113848271D02*
X107921428Y-113848271D01*
X107921428Y-113848271D02*
X108016666Y-113895890D01*
X108016666Y-113895890D02*
X108064285Y-113943509D01*
X108064285Y-113943509D02*
X108111904Y-114038747D01*
X108111904Y-114038747D02*
X108111904Y-114276842D01*
X108111904Y-114276842D02*
X108064285Y-114372080D01*
X108064285Y-114372080D02*
X108016666Y-114419700D01*
X108016666Y-114419700D02*
X107921428Y-114467319D01*
X107921428Y-114467319D02*
X107635714Y-114467319D01*
X107635714Y-114467319D02*
X107540476Y-114419700D01*
X107540476Y-114419700D02*
X107492857Y-114372080D01*
X121054819Y-92566666D02*
X120578628Y-92899999D01*
X121054819Y-93138094D02*
X120054819Y-93138094D01*
X120054819Y-93138094D02*
X120054819Y-92757142D01*
X120054819Y-92757142D02*
X120102438Y-92661904D01*
X120102438Y-92661904D02*
X120150057Y-92614285D01*
X120150057Y-92614285D02*
X120245295Y-92566666D01*
X120245295Y-92566666D02*
X120388152Y-92566666D01*
X120388152Y-92566666D02*
X120483390Y-92614285D01*
X120483390Y-92614285D02*
X120531009Y-92661904D01*
X120531009Y-92661904D02*
X120578628Y-92757142D01*
X120578628Y-92757142D02*
X120578628Y-93138094D01*
X121054819Y-91614285D02*
X121054819Y-92185713D01*
X121054819Y-91899999D02*
X120054819Y-91899999D01*
X120054819Y-91899999D02*
X120197676Y-91995237D01*
X120197676Y-91995237D02*
X120292914Y-92090475D01*
X120292914Y-92090475D02*
X120340533Y-92185713D01*
X108038095Y-111254819D02*
X108038095Y-112064342D01*
X108038095Y-112064342D02*
X108085714Y-112159580D01*
X108085714Y-112159580D02*
X108133333Y-112207200D01*
X108133333Y-112207200D02*
X108228571Y-112254819D01*
X108228571Y-112254819D02*
X108419047Y-112254819D01*
X108419047Y-112254819D02*
X108514285Y-112207200D01*
X108514285Y-112207200D02*
X108561904Y-112159580D01*
X108561904Y-112159580D02*
X108609523Y-112064342D01*
X108609523Y-112064342D02*
X108609523Y-111254819D01*
X109561904Y-111254819D02*
X109085714Y-111254819D01*
X109085714Y-111254819D02*
X109038095Y-111731009D01*
X109038095Y-111731009D02*
X109085714Y-111683390D01*
X109085714Y-111683390D02*
X109180952Y-111635771D01*
X109180952Y-111635771D02*
X109419047Y-111635771D01*
X109419047Y-111635771D02*
X109514285Y-111683390D01*
X109514285Y-111683390D02*
X109561904Y-111731009D01*
X109561904Y-111731009D02*
X109609523Y-111826247D01*
X109609523Y-111826247D02*
X109609523Y-112064342D01*
X109609523Y-112064342D02*
X109561904Y-112159580D01*
X109561904Y-112159580D02*
X109514285Y-112207200D01*
X109514285Y-112207200D02*
X109419047Y-112254819D01*
X109419047Y-112254819D02*
X109180952Y-112254819D01*
X109180952Y-112254819D02*
X109085714Y-112207200D01*
X109085714Y-112207200D02*
X109038095Y-112159580D01*
X122557142Y-95984580D02*
X122509523Y-96032200D01*
X122509523Y-96032200D02*
X122366666Y-96079819D01*
X122366666Y-96079819D02*
X122271428Y-96079819D01*
X122271428Y-96079819D02*
X122128571Y-96032200D01*
X122128571Y-96032200D02*
X122033333Y-95936961D01*
X122033333Y-95936961D02*
X121985714Y-95841723D01*
X121985714Y-95841723D02*
X121938095Y-95651247D01*
X121938095Y-95651247D02*
X121938095Y-95508390D01*
X121938095Y-95508390D02*
X121985714Y-95317914D01*
X121985714Y-95317914D02*
X122033333Y-95222676D01*
X122033333Y-95222676D02*
X122128571Y-95127438D01*
X122128571Y-95127438D02*
X122271428Y-95079819D01*
X122271428Y-95079819D02*
X122366666Y-95079819D01*
X122366666Y-95079819D02*
X122509523Y-95127438D01*
X122509523Y-95127438D02*
X122557142Y-95175057D01*
X122938095Y-95175057D02*
X122985714Y-95127438D01*
X122985714Y-95127438D02*
X123080952Y-95079819D01*
X123080952Y-95079819D02*
X123319047Y-95079819D01*
X123319047Y-95079819D02*
X123414285Y-95127438D01*
X123414285Y-95127438D02*
X123461904Y-95175057D01*
X123461904Y-95175057D02*
X123509523Y-95270295D01*
X123509523Y-95270295D02*
X123509523Y-95365533D01*
X123509523Y-95365533D02*
X123461904Y-95508390D01*
X123461904Y-95508390D02*
X122890476Y-96079819D01*
X122890476Y-96079819D02*
X123509523Y-96079819D01*
X124461904Y-96079819D02*
X123890476Y-96079819D01*
X124176190Y-96079819D02*
X124176190Y-95079819D01*
X124176190Y-95079819D02*
X124080952Y-95222676D01*
X124080952Y-95222676D02*
X123985714Y-95317914D01*
X123985714Y-95317914D02*
X123890476Y-95365533D01*
X126559580Y-113142857D02*
X126607200Y-113190476D01*
X126607200Y-113190476D02*
X126654819Y-113333333D01*
X126654819Y-113333333D02*
X126654819Y-113428571D01*
X126654819Y-113428571D02*
X126607200Y-113571428D01*
X126607200Y-113571428D02*
X126511961Y-113666666D01*
X126511961Y-113666666D02*
X126416723Y-113714285D01*
X126416723Y-113714285D02*
X126226247Y-113761904D01*
X126226247Y-113761904D02*
X126083390Y-113761904D01*
X126083390Y-113761904D02*
X125892914Y-113714285D01*
X125892914Y-113714285D02*
X125797676Y-113666666D01*
X125797676Y-113666666D02*
X125702438Y-113571428D01*
X125702438Y-113571428D02*
X125654819Y-113428571D01*
X125654819Y-113428571D02*
X125654819Y-113333333D01*
X125654819Y-113333333D02*
X125702438Y-113190476D01*
X125702438Y-113190476D02*
X125750057Y-113142857D01*
X126654819Y-112190476D02*
X126654819Y-112761904D01*
X126654819Y-112476190D02*
X125654819Y-112476190D01*
X125654819Y-112476190D02*
X125797676Y-112571428D01*
X125797676Y-112571428D02*
X125892914Y-112666666D01*
X125892914Y-112666666D02*
X125940533Y-112761904D01*
X126654819Y-111714285D02*
X126654819Y-111523809D01*
X126654819Y-111523809D02*
X126607200Y-111428571D01*
X126607200Y-111428571D02*
X126559580Y-111380952D01*
X126559580Y-111380952D02*
X126416723Y-111285714D01*
X126416723Y-111285714D02*
X126226247Y-111238095D01*
X126226247Y-111238095D02*
X125845295Y-111238095D01*
X125845295Y-111238095D02*
X125750057Y-111285714D01*
X125750057Y-111285714D02*
X125702438Y-111333333D01*
X125702438Y-111333333D02*
X125654819Y-111428571D01*
X125654819Y-111428571D02*
X125654819Y-111619047D01*
X125654819Y-111619047D02*
X125702438Y-111714285D01*
X125702438Y-111714285D02*
X125750057Y-111761904D01*
X125750057Y-111761904D02*
X125845295Y-111809523D01*
X125845295Y-111809523D02*
X126083390Y-111809523D01*
X126083390Y-111809523D02*
X126178628Y-111761904D01*
X126178628Y-111761904D02*
X126226247Y-111714285D01*
X126226247Y-111714285D02*
X126273866Y-111619047D01*
X126273866Y-111619047D02*
X126273866Y-111428571D01*
X126273866Y-111428571D02*
X126226247Y-111333333D01*
X126226247Y-111333333D02*
X126178628Y-111285714D01*
X126178628Y-111285714D02*
X126083390Y-111238095D01*
X104807142Y-75004819D02*
X104473809Y-74528628D01*
X104235714Y-75004819D02*
X104235714Y-74004819D01*
X104235714Y-74004819D02*
X104616666Y-74004819D01*
X104616666Y-74004819D02*
X104711904Y-74052438D01*
X104711904Y-74052438D02*
X104759523Y-74100057D01*
X104759523Y-74100057D02*
X104807142Y-74195295D01*
X104807142Y-74195295D02*
X104807142Y-74338152D01*
X104807142Y-74338152D02*
X104759523Y-74433390D01*
X104759523Y-74433390D02*
X104711904Y-74481009D01*
X104711904Y-74481009D02*
X104616666Y-74528628D01*
X104616666Y-74528628D02*
X104235714Y-74528628D01*
X105188095Y-74100057D02*
X105235714Y-74052438D01*
X105235714Y-74052438D02*
X105330952Y-74004819D01*
X105330952Y-74004819D02*
X105569047Y-74004819D01*
X105569047Y-74004819D02*
X105664285Y-74052438D01*
X105664285Y-74052438D02*
X105711904Y-74100057D01*
X105711904Y-74100057D02*
X105759523Y-74195295D01*
X105759523Y-74195295D02*
X105759523Y-74290533D01*
X105759523Y-74290533D02*
X105711904Y-74433390D01*
X105711904Y-74433390D02*
X105140476Y-75004819D01*
X105140476Y-75004819D02*
X105759523Y-75004819D01*
X106378571Y-74004819D02*
X106473809Y-74004819D01*
X106473809Y-74004819D02*
X106569047Y-74052438D01*
X106569047Y-74052438D02*
X106616666Y-74100057D01*
X106616666Y-74100057D02*
X106664285Y-74195295D01*
X106664285Y-74195295D02*
X106711904Y-74385771D01*
X106711904Y-74385771D02*
X106711904Y-74623866D01*
X106711904Y-74623866D02*
X106664285Y-74814342D01*
X106664285Y-74814342D02*
X106616666Y-74909580D01*
X106616666Y-74909580D02*
X106569047Y-74957200D01*
X106569047Y-74957200D02*
X106473809Y-75004819D01*
X106473809Y-75004819D02*
X106378571Y-75004819D01*
X106378571Y-75004819D02*
X106283333Y-74957200D01*
X106283333Y-74957200D02*
X106235714Y-74909580D01*
X106235714Y-74909580D02*
X106188095Y-74814342D01*
X106188095Y-74814342D02*
X106140476Y-74623866D01*
X106140476Y-74623866D02*
X106140476Y-74385771D01*
X106140476Y-74385771D02*
X106188095Y-74195295D01*
X106188095Y-74195295D02*
X106235714Y-74100057D01*
X106235714Y-74100057D02*
X106283333Y-74052438D01*
X106283333Y-74052438D02*
X106378571Y-74004819D01*
X88757142Y-92559580D02*
X88709523Y-92607200D01*
X88709523Y-92607200D02*
X88566666Y-92654819D01*
X88566666Y-92654819D02*
X88471428Y-92654819D01*
X88471428Y-92654819D02*
X88328571Y-92607200D01*
X88328571Y-92607200D02*
X88233333Y-92511961D01*
X88233333Y-92511961D02*
X88185714Y-92416723D01*
X88185714Y-92416723D02*
X88138095Y-92226247D01*
X88138095Y-92226247D02*
X88138095Y-92083390D01*
X88138095Y-92083390D02*
X88185714Y-91892914D01*
X88185714Y-91892914D02*
X88233333Y-91797676D01*
X88233333Y-91797676D02*
X88328571Y-91702438D01*
X88328571Y-91702438D02*
X88471428Y-91654819D01*
X88471428Y-91654819D02*
X88566666Y-91654819D01*
X88566666Y-91654819D02*
X88709523Y-91702438D01*
X88709523Y-91702438D02*
X88757142Y-91750057D01*
X89709523Y-92654819D02*
X89138095Y-92654819D01*
X89423809Y-92654819D02*
X89423809Y-91654819D01*
X89423809Y-91654819D02*
X89328571Y-91797676D01*
X89328571Y-91797676D02*
X89233333Y-91892914D01*
X89233333Y-91892914D02*
X89138095Y-91940533D01*
X90090476Y-91750057D02*
X90138095Y-91702438D01*
X90138095Y-91702438D02*
X90233333Y-91654819D01*
X90233333Y-91654819D02*
X90471428Y-91654819D01*
X90471428Y-91654819D02*
X90566666Y-91702438D01*
X90566666Y-91702438D02*
X90614285Y-91750057D01*
X90614285Y-91750057D02*
X90661904Y-91845295D01*
X90661904Y-91845295D02*
X90661904Y-91940533D01*
X90661904Y-91940533D02*
X90614285Y-92083390D01*
X90614285Y-92083390D02*
X90042857Y-92654819D01*
X90042857Y-92654819D02*
X90661904Y-92654819D01*
X107958333Y-121409580D02*
X107910714Y-121457200D01*
X107910714Y-121457200D02*
X107767857Y-121504819D01*
X107767857Y-121504819D02*
X107672619Y-121504819D01*
X107672619Y-121504819D02*
X107529762Y-121457200D01*
X107529762Y-121457200D02*
X107434524Y-121361961D01*
X107434524Y-121361961D02*
X107386905Y-121266723D01*
X107386905Y-121266723D02*
X107339286Y-121076247D01*
X107339286Y-121076247D02*
X107339286Y-120933390D01*
X107339286Y-120933390D02*
X107386905Y-120742914D01*
X107386905Y-120742914D02*
X107434524Y-120647676D01*
X107434524Y-120647676D02*
X107529762Y-120552438D01*
X107529762Y-120552438D02*
X107672619Y-120504819D01*
X107672619Y-120504819D02*
X107767857Y-120504819D01*
X107767857Y-120504819D02*
X107910714Y-120552438D01*
X107910714Y-120552438D02*
X107958333Y-120600057D01*
X108815476Y-120504819D02*
X108625000Y-120504819D01*
X108625000Y-120504819D02*
X108529762Y-120552438D01*
X108529762Y-120552438D02*
X108482143Y-120600057D01*
X108482143Y-120600057D02*
X108386905Y-120742914D01*
X108386905Y-120742914D02*
X108339286Y-120933390D01*
X108339286Y-120933390D02*
X108339286Y-121314342D01*
X108339286Y-121314342D02*
X108386905Y-121409580D01*
X108386905Y-121409580D02*
X108434524Y-121457200D01*
X108434524Y-121457200D02*
X108529762Y-121504819D01*
X108529762Y-121504819D02*
X108720238Y-121504819D01*
X108720238Y-121504819D02*
X108815476Y-121457200D01*
X108815476Y-121457200D02*
X108863095Y-121409580D01*
X108863095Y-121409580D02*
X108910714Y-121314342D01*
X108910714Y-121314342D02*
X108910714Y-121076247D01*
X108910714Y-121076247D02*
X108863095Y-120981009D01*
X108863095Y-120981009D02*
X108815476Y-120933390D01*
X108815476Y-120933390D02*
X108720238Y-120885771D01*
X108720238Y-120885771D02*
X108529762Y-120885771D01*
X108529762Y-120885771D02*
X108434524Y-120933390D01*
X108434524Y-120933390D02*
X108386905Y-120981009D01*
X108386905Y-120981009D02*
X108339286Y-121076247D01*
X93595833Y-77659580D02*
X93548214Y-77707200D01*
X93548214Y-77707200D02*
X93405357Y-77754819D01*
X93405357Y-77754819D02*
X93310119Y-77754819D01*
X93310119Y-77754819D02*
X93167262Y-77707200D01*
X93167262Y-77707200D02*
X93072024Y-77611961D01*
X93072024Y-77611961D02*
X93024405Y-77516723D01*
X93024405Y-77516723D02*
X92976786Y-77326247D01*
X92976786Y-77326247D02*
X92976786Y-77183390D01*
X92976786Y-77183390D02*
X93024405Y-76992914D01*
X93024405Y-76992914D02*
X93072024Y-76897676D01*
X93072024Y-76897676D02*
X93167262Y-76802438D01*
X93167262Y-76802438D02*
X93310119Y-76754819D01*
X93310119Y-76754819D02*
X93405357Y-76754819D01*
X93405357Y-76754819D02*
X93548214Y-76802438D01*
X93548214Y-76802438D02*
X93595833Y-76850057D01*
X93976786Y-76850057D02*
X94024405Y-76802438D01*
X94024405Y-76802438D02*
X94119643Y-76754819D01*
X94119643Y-76754819D02*
X94357738Y-76754819D01*
X94357738Y-76754819D02*
X94452976Y-76802438D01*
X94452976Y-76802438D02*
X94500595Y-76850057D01*
X94500595Y-76850057D02*
X94548214Y-76945295D01*
X94548214Y-76945295D02*
X94548214Y-77040533D01*
X94548214Y-77040533D02*
X94500595Y-77183390D01*
X94500595Y-77183390D02*
X93929167Y-77754819D01*
X93929167Y-77754819D02*
X94548214Y-77754819D01*
X97438095Y-78254819D02*
X97438095Y-79064342D01*
X97438095Y-79064342D02*
X97485714Y-79159580D01*
X97485714Y-79159580D02*
X97533333Y-79207200D01*
X97533333Y-79207200D02*
X97628571Y-79254819D01*
X97628571Y-79254819D02*
X97819047Y-79254819D01*
X97819047Y-79254819D02*
X97914285Y-79207200D01*
X97914285Y-79207200D02*
X97961904Y-79159580D01*
X97961904Y-79159580D02*
X98009523Y-79064342D01*
X98009523Y-79064342D02*
X98009523Y-78254819D01*
X98628571Y-78683390D02*
X98533333Y-78635771D01*
X98533333Y-78635771D02*
X98485714Y-78588152D01*
X98485714Y-78588152D02*
X98438095Y-78492914D01*
X98438095Y-78492914D02*
X98438095Y-78445295D01*
X98438095Y-78445295D02*
X98485714Y-78350057D01*
X98485714Y-78350057D02*
X98533333Y-78302438D01*
X98533333Y-78302438D02*
X98628571Y-78254819D01*
X98628571Y-78254819D02*
X98819047Y-78254819D01*
X98819047Y-78254819D02*
X98914285Y-78302438D01*
X98914285Y-78302438D02*
X98961904Y-78350057D01*
X98961904Y-78350057D02*
X99009523Y-78445295D01*
X99009523Y-78445295D02*
X99009523Y-78492914D01*
X99009523Y-78492914D02*
X98961904Y-78588152D01*
X98961904Y-78588152D02*
X98914285Y-78635771D01*
X98914285Y-78635771D02*
X98819047Y-78683390D01*
X98819047Y-78683390D02*
X98628571Y-78683390D01*
X98628571Y-78683390D02*
X98533333Y-78731009D01*
X98533333Y-78731009D02*
X98485714Y-78778628D01*
X98485714Y-78778628D02*
X98438095Y-78873866D01*
X98438095Y-78873866D02*
X98438095Y-79064342D01*
X98438095Y-79064342D02*
X98485714Y-79159580D01*
X98485714Y-79159580D02*
X98533333Y-79207200D01*
X98533333Y-79207200D02*
X98628571Y-79254819D01*
X98628571Y-79254819D02*
X98819047Y-79254819D01*
X98819047Y-79254819D02*
X98914285Y-79207200D01*
X98914285Y-79207200D02*
X98961904Y-79159580D01*
X98961904Y-79159580D02*
X99009523Y-79064342D01*
X99009523Y-79064342D02*
X99009523Y-78873866D01*
X99009523Y-78873866D02*
X98961904Y-78778628D01*
X98961904Y-78778628D02*
X98914285Y-78731009D01*
X98914285Y-78731009D02*
X98819047Y-78683390D01*
X117957142Y-86559580D02*
X117909523Y-86607200D01*
X117909523Y-86607200D02*
X117766666Y-86654819D01*
X117766666Y-86654819D02*
X117671428Y-86654819D01*
X117671428Y-86654819D02*
X117528571Y-86607200D01*
X117528571Y-86607200D02*
X117433333Y-86511961D01*
X117433333Y-86511961D02*
X117385714Y-86416723D01*
X117385714Y-86416723D02*
X117338095Y-86226247D01*
X117338095Y-86226247D02*
X117338095Y-86083390D01*
X117338095Y-86083390D02*
X117385714Y-85892914D01*
X117385714Y-85892914D02*
X117433333Y-85797676D01*
X117433333Y-85797676D02*
X117528571Y-85702438D01*
X117528571Y-85702438D02*
X117671428Y-85654819D01*
X117671428Y-85654819D02*
X117766666Y-85654819D01*
X117766666Y-85654819D02*
X117909523Y-85702438D01*
X117909523Y-85702438D02*
X117957142Y-85750057D01*
X118290476Y-85654819D02*
X118909523Y-85654819D01*
X118909523Y-85654819D02*
X118576190Y-86035771D01*
X118576190Y-86035771D02*
X118719047Y-86035771D01*
X118719047Y-86035771D02*
X118814285Y-86083390D01*
X118814285Y-86083390D02*
X118861904Y-86131009D01*
X118861904Y-86131009D02*
X118909523Y-86226247D01*
X118909523Y-86226247D02*
X118909523Y-86464342D01*
X118909523Y-86464342D02*
X118861904Y-86559580D01*
X118861904Y-86559580D02*
X118814285Y-86607200D01*
X118814285Y-86607200D02*
X118719047Y-86654819D01*
X118719047Y-86654819D02*
X118433333Y-86654819D01*
X118433333Y-86654819D02*
X118338095Y-86607200D01*
X118338095Y-86607200D02*
X118290476Y-86559580D01*
X119766666Y-85988152D02*
X119766666Y-86654819D01*
X119528571Y-85607200D02*
X119290476Y-86321485D01*
X119290476Y-86321485D02*
X119909523Y-86321485D01*
X130757142Y-118759580D02*
X130709523Y-118807200D01*
X130709523Y-118807200D02*
X130566666Y-118854819D01*
X130566666Y-118854819D02*
X130471428Y-118854819D01*
X130471428Y-118854819D02*
X130328571Y-118807200D01*
X130328571Y-118807200D02*
X130233333Y-118711961D01*
X130233333Y-118711961D02*
X130185714Y-118616723D01*
X130185714Y-118616723D02*
X130138095Y-118426247D01*
X130138095Y-118426247D02*
X130138095Y-118283390D01*
X130138095Y-118283390D02*
X130185714Y-118092914D01*
X130185714Y-118092914D02*
X130233333Y-117997676D01*
X130233333Y-117997676D02*
X130328571Y-117902438D01*
X130328571Y-117902438D02*
X130471428Y-117854819D01*
X130471428Y-117854819D02*
X130566666Y-117854819D01*
X130566666Y-117854819D02*
X130709523Y-117902438D01*
X130709523Y-117902438D02*
X130757142Y-117950057D01*
X131090476Y-117854819D02*
X131709523Y-117854819D01*
X131709523Y-117854819D02*
X131376190Y-118235771D01*
X131376190Y-118235771D02*
X131519047Y-118235771D01*
X131519047Y-118235771D02*
X131614285Y-118283390D01*
X131614285Y-118283390D02*
X131661904Y-118331009D01*
X131661904Y-118331009D02*
X131709523Y-118426247D01*
X131709523Y-118426247D02*
X131709523Y-118664342D01*
X131709523Y-118664342D02*
X131661904Y-118759580D01*
X131661904Y-118759580D02*
X131614285Y-118807200D01*
X131614285Y-118807200D02*
X131519047Y-118854819D01*
X131519047Y-118854819D02*
X131233333Y-118854819D01*
X131233333Y-118854819D02*
X131138095Y-118807200D01*
X131138095Y-118807200D02*
X131090476Y-118759580D01*
X132280952Y-118283390D02*
X132185714Y-118235771D01*
X132185714Y-118235771D02*
X132138095Y-118188152D01*
X132138095Y-118188152D02*
X132090476Y-118092914D01*
X132090476Y-118092914D02*
X132090476Y-118045295D01*
X132090476Y-118045295D02*
X132138095Y-117950057D01*
X132138095Y-117950057D02*
X132185714Y-117902438D01*
X132185714Y-117902438D02*
X132280952Y-117854819D01*
X132280952Y-117854819D02*
X132471428Y-117854819D01*
X132471428Y-117854819D02*
X132566666Y-117902438D01*
X132566666Y-117902438D02*
X132614285Y-117950057D01*
X132614285Y-117950057D02*
X132661904Y-118045295D01*
X132661904Y-118045295D02*
X132661904Y-118092914D01*
X132661904Y-118092914D02*
X132614285Y-118188152D01*
X132614285Y-118188152D02*
X132566666Y-118235771D01*
X132566666Y-118235771D02*
X132471428Y-118283390D01*
X132471428Y-118283390D02*
X132280952Y-118283390D01*
X132280952Y-118283390D02*
X132185714Y-118331009D01*
X132185714Y-118331009D02*
X132138095Y-118378628D01*
X132138095Y-118378628D02*
X132090476Y-118473866D01*
X132090476Y-118473866D02*
X132090476Y-118664342D01*
X132090476Y-118664342D02*
X132138095Y-118759580D01*
X132138095Y-118759580D02*
X132185714Y-118807200D01*
X132185714Y-118807200D02*
X132280952Y-118854819D01*
X132280952Y-118854819D02*
X132471428Y-118854819D01*
X132471428Y-118854819D02*
X132566666Y-118807200D01*
X132566666Y-118807200D02*
X132614285Y-118759580D01*
X132614285Y-118759580D02*
X132661904Y-118664342D01*
X132661904Y-118664342D02*
X132661904Y-118473866D01*
X132661904Y-118473866D02*
X132614285Y-118378628D01*
X132614285Y-118378628D02*
X132566666Y-118331009D01*
X132566666Y-118331009D02*
X132471428Y-118283390D01*
X117157142Y-110809580D02*
X117109523Y-110857200D01*
X117109523Y-110857200D02*
X116966666Y-110904819D01*
X116966666Y-110904819D02*
X116871428Y-110904819D01*
X116871428Y-110904819D02*
X116728571Y-110857200D01*
X116728571Y-110857200D02*
X116633333Y-110761961D01*
X116633333Y-110761961D02*
X116585714Y-110666723D01*
X116585714Y-110666723D02*
X116538095Y-110476247D01*
X116538095Y-110476247D02*
X116538095Y-110333390D01*
X116538095Y-110333390D02*
X116585714Y-110142914D01*
X116585714Y-110142914D02*
X116633333Y-110047676D01*
X116633333Y-110047676D02*
X116728571Y-109952438D01*
X116728571Y-109952438D02*
X116871428Y-109904819D01*
X116871428Y-109904819D02*
X116966666Y-109904819D01*
X116966666Y-109904819D02*
X117109523Y-109952438D01*
X117109523Y-109952438D02*
X117157142Y-110000057D01*
X118109523Y-110904819D02*
X117538095Y-110904819D01*
X117823809Y-110904819D02*
X117823809Y-109904819D01*
X117823809Y-109904819D02*
X117728571Y-110047676D01*
X117728571Y-110047676D02*
X117633333Y-110142914D01*
X117633333Y-110142914D02*
X117538095Y-110190533D01*
X118680952Y-110333390D02*
X118585714Y-110285771D01*
X118585714Y-110285771D02*
X118538095Y-110238152D01*
X118538095Y-110238152D02*
X118490476Y-110142914D01*
X118490476Y-110142914D02*
X118490476Y-110095295D01*
X118490476Y-110095295D02*
X118538095Y-110000057D01*
X118538095Y-110000057D02*
X118585714Y-109952438D01*
X118585714Y-109952438D02*
X118680952Y-109904819D01*
X118680952Y-109904819D02*
X118871428Y-109904819D01*
X118871428Y-109904819D02*
X118966666Y-109952438D01*
X118966666Y-109952438D02*
X119014285Y-110000057D01*
X119014285Y-110000057D02*
X119061904Y-110095295D01*
X119061904Y-110095295D02*
X119061904Y-110142914D01*
X119061904Y-110142914D02*
X119014285Y-110238152D01*
X119014285Y-110238152D02*
X118966666Y-110285771D01*
X118966666Y-110285771D02*
X118871428Y-110333390D01*
X118871428Y-110333390D02*
X118680952Y-110333390D01*
X118680952Y-110333390D02*
X118585714Y-110381009D01*
X118585714Y-110381009D02*
X118538095Y-110428628D01*
X118538095Y-110428628D02*
X118490476Y-110523866D01*
X118490476Y-110523866D02*
X118490476Y-110714342D01*
X118490476Y-110714342D02*
X118538095Y-110809580D01*
X118538095Y-110809580D02*
X118585714Y-110857200D01*
X118585714Y-110857200D02*
X118680952Y-110904819D01*
X118680952Y-110904819D02*
X118871428Y-110904819D01*
X118871428Y-110904819D02*
X118966666Y-110857200D01*
X118966666Y-110857200D02*
X119014285Y-110809580D01*
X119014285Y-110809580D02*
X119061904Y-110714342D01*
X119061904Y-110714342D02*
X119061904Y-110523866D01*
X119061904Y-110523866D02*
X119014285Y-110428628D01*
X119014285Y-110428628D02*
X118966666Y-110381009D01*
X118966666Y-110381009D02*
X118871428Y-110333390D01*
X141166666Y-74377319D02*
X141166666Y-75091604D01*
X141166666Y-75091604D02*
X141119047Y-75234461D01*
X141119047Y-75234461D02*
X141023809Y-75329700D01*
X141023809Y-75329700D02*
X140880952Y-75377319D01*
X140880952Y-75377319D02*
X140785714Y-75377319D01*
X142119047Y-74377319D02*
X141642857Y-74377319D01*
X141642857Y-74377319D02*
X141595238Y-74853509D01*
X141595238Y-74853509D02*
X141642857Y-74805890D01*
X141642857Y-74805890D02*
X141738095Y-74758271D01*
X141738095Y-74758271D02*
X141976190Y-74758271D01*
X141976190Y-74758271D02*
X142071428Y-74805890D01*
X142071428Y-74805890D02*
X142119047Y-74853509D01*
X142119047Y-74853509D02*
X142166666Y-74948747D01*
X142166666Y-74948747D02*
X142166666Y-75186842D01*
X142166666Y-75186842D02*
X142119047Y-75282080D01*
X142119047Y-75282080D02*
X142071428Y-75329700D01*
X142071428Y-75329700D02*
X141976190Y-75377319D01*
X141976190Y-75377319D02*
X141738095Y-75377319D01*
X141738095Y-75377319D02*
X141642857Y-75329700D01*
X141642857Y-75329700D02*
X141595238Y-75282080D01*
X79666666Y-83554819D02*
X79666666Y-84269104D01*
X79666666Y-84269104D02*
X79619047Y-84411961D01*
X79619047Y-84411961D02*
X79523809Y-84507200D01*
X79523809Y-84507200D02*
X79380952Y-84554819D01*
X79380952Y-84554819D02*
X79285714Y-84554819D01*
X80047619Y-83554819D02*
X80666666Y-83554819D01*
X80666666Y-83554819D02*
X80333333Y-83935771D01*
X80333333Y-83935771D02*
X80476190Y-83935771D01*
X80476190Y-83935771D02*
X80571428Y-83983390D01*
X80571428Y-83983390D02*
X80619047Y-84031009D01*
X80619047Y-84031009D02*
X80666666Y-84126247D01*
X80666666Y-84126247D02*
X80666666Y-84364342D01*
X80666666Y-84364342D02*
X80619047Y-84459580D01*
X80619047Y-84459580D02*
X80571428Y-84507200D01*
X80571428Y-84507200D02*
X80476190Y-84554819D01*
X80476190Y-84554819D02*
X80190476Y-84554819D01*
X80190476Y-84554819D02*
X80095238Y-84507200D01*
X80095238Y-84507200D02*
X80047619Y-84459580D01*
X124433333Y-111954819D02*
X124100000Y-111478628D01*
X123861905Y-111954819D02*
X123861905Y-110954819D01*
X123861905Y-110954819D02*
X124242857Y-110954819D01*
X124242857Y-110954819D02*
X124338095Y-111002438D01*
X124338095Y-111002438D02*
X124385714Y-111050057D01*
X124385714Y-111050057D02*
X124433333Y-111145295D01*
X124433333Y-111145295D02*
X124433333Y-111288152D01*
X124433333Y-111288152D02*
X124385714Y-111383390D01*
X124385714Y-111383390D02*
X124338095Y-111431009D01*
X124338095Y-111431009D02*
X124242857Y-111478628D01*
X124242857Y-111478628D02*
X123861905Y-111478628D01*
X124766667Y-110954819D02*
X125433333Y-110954819D01*
X125433333Y-110954819D02*
X125004762Y-111954819D01*
X131366666Y-87454819D02*
X131366666Y-88169104D01*
X131366666Y-88169104D02*
X131319047Y-88311961D01*
X131319047Y-88311961D02*
X131223809Y-88407200D01*
X131223809Y-88407200D02*
X131080952Y-88454819D01*
X131080952Y-88454819D02*
X130985714Y-88454819D01*
X131890476Y-88454819D02*
X132080952Y-88454819D01*
X132080952Y-88454819D02*
X132176190Y-88407200D01*
X132176190Y-88407200D02*
X132223809Y-88359580D01*
X132223809Y-88359580D02*
X132319047Y-88216723D01*
X132319047Y-88216723D02*
X132366666Y-88026247D01*
X132366666Y-88026247D02*
X132366666Y-87645295D01*
X132366666Y-87645295D02*
X132319047Y-87550057D01*
X132319047Y-87550057D02*
X132271428Y-87502438D01*
X132271428Y-87502438D02*
X132176190Y-87454819D01*
X132176190Y-87454819D02*
X131985714Y-87454819D01*
X131985714Y-87454819D02*
X131890476Y-87502438D01*
X131890476Y-87502438D02*
X131842857Y-87550057D01*
X131842857Y-87550057D02*
X131795238Y-87645295D01*
X131795238Y-87645295D02*
X131795238Y-87883390D01*
X131795238Y-87883390D02*
X131842857Y-87978628D01*
X131842857Y-87978628D02*
X131890476Y-88026247D01*
X131890476Y-88026247D02*
X131985714Y-88073866D01*
X131985714Y-88073866D02*
X132176190Y-88073866D01*
X132176190Y-88073866D02*
X132271428Y-88026247D01*
X132271428Y-88026247D02*
X132319047Y-87978628D01*
X132319047Y-87978628D02*
X132366666Y-87883390D01*
X118157142Y-79959580D02*
X118109523Y-80007200D01*
X118109523Y-80007200D02*
X117966666Y-80054819D01*
X117966666Y-80054819D02*
X117871428Y-80054819D01*
X117871428Y-80054819D02*
X117728571Y-80007200D01*
X117728571Y-80007200D02*
X117633333Y-79911961D01*
X117633333Y-79911961D02*
X117585714Y-79816723D01*
X117585714Y-79816723D02*
X117538095Y-79626247D01*
X117538095Y-79626247D02*
X117538095Y-79483390D01*
X117538095Y-79483390D02*
X117585714Y-79292914D01*
X117585714Y-79292914D02*
X117633333Y-79197676D01*
X117633333Y-79197676D02*
X117728571Y-79102438D01*
X117728571Y-79102438D02*
X117871428Y-79054819D01*
X117871428Y-79054819D02*
X117966666Y-79054819D01*
X117966666Y-79054819D02*
X118109523Y-79102438D01*
X118109523Y-79102438D02*
X118157142Y-79150057D01*
X118490476Y-79054819D02*
X119109523Y-79054819D01*
X119109523Y-79054819D02*
X118776190Y-79435771D01*
X118776190Y-79435771D02*
X118919047Y-79435771D01*
X118919047Y-79435771D02*
X119014285Y-79483390D01*
X119014285Y-79483390D02*
X119061904Y-79531009D01*
X119061904Y-79531009D02*
X119109523Y-79626247D01*
X119109523Y-79626247D02*
X119109523Y-79864342D01*
X119109523Y-79864342D02*
X119061904Y-79959580D01*
X119061904Y-79959580D02*
X119014285Y-80007200D01*
X119014285Y-80007200D02*
X118919047Y-80054819D01*
X118919047Y-80054819D02*
X118633333Y-80054819D01*
X118633333Y-80054819D02*
X118538095Y-80007200D01*
X118538095Y-80007200D02*
X118490476Y-79959580D01*
X119728571Y-79054819D02*
X119823809Y-79054819D01*
X119823809Y-79054819D02*
X119919047Y-79102438D01*
X119919047Y-79102438D02*
X119966666Y-79150057D01*
X119966666Y-79150057D02*
X120014285Y-79245295D01*
X120014285Y-79245295D02*
X120061904Y-79435771D01*
X120061904Y-79435771D02*
X120061904Y-79673866D01*
X120061904Y-79673866D02*
X120014285Y-79864342D01*
X120014285Y-79864342D02*
X119966666Y-79959580D01*
X119966666Y-79959580D02*
X119919047Y-80007200D01*
X119919047Y-80007200D02*
X119823809Y-80054819D01*
X119823809Y-80054819D02*
X119728571Y-80054819D01*
X119728571Y-80054819D02*
X119633333Y-80007200D01*
X119633333Y-80007200D02*
X119585714Y-79959580D01*
X119585714Y-79959580D02*
X119538095Y-79864342D01*
X119538095Y-79864342D02*
X119490476Y-79673866D01*
X119490476Y-79673866D02*
X119490476Y-79435771D01*
X119490476Y-79435771D02*
X119538095Y-79245295D01*
X119538095Y-79245295D02*
X119585714Y-79150057D01*
X119585714Y-79150057D02*
X119633333Y-79102438D01*
X119633333Y-79102438D02*
X119728571Y-79054819D01*
X104607142Y-83922080D02*
X104559523Y-83969700D01*
X104559523Y-83969700D02*
X104416666Y-84017319D01*
X104416666Y-84017319D02*
X104321428Y-84017319D01*
X104321428Y-84017319D02*
X104178571Y-83969700D01*
X104178571Y-83969700D02*
X104083333Y-83874461D01*
X104083333Y-83874461D02*
X104035714Y-83779223D01*
X104035714Y-83779223D02*
X103988095Y-83588747D01*
X103988095Y-83588747D02*
X103988095Y-83445890D01*
X103988095Y-83445890D02*
X104035714Y-83255414D01*
X104035714Y-83255414D02*
X104083333Y-83160176D01*
X104083333Y-83160176D02*
X104178571Y-83064938D01*
X104178571Y-83064938D02*
X104321428Y-83017319D01*
X104321428Y-83017319D02*
X104416666Y-83017319D01*
X104416666Y-83017319D02*
X104559523Y-83064938D01*
X104559523Y-83064938D02*
X104607142Y-83112557D01*
X104940476Y-83017319D02*
X105559523Y-83017319D01*
X105559523Y-83017319D02*
X105226190Y-83398271D01*
X105226190Y-83398271D02*
X105369047Y-83398271D01*
X105369047Y-83398271D02*
X105464285Y-83445890D01*
X105464285Y-83445890D02*
X105511904Y-83493509D01*
X105511904Y-83493509D02*
X105559523Y-83588747D01*
X105559523Y-83588747D02*
X105559523Y-83826842D01*
X105559523Y-83826842D02*
X105511904Y-83922080D01*
X105511904Y-83922080D02*
X105464285Y-83969700D01*
X105464285Y-83969700D02*
X105369047Y-84017319D01*
X105369047Y-84017319D02*
X105083333Y-84017319D01*
X105083333Y-84017319D02*
X104988095Y-83969700D01*
X104988095Y-83969700D02*
X104940476Y-83922080D01*
X105940476Y-83112557D02*
X105988095Y-83064938D01*
X105988095Y-83064938D02*
X106083333Y-83017319D01*
X106083333Y-83017319D02*
X106321428Y-83017319D01*
X106321428Y-83017319D02*
X106416666Y-83064938D01*
X106416666Y-83064938D02*
X106464285Y-83112557D01*
X106464285Y-83112557D02*
X106511904Y-83207795D01*
X106511904Y-83207795D02*
X106511904Y-83303033D01*
X106511904Y-83303033D02*
X106464285Y-83445890D01*
X106464285Y-83445890D02*
X105892857Y-84017319D01*
X105892857Y-84017319D02*
X106511904Y-84017319D01*
X132557142Y-99459580D02*
X132509523Y-99507200D01*
X132509523Y-99507200D02*
X132366666Y-99554819D01*
X132366666Y-99554819D02*
X132271428Y-99554819D01*
X132271428Y-99554819D02*
X132128571Y-99507200D01*
X132128571Y-99507200D02*
X132033333Y-99411961D01*
X132033333Y-99411961D02*
X131985714Y-99316723D01*
X131985714Y-99316723D02*
X131938095Y-99126247D01*
X131938095Y-99126247D02*
X131938095Y-98983390D01*
X131938095Y-98983390D02*
X131985714Y-98792914D01*
X131985714Y-98792914D02*
X132033333Y-98697676D01*
X132033333Y-98697676D02*
X132128571Y-98602438D01*
X132128571Y-98602438D02*
X132271428Y-98554819D01*
X132271428Y-98554819D02*
X132366666Y-98554819D01*
X132366666Y-98554819D02*
X132509523Y-98602438D01*
X132509523Y-98602438D02*
X132557142Y-98650057D01*
X132938095Y-98650057D02*
X132985714Y-98602438D01*
X132985714Y-98602438D02*
X133080952Y-98554819D01*
X133080952Y-98554819D02*
X133319047Y-98554819D01*
X133319047Y-98554819D02*
X133414285Y-98602438D01*
X133414285Y-98602438D02*
X133461904Y-98650057D01*
X133461904Y-98650057D02*
X133509523Y-98745295D01*
X133509523Y-98745295D02*
X133509523Y-98840533D01*
X133509523Y-98840533D02*
X133461904Y-98983390D01*
X133461904Y-98983390D02*
X132890476Y-99554819D01*
X132890476Y-99554819D02*
X133509523Y-99554819D01*
X134128571Y-98554819D02*
X134223809Y-98554819D01*
X134223809Y-98554819D02*
X134319047Y-98602438D01*
X134319047Y-98602438D02*
X134366666Y-98650057D01*
X134366666Y-98650057D02*
X134414285Y-98745295D01*
X134414285Y-98745295D02*
X134461904Y-98935771D01*
X134461904Y-98935771D02*
X134461904Y-99173866D01*
X134461904Y-99173866D02*
X134414285Y-99364342D01*
X134414285Y-99364342D02*
X134366666Y-99459580D01*
X134366666Y-99459580D02*
X134319047Y-99507200D01*
X134319047Y-99507200D02*
X134223809Y-99554819D01*
X134223809Y-99554819D02*
X134128571Y-99554819D01*
X134128571Y-99554819D02*
X134033333Y-99507200D01*
X134033333Y-99507200D02*
X133985714Y-99459580D01*
X133985714Y-99459580D02*
X133938095Y-99364342D01*
X133938095Y-99364342D02*
X133890476Y-99173866D01*
X133890476Y-99173866D02*
X133890476Y-98935771D01*
X133890476Y-98935771D02*
X133938095Y-98745295D01*
X133938095Y-98745295D02*
X133985714Y-98650057D01*
X133985714Y-98650057D02*
X134033333Y-98602438D01*
X134033333Y-98602438D02*
X134128571Y-98554819D01*
X140357142Y-118754819D02*
X140023809Y-118278628D01*
X139785714Y-118754819D02*
X139785714Y-117754819D01*
X139785714Y-117754819D02*
X140166666Y-117754819D01*
X140166666Y-117754819D02*
X140261904Y-117802438D01*
X140261904Y-117802438D02*
X140309523Y-117850057D01*
X140309523Y-117850057D02*
X140357142Y-117945295D01*
X140357142Y-117945295D02*
X140357142Y-118088152D01*
X140357142Y-118088152D02*
X140309523Y-118183390D01*
X140309523Y-118183390D02*
X140261904Y-118231009D01*
X140261904Y-118231009D02*
X140166666Y-118278628D01*
X140166666Y-118278628D02*
X139785714Y-118278628D01*
X140738095Y-117850057D02*
X140785714Y-117802438D01*
X140785714Y-117802438D02*
X140880952Y-117754819D01*
X140880952Y-117754819D02*
X141119047Y-117754819D01*
X141119047Y-117754819D02*
X141214285Y-117802438D01*
X141214285Y-117802438D02*
X141261904Y-117850057D01*
X141261904Y-117850057D02*
X141309523Y-117945295D01*
X141309523Y-117945295D02*
X141309523Y-118040533D01*
X141309523Y-118040533D02*
X141261904Y-118183390D01*
X141261904Y-118183390D02*
X140690476Y-118754819D01*
X140690476Y-118754819D02*
X141309523Y-118754819D01*
X141880952Y-118183390D02*
X141785714Y-118135771D01*
X141785714Y-118135771D02*
X141738095Y-118088152D01*
X141738095Y-118088152D02*
X141690476Y-117992914D01*
X141690476Y-117992914D02*
X141690476Y-117945295D01*
X141690476Y-117945295D02*
X141738095Y-117850057D01*
X141738095Y-117850057D02*
X141785714Y-117802438D01*
X141785714Y-117802438D02*
X141880952Y-117754819D01*
X141880952Y-117754819D02*
X142071428Y-117754819D01*
X142071428Y-117754819D02*
X142166666Y-117802438D01*
X142166666Y-117802438D02*
X142214285Y-117850057D01*
X142214285Y-117850057D02*
X142261904Y-117945295D01*
X142261904Y-117945295D02*
X142261904Y-117992914D01*
X142261904Y-117992914D02*
X142214285Y-118088152D01*
X142214285Y-118088152D02*
X142166666Y-118135771D01*
X142166666Y-118135771D02*
X142071428Y-118183390D01*
X142071428Y-118183390D02*
X141880952Y-118183390D01*
X141880952Y-118183390D02*
X141785714Y-118231009D01*
X141785714Y-118231009D02*
X141738095Y-118278628D01*
X141738095Y-118278628D02*
X141690476Y-118373866D01*
X141690476Y-118373866D02*
X141690476Y-118564342D01*
X141690476Y-118564342D02*
X141738095Y-118659580D01*
X141738095Y-118659580D02*
X141785714Y-118707200D01*
X141785714Y-118707200D02*
X141880952Y-118754819D01*
X141880952Y-118754819D02*
X142071428Y-118754819D01*
X142071428Y-118754819D02*
X142166666Y-118707200D01*
X142166666Y-118707200D02*
X142214285Y-118659580D01*
X142214285Y-118659580D02*
X142261904Y-118564342D01*
X142261904Y-118564342D02*
X142261904Y-118373866D01*
X142261904Y-118373866D02*
X142214285Y-118278628D01*
X142214285Y-118278628D02*
X142166666Y-118231009D01*
X142166666Y-118231009D02*
X142071428Y-118183390D01*
D11*
X113338095Y-117457419D02*
X113338095Y-118266942D01*
X113338095Y-118266942D02*
X113385714Y-118362180D01*
X113385714Y-118362180D02*
X113433333Y-118409800D01*
X113433333Y-118409800D02*
X113528571Y-118457419D01*
X113528571Y-118457419D02*
X113719047Y-118457419D01*
X113719047Y-118457419D02*
X113814285Y-118409800D01*
X113814285Y-118409800D02*
X113861904Y-118362180D01*
X113861904Y-118362180D02*
X113909523Y-118266942D01*
X113909523Y-118266942D02*
X113909523Y-117457419D01*
X114814285Y-117790752D02*
X114814285Y-118457419D01*
X114576190Y-117409800D02*
X114338095Y-118124085D01*
X114338095Y-118124085D02*
X114957142Y-118124085D01*
D10*
X130757142Y-120259580D02*
X130709523Y-120307200D01*
X130709523Y-120307200D02*
X130566666Y-120354819D01*
X130566666Y-120354819D02*
X130471428Y-120354819D01*
X130471428Y-120354819D02*
X130328571Y-120307200D01*
X130328571Y-120307200D02*
X130233333Y-120211961D01*
X130233333Y-120211961D02*
X130185714Y-120116723D01*
X130185714Y-120116723D02*
X130138095Y-119926247D01*
X130138095Y-119926247D02*
X130138095Y-119783390D01*
X130138095Y-119783390D02*
X130185714Y-119592914D01*
X130185714Y-119592914D02*
X130233333Y-119497676D01*
X130233333Y-119497676D02*
X130328571Y-119402438D01*
X130328571Y-119402438D02*
X130471428Y-119354819D01*
X130471428Y-119354819D02*
X130566666Y-119354819D01*
X130566666Y-119354819D02*
X130709523Y-119402438D01*
X130709523Y-119402438D02*
X130757142Y-119450057D01*
X131090476Y-119354819D02*
X131709523Y-119354819D01*
X131709523Y-119354819D02*
X131376190Y-119735771D01*
X131376190Y-119735771D02*
X131519047Y-119735771D01*
X131519047Y-119735771D02*
X131614285Y-119783390D01*
X131614285Y-119783390D02*
X131661904Y-119831009D01*
X131661904Y-119831009D02*
X131709523Y-119926247D01*
X131709523Y-119926247D02*
X131709523Y-120164342D01*
X131709523Y-120164342D02*
X131661904Y-120259580D01*
X131661904Y-120259580D02*
X131614285Y-120307200D01*
X131614285Y-120307200D02*
X131519047Y-120354819D01*
X131519047Y-120354819D02*
X131233333Y-120354819D01*
X131233333Y-120354819D02*
X131138095Y-120307200D01*
X131138095Y-120307200D02*
X131090476Y-120259580D01*
X132042857Y-119354819D02*
X132709523Y-119354819D01*
X132709523Y-119354819D02*
X132280952Y-120354819D01*
X136044642Y-118754819D02*
X135711309Y-118278628D01*
X135473214Y-118754819D02*
X135473214Y-117754819D01*
X135473214Y-117754819D02*
X135854166Y-117754819D01*
X135854166Y-117754819D02*
X135949404Y-117802438D01*
X135949404Y-117802438D02*
X135997023Y-117850057D01*
X135997023Y-117850057D02*
X136044642Y-117945295D01*
X136044642Y-117945295D02*
X136044642Y-118088152D01*
X136044642Y-118088152D02*
X135997023Y-118183390D01*
X135997023Y-118183390D02*
X135949404Y-118231009D01*
X135949404Y-118231009D02*
X135854166Y-118278628D01*
X135854166Y-118278628D02*
X135473214Y-118278628D01*
X136425595Y-117850057D02*
X136473214Y-117802438D01*
X136473214Y-117802438D02*
X136568452Y-117754819D01*
X136568452Y-117754819D02*
X136806547Y-117754819D01*
X136806547Y-117754819D02*
X136901785Y-117802438D01*
X136901785Y-117802438D02*
X136949404Y-117850057D01*
X136949404Y-117850057D02*
X136997023Y-117945295D01*
X136997023Y-117945295D02*
X136997023Y-118040533D01*
X136997023Y-118040533D02*
X136949404Y-118183390D01*
X136949404Y-118183390D02*
X136377976Y-118754819D01*
X136377976Y-118754819D02*
X136997023Y-118754819D01*
X137330357Y-117754819D02*
X137997023Y-117754819D01*
X137997023Y-117754819D02*
X137568452Y-118754819D01*
X127733333Y-93254819D02*
X127400000Y-92778628D01*
X127161905Y-93254819D02*
X127161905Y-92254819D01*
X127161905Y-92254819D02*
X127542857Y-92254819D01*
X127542857Y-92254819D02*
X127638095Y-92302438D01*
X127638095Y-92302438D02*
X127685714Y-92350057D01*
X127685714Y-92350057D02*
X127733333Y-92445295D01*
X127733333Y-92445295D02*
X127733333Y-92588152D01*
X127733333Y-92588152D02*
X127685714Y-92683390D01*
X127685714Y-92683390D02*
X127638095Y-92731009D01*
X127638095Y-92731009D02*
X127542857Y-92778628D01*
X127542857Y-92778628D02*
X127161905Y-92778628D01*
X128114286Y-92350057D02*
X128161905Y-92302438D01*
X128161905Y-92302438D02*
X128257143Y-92254819D01*
X128257143Y-92254819D02*
X128495238Y-92254819D01*
X128495238Y-92254819D02*
X128590476Y-92302438D01*
X128590476Y-92302438D02*
X128638095Y-92350057D01*
X128638095Y-92350057D02*
X128685714Y-92445295D01*
X128685714Y-92445295D02*
X128685714Y-92540533D01*
X128685714Y-92540533D02*
X128638095Y-92683390D01*
X128638095Y-92683390D02*
X128066667Y-93254819D01*
X128066667Y-93254819D02*
X128685714Y-93254819D01*
X125307142Y-90959580D02*
X125259523Y-91007200D01*
X125259523Y-91007200D02*
X125116666Y-91054819D01*
X125116666Y-91054819D02*
X125021428Y-91054819D01*
X125021428Y-91054819D02*
X124878571Y-91007200D01*
X124878571Y-91007200D02*
X124783333Y-90911961D01*
X124783333Y-90911961D02*
X124735714Y-90816723D01*
X124735714Y-90816723D02*
X124688095Y-90626247D01*
X124688095Y-90626247D02*
X124688095Y-90483390D01*
X124688095Y-90483390D02*
X124735714Y-90292914D01*
X124735714Y-90292914D02*
X124783333Y-90197676D01*
X124783333Y-90197676D02*
X124878571Y-90102438D01*
X124878571Y-90102438D02*
X125021428Y-90054819D01*
X125021428Y-90054819D02*
X125116666Y-90054819D01*
X125116666Y-90054819D02*
X125259523Y-90102438D01*
X125259523Y-90102438D02*
X125307142Y-90150057D01*
X126164285Y-90388152D02*
X126164285Y-91054819D01*
X125926190Y-90007200D02*
X125688095Y-90721485D01*
X125688095Y-90721485D02*
X126307142Y-90721485D01*
X127116666Y-90054819D02*
X126926190Y-90054819D01*
X126926190Y-90054819D02*
X126830952Y-90102438D01*
X126830952Y-90102438D02*
X126783333Y-90150057D01*
X126783333Y-90150057D02*
X126688095Y-90292914D01*
X126688095Y-90292914D02*
X126640476Y-90483390D01*
X126640476Y-90483390D02*
X126640476Y-90864342D01*
X126640476Y-90864342D02*
X126688095Y-90959580D01*
X126688095Y-90959580D02*
X126735714Y-91007200D01*
X126735714Y-91007200D02*
X126830952Y-91054819D01*
X126830952Y-91054819D02*
X127021428Y-91054819D01*
X127021428Y-91054819D02*
X127116666Y-91007200D01*
X127116666Y-91007200D02*
X127164285Y-90959580D01*
X127164285Y-90959580D02*
X127211904Y-90864342D01*
X127211904Y-90864342D02*
X127211904Y-90626247D01*
X127211904Y-90626247D02*
X127164285Y-90531009D01*
X127164285Y-90531009D02*
X127116666Y-90483390D01*
X127116666Y-90483390D02*
X127021428Y-90435771D01*
X127021428Y-90435771D02*
X126830952Y-90435771D01*
X126830952Y-90435771D02*
X126735714Y-90483390D01*
X126735714Y-90483390D02*
X126688095Y-90531009D01*
X126688095Y-90531009D02*
X126640476Y-90626247D01*
X111738095Y-75454819D02*
X111738095Y-76264342D01*
X111738095Y-76264342D02*
X111785714Y-76359580D01*
X111785714Y-76359580D02*
X111833333Y-76407200D01*
X111833333Y-76407200D02*
X111928571Y-76454819D01*
X111928571Y-76454819D02*
X112119047Y-76454819D01*
X112119047Y-76454819D02*
X112214285Y-76407200D01*
X112214285Y-76407200D02*
X112261904Y-76359580D01*
X112261904Y-76359580D02*
X112309523Y-76264342D01*
X112309523Y-76264342D02*
X112309523Y-75454819D01*
X112833333Y-76454819D02*
X113023809Y-76454819D01*
X113023809Y-76454819D02*
X113119047Y-76407200D01*
X113119047Y-76407200D02*
X113166666Y-76359580D01*
X113166666Y-76359580D02*
X113261904Y-76216723D01*
X113261904Y-76216723D02*
X113309523Y-76026247D01*
X113309523Y-76026247D02*
X113309523Y-75645295D01*
X113309523Y-75645295D02*
X113261904Y-75550057D01*
X113261904Y-75550057D02*
X113214285Y-75502438D01*
X113214285Y-75502438D02*
X113119047Y-75454819D01*
X113119047Y-75454819D02*
X112928571Y-75454819D01*
X112928571Y-75454819D02*
X112833333Y-75502438D01*
X112833333Y-75502438D02*
X112785714Y-75550057D01*
X112785714Y-75550057D02*
X112738095Y-75645295D01*
X112738095Y-75645295D02*
X112738095Y-75883390D01*
X112738095Y-75883390D02*
X112785714Y-75978628D01*
X112785714Y-75978628D02*
X112833333Y-76026247D01*
X112833333Y-76026247D02*
X112928571Y-76073866D01*
X112928571Y-76073866D02*
X113119047Y-76073866D01*
X113119047Y-76073866D02*
X113214285Y-76026247D01*
X113214285Y-76026247D02*
X113261904Y-75978628D01*
X113261904Y-75978628D02*
X113309523Y-75883390D01*
X117482142Y-93859580D02*
X117434523Y-93907200D01*
X117434523Y-93907200D02*
X117291666Y-93954819D01*
X117291666Y-93954819D02*
X117196428Y-93954819D01*
X117196428Y-93954819D02*
X117053571Y-93907200D01*
X117053571Y-93907200D02*
X116958333Y-93811961D01*
X116958333Y-93811961D02*
X116910714Y-93716723D01*
X116910714Y-93716723D02*
X116863095Y-93526247D01*
X116863095Y-93526247D02*
X116863095Y-93383390D01*
X116863095Y-93383390D02*
X116910714Y-93192914D01*
X116910714Y-93192914D02*
X116958333Y-93097676D01*
X116958333Y-93097676D02*
X117053571Y-93002438D01*
X117053571Y-93002438D02*
X117196428Y-92954819D01*
X117196428Y-92954819D02*
X117291666Y-92954819D01*
X117291666Y-92954819D02*
X117434523Y-93002438D01*
X117434523Y-93002438D02*
X117482142Y-93050057D01*
X117863095Y-93050057D02*
X117910714Y-93002438D01*
X117910714Y-93002438D02*
X118005952Y-92954819D01*
X118005952Y-92954819D02*
X118244047Y-92954819D01*
X118244047Y-92954819D02*
X118339285Y-93002438D01*
X118339285Y-93002438D02*
X118386904Y-93050057D01*
X118386904Y-93050057D02*
X118434523Y-93145295D01*
X118434523Y-93145295D02*
X118434523Y-93240533D01*
X118434523Y-93240533D02*
X118386904Y-93383390D01*
X118386904Y-93383390D02*
X117815476Y-93954819D01*
X117815476Y-93954819D02*
X118434523Y-93954819D01*
X118815476Y-93050057D02*
X118863095Y-93002438D01*
X118863095Y-93002438D02*
X118958333Y-92954819D01*
X118958333Y-92954819D02*
X119196428Y-92954819D01*
X119196428Y-92954819D02*
X119291666Y-93002438D01*
X119291666Y-93002438D02*
X119339285Y-93050057D01*
X119339285Y-93050057D02*
X119386904Y-93145295D01*
X119386904Y-93145295D02*
X119386904Y-93240533D01*
X119386904Y-93240533D02*
X119339285Y-93383390D01*
X119339285Y-93383390D02*
X118767857Y-93954819D01*
X118767857Y-93954819D02*
X119386904Y-93954819D01*
X123457142Y-117559580D02*
X123409523Y-117607200D01*
X123409523Y-117607200D02*
X123266666Y-117654819D01*
X123266666Y-117654819D02*
X123171428Y-117654819D01*
X123171428Y-117654819D02*
X123028571Y-117607200D01*
X123028571Y-117607200D02*
X122933333Y-117511961D01*
X122933333Y-117511961D02*
X122885714Y-117416723D01*
X122885714Y-117416723D02*
X122838095Y-117226247D01*
X122838095Y-117226247D02*
X122838095Y-117083390D01*
X122838095Y-117083390D02*
X122885714Y-116892914D01*
X122885714Y-116892914D02*
X122933333Y-116797676D01*
X122933333Y-116797676D02*
X123028571Y-116702438D01*
X123028571Y-116702438D02*
X123171428Y-116654819D01*
X123171428Y-116654819D02*
X123266666Y-116654819D01*
X123266666Y-116654819D02*
X123409523Y-116702438D01*
X123409523Y-116702438D02*
X123457142Y-116750057D01*
X124314285Y-116988152D02*
X124314285Y-117654819D01*
X124076190Y-116607200D02*
X123838095Y-117321485D01*
X123838095Y-117321485D02*
X124457142Y-117321485D01*
X125028571Y-116654819D02*
X125123809Y-116654819D01*
X125123809Y-116654819D02*
X125219047Y-116702438D01*
X125219047Y-116702438D02*
X125266666Y-116750057D01*
X125266666Y-116750057D02*
X125314285Y-116845295D01*
X125314285Y-116845295D02*
X125361904Y-117035771D01*
X125361904Y-117035771D02*
X125361904Y-117273866D01*
X125361904Y-117273866D02*
X125314285Y-117464342D01*
X125314285Y-117464342D02*
X125266666Y-117559580D01*
X125266666Y-117559580D02*
X125219047Y-117607200D01*
X125219047Y-117607200D02*
X125123809Y-117654819D01*
X125123809Y-117654819D02*
X125028571Y-117654819D01*
X125028571Y-117654819D02*
X124933333Y-117607200D01*
X124933333Y-117607200D02*
X124885714Y-117559580D01*
X124885714Y-117559580D02*
X124838095Y-117464342D01*
X124838095Y-117464342D02*
X124790476Y-117273866D01*
X124790476Y-117273866D02*
X124790476Y-117035771D01*
X124790476Y-117035771D02*
X124838095Y-116845295D01*
X124838095Y-116845295D02*
X124885714Y-116750057D01*
X124885714Y-116750057D02*
X124933333Y-116702438D01*
X124933333Y-116702438D02*
X125028571Y-116654819D01*
X137833333Y-106959580D02*
X137785714Y-107007200D01*
X137785714Y-107007200D02*
X137642857Y-107054819D01*
X137642857Y-107054819D02*
X137547619Y-107054819D01*
X137547619Y-107054819D02*
X137404762Y-107007200D01*
X137404762Y-107007200D02*
X137309524Y-106911961D01*
X137309524Y-106911961D02*
X137261905Y-106816723D01*
X137261905Y-106816723D02*
X137214286Y-106626247D01*
X137214286Y-106626247D02*
X137214286Y-106483390D01*
X137214286Y-106483390D02*
X137261905Y-106292914D01*
X137261905Y-106292914D02*
X137309524Y-106197676D01*
X137309524Y-106197676D02*
X137404762Y-106102438D01*
X137404762Y-106102438D02*
X137547619Y-106054819D01*
X137547619Y-106054819D02*
X137642857Y-106054819D01*
X137642857Y-106054819D02*
X137785714Y-106102438D01*
X137785714Y-106102438D02*
X137833333Y-106150057D01*
X138166667Y-106054819D02*
X138785714Y-106054819D01*
X138785714Y-106054819D02*
X138452381Y-106435771D01*
X138452381Y-106435771D02*
X138595238Y-106435771D01*
X138595238Y-106435771D02*
X138690476Y-106483390D01*
X138690476Y-106483390D02*
X138738095Y-106531009D01*
X138738095Y-106531009D02*
X138785714Y-106626247D01*
X138785714Y-106626247D02*
X138785714Y-106864342D01*
X138785714Y-106864342D02*
X138738095Y-106959580D01*
X138738095Y-106959580D02*
X138690476Y-107007200D01*
X138690476Y-107007200D02*
X138595238Y-107054819D01*
X138595238Y-107054819D02*
X138309524Y-107054819D01*
X138309524Y-107054819D02*
X138214286Y-107007200D01*
X138214286Y-107007200D02*
X138166667Y-106959580D01*
X129907142Y-105854819D02*
X129573809Y-105378628D01*
X129335714Y-105854819D02*
X129335714Y-104854819D01*
X129335714Y-104854819D02*
X129716666Y-104854819D01*
X129716666Y-104854819D02*
X129811904Y-104902438D01*
X129811904Y-104902438D02*
X129859523Y-104950057D01*
X129859523Y-104950057D02*
X129907142Y-105045295D01*
X129907142Y-105045295D02*
X129907142Y-105188152D01*
X129907142Y-105188152D02*
X129859523Y-105283390D01*
X129859523Y-105283390D02*
X129811904Y-105331009D01*
X129811904Y-105331009D02*
X129716666Y-105378628D01*
X129716666Y-105378628D02*
X129335714Y-105378628D01*
X130859523Y-105854819D02*
X130288095Y-105854819D01*
X130573809Y-105854819D02*
X130573809Y-104854819D01*
X130573809Y-104854819D02*
X130478571Y-104997676D01*
X130478571Y-104997676D02*
X130383333Y-105092914D01*
X130383333Y-105092914D02*
X130288095Y-105140533D01*
X131192857Y-104854819D02*
X131811904Y-104854819D01*
X131811904Y-104854819D02*
X131478571Y-105235771D01*
X131478571Y-105235771D02*
X131621428Y-105235771D01*
X131621428Y-105235771D02*
X131716666Y-105283390D01*
X131716666Y-105283390D02*
X131764285Y-105331009D01*
X131764285Y-105331009D02*
X131811904Y-105426247D01*
X131811904Y-105426247D02*
X131811904Y-105664342D01*
X131811904Y-105664342D02*
X131764285Y-105759580D01*
X131764285Y-105759580D02*
X131716666Y-105807200D01*
X131716666Y-105807200D02*
X131621428Y-105854819D01*
X131621428Y-105854819D02*
X131335714Y-105854819D01*
X131335714Y-105854819D02*
X131240476Y-105807200D01*
X131240476Y-105807200D02*
X131192857Y-105759580D01*
X92938095Y-90154819D02*
X92938095Y-90964342D01*
X92938095Y-90964342D02*
X92985714Y-91059580D01*
X92985714Y-91059580D02*
X93033333Y-91107200D01*
X93033333Y-91107200D02*
X93128571Y-91154819D01*
X93128571Y-91154819D02*
X93319047Y-91154819D01*
X93319047Y-91154819D02*
X93414285Y-91107200D01*
X93414285Y-91107200D02*
X93461904Y-91059580D01*
X93461904Y-91059580D02*
X93509523Y-90964342D01*
X93509523Y-90964342D02*
X93509523Y-90154819D01*
X93938095Y-90250057D02*
X93985714Y-90202438D01*
X93985714Y-90202438D02*
X94080952Y-90154819D01*
X94080952Y-90154819D02*
X94319047Y-90154819D01*
X94319047Y-90154819D02*
X94414285Y-90202438D01*
X94414285Y-90202438D02*
X94461904Y-90250057D01*
X94461904Y-90250057D02*
X94509523Y-90345295D01*
X94509523Y-90345295D02*
X94509523Y-90440533D01*
X94509523Y-90440533D02*
X94461904Y-90583390D01*
X94461904Y-90583390D02*
X93890476Y-91154819D01*
X93890476Y-91154819D02*
X94509523Y-91154819D01*
X94644642Y-99429580D02*
X94597023Y-99477200D01*
X94597023Y-99477200D02*
X94454166Y-99524819D01*
X94454166Y-99524819D02*
X94358928Y-99524819D01*
X94358928Y-99524819D02*
X94216071Y-99477200D01*
X94216071Y-99477200D02*
X94120833Y-99381961D01*
X94120833Y-99381961D02*
X94073214Y-99286723D01*
X94073214Y-99286723D02*
X94025595Y-99096247D01*
X94025595Y-99096247D02*
X94025595Y-98953390D01*
X94025595Y-98953390D02*
X94073214Y-98762914D01*
X94073214Y-98762914D02*
X94120833Y-98667676D01*
X94120833Y-98667676D02*
X94216071Y-98572438D01*
X94216071Y-98572438D02*
X94358928Y-98524819D01*
X94358928Y-98524819D02*
X94454166Y-98524819D01*
X94454166Y-98524819D02*
X94597023Y-98572438D01*
X94597023Y-98572438D02*
X94644642Y-98620057D01*
X95501785Y-98858152D02*
X95501785Y-99524819D01*
X95263690Y-98477200D02*
X95025595Y-99191485D01*
X95025595Y-99191485D02*
X95644642Y-99191485D01*
X95930357Y-98524819D02*
X96549404Y-98524819D01*
X96549404Y-98524819D02*
X96216071Y-98905771D01*
X96216071Y-98905771D02*
X96358928Y-98905771D01*
X96358928Y-98905771D02*
X96454166Y-98953390D01*
X96454166Y-98953390D02*
X96501785Y-99001009D01*
X96501785Y-99001009D02*
X96549404Y-99096247D01*
X96549404Y-99096247D02*
X96549404Y-99334342D01*
X96549404Y-99334342D02*
X96501785Y-99429580D01*
X96501785Y-99429580D02*
X96454166Y-99477200D01*
X96454166Y-99477200D02*
X96358928Y-99524819D01*
X96358928Y-99524819D02*
X96073214Y-99524819D01*
X96073214Y-99524819D02*
X95977976Y-99477200D01*
X95977976Y-99477200D02*
X95930357Y-99429580D01*
X89319642Y-84154819D02*
X88986309Y-83678628D01*
X88748214Y-84154819D02*
X88748214Y-83154819D01*
X88748214Y-83154819D02*
X89129166Y-83154819D01*
X89129166Y-83154819D02*
X89224404Y-83202438D01*
X89224404Y-83202438D02*
X89272023Y-83250057D01*
X89272023Y-83250057D02*
X89319642Y-83345295D01*
X89319642Y-83345295D02*
X89319642Y-83488152D01*
X89319642Y-83488152D02*
X89272023Y-83583390D01*
X89272023Y-83583390D02*
X89224404Y-83631009D01*
X89224404Y-83631009D02*
X89129166Y-83678628D01*
X89129166Y-83678628D02*
X88748214Y-83678628D01*
X90272023Y-84154819D02*
X89700595Y-84154819D01*
X89986309Y-84154819D02*
X89986309Y-83154819D01*
X89986309Y-83154819D02*
X89891071Y-83297676D01*
X89891071Y-83297676D02*
X89795833Y-83392914D01*
X89795833Y-83392914D02*
X89700595Y-83440533D01*
X91129166Y-83154819D02*
X90938690Y-83154819D01*
X90938690Y-83154819D02*
X90843452Y-83202438D01*
X90843452Y-83202438D02*
X90795833Y-83250057D01*
X90795833Y-83250057D02*
X90700595Y-83392914D01*
X90700595Y-83392914D02*
X90652976Y-83583390D01*
X90652976Y-83583390D02*
X90652976Y-83964342D01*
X90652976Y-83964342D02*
X90700595Y-84059580D01*
X90700595Y-84059580D02*
X90748214Y-84107200D01*
X90748214Y-84107200D02*
X90843452Y-84154819D01*
X90843452Y-84154819D02*
X91033928Y-84154819D01*
X91033928Y-84154819D02*
X91129166Y-84107200D01*
X91129166Y-84107200D02*
X91176785Y-84059580D01*
X91176785Y-84059580D02*
X91224404Y-83964342D01*
X91224404Y-83964342D02*
X91224404Y-83726247D01*
X91224404Y-83726247D02*
X91176785Y-83631009D01*
X91176785Y-83631009D02*
X91129166Y-83583390D01*
X91129166Y-83583390D02*
X91033928Y-83535771D01*
X91033928Y-83535771D02*
X90843452Y-83535771D01*
X90843452Y-83535771D02*
X90748214Y-83583390D01*
X90748214Y-83583390D02*
X90700595Y-83631009D01*
X90700595Y-83631009D02*
X90652976Y-83726247D01*
X88233333Y-85554819D02*
X87900000Y-85078628D01*
X87661905Y-85554819D02*
X87661905Y-84554819D01*
X87661905Y-84554819D02*
X88042857Y-84554819D01*
X88042857Y-84554819D02*
X88138095Y-84602438D01*
X88138095Y-84602438D02*
X88185714Y-84650057D01*
X88185714Y-84650057D02*
X88233333Y-84745295D01*
X88233333Y-84745295D02*
X88233333Y-84888152D01*
X88233333Y-84888152D02*
X88185714Y-84983390D01*
X88185714Y-84983390D02*
X88138095Y-85031009D01*
X88138095Y-85031009D02*
X88042857Y-85078628D01*
X88042857Y-85078628D02*
X87661905Y-85078628D01*
X88709524Y-85554819D02*
X88900000Y-85554819D01*
X88900000Y-85554819D02*
X88995238Y-85507200D01*
X88995238Y-85507200D02*
X89042857Y-85459580D01*
X89042857Y-85459580D02*
X89138095Y-85316723D01*
X89138095Y-85316723D02*
X89185714Y-85126247D01*
X89185714Y-85126247D02*
X89185714Y-84745295D01*
X89185714Y-84745295D02*
X89138095Y-84650057D01*
X89138095Y-84650057D02*
X89090476Y-84602438D01*
X89090476Y-84602438D02*
X88995238Y-84554819D01*
X88995238Y-84554819D02*
X88804762Y-84554819D01*
X88804762Y-84554819D02*
X88709524Y-84602438D01*
X88709524Y-84602438D02*
X88661905Y-84650057D01*
X88661905Y-84650057D02*
X88614286Y-84745295D01*
X88614286Y-84745295D02*
X88614286Y-84983390D01*
X88614286Y-84983390D02*
X88661905Y-85078628D01*
X88661905Y-85078628D02*
X88709524Y-85126247D01*
X88709524Y-85126247D02*
X88804762Y-85173866D01*
X88804762Y-85173866D02*
X88995238Y-85173866D01*
X88995238Y-85173866D02*
X89090476Y-85126247D01*
X89090476Y-85126247D02*
X89138095Y-85078628D01*
X89138095Y-85078628D02*
X89185714Y-84983390D01*
X133357142Y-80959580D02*
X133309523Y-81007200D01*
X133309523Y-81007200D02*
X133166666Y-81054819D01*
X133166666Y-81054819D02*
X133071428Y-81054819D01*
X133071428Y-81054819D02*
X132928571Y-81007200D01*
X132928571Y-81007200D02*
X132833333Y-80911961D01*
X132833333Y-80911961D02*
X132785714Y-80816723D01*
X132785714Y-80816723D02*
X132738095Y-80626247D01*
X132738095Y-80626247D02*
X132738095Y-80483390D01*
X132738095Y-80483390D02*
X132785714Y-80292914D01*
X132785714Y-80292914D02*
X132833333Y-80197676D01*
X132833333Y-80197676D02*
X132928571Y-80102438D01*
X132928571Y-80102438D02*
X133071428Y-80054819D01*
X133071428Y-80054819D02*
X133166666Y-80054819D01*
X133166666Y-80054819D02*
X133309523Y-80102438D01*
X133309523Y-80102438D02*
X133357142Y-80150057D01*
X133738095Y-80150057D02*
X133785714Y-80102438D01*
X133785714Y-80102438D02*
X133880952Y-80054819D01*
X133880952Y-80054819D02*
X134119047Y-80054819D01*
X134119047Y-80054819D02*
X134214285Y-80102438D01*
X134214285Y-80102438D02*
X134261904Y-80150057D01*
X134261904Y-80150057D02*
X134309523Y-80245295D01*
X134309523Y-80245295D02*
X134309523Y-80340533D01*
X134309523Y-80340533D02*
X134261904Y-80483390D01*
X134261904Y-80483390D02*
X133690476Y-81054819D01*
X133690476Y-81054819D02*
X134309523Y-81054819D01*
X134785714Y-81054819D02*
X134976190Y-81054819D01*
X134976190Y-81054819D02*
X135071428Y-81007200D01*
X135071428Y-81007200D02*
X135119047Y-80959580D01*
X135119047Y-80959580D02*
X135214285Y-80816723D01*
X135214285Y-80816723D02*
X135261904Y-80626247D01*
X135261904Y-80626247D02*
X135261904Y-80245295D01*
X135261904Y-80245295D02*
X135214285Y-80150057D01*
X135214285Y-80150057D02*
X135166666Y-80102438D01*
X135166666Y-80102438D02*
X135071428Y-80054819D01*
X135071428Y-80054819D02*
X134880952Y-80054819D01*
X134880952Y-80054819D02*
X134785714Y-80102438D01*
X134785714Y-80102438D02*
X134738095Y-80150057D01*
X134738095Y-80150057D02*
X134690476Y-80245295D01*
X134690476Y-80245295D02*
X134690476Y-80483390D01*
X134690476Y-80483390D02*
X134738095Y-80578628D01*
X134738095Y-80578628D02*
X134785714Y-80626247D01*
X134785714Y-80626247D02*
X134880952Y-80673866D01*
X134880952Y-80673866D02*
X135071428Y-80673866D01*
X135071428Y-80673866D02*
X135166666Y-80626247D01*
X135166666Y-80626247D02*
X135214285Y-80578628D01*
X135214285Y-80578628D02*
X135261904Y-80483390D01*
X140479580Y-100029166D02*
X140527200Y-100076785D01*
X140527200Y-100076785D02*
X140574819Y-100219642D01*
X140574819Y-100219642D02*
X140574819Y-100314880D01*
X140574819Y-100314880D02*
X140527200Y-100457737D01*
X140527200Y-100457737D02*
X140431961Y-100552975D01*
X140431961Y-100552975D02*
X140336723Y-100600594D01*
X140336723Y-100600594D02*
X140146247Y-100648213D01*
X140146247Y-100648213D02*
X140003390Y-100648213D01*
X140003390Y-100648213D02*
X139812914Y-100600594D01*
X139812914Y-100600594D02*
X139717676Y-100552975D01*
X139717676Y-100552975D02*
X139622438Y-100457737D01*
X139622438Y-100457737D02*
X139574819Y-100314880D01*
X139574819Y-100314880D02*
X139574819Y-100219642D01*
X139574819Y-100219642D02*
X139622438Y-100076785D01*
X139622438Y-100076785D02*
X139670057Y-100029166D01*
X140574819Y-99076785D02*
X140574819Y-99648213D01*
X140574819Y-99362499D02*
X139574819Y-99362499D01*
X139574819Y-99362499D02*
X139717676Y-99457737D01*
X139717676Y-99457737D02*
X139812914Y-99552975D01*
X139812914Y-99552975D02*
X139860533Y-99648213D01*
X92875595Y-83104819D02*
X92875595Y-83914342D01*
X92875595Y-83914342D02*
X92923214Y-84009580D01*
X92923214Y-84009580D02*
X92970833Y-84057200D01*
X92970833Y-84057200D02*
X93066071Y-84104819D01*
X93066071Y-84104819D02*
X93256547Y-84104819D01*
X93256547Y-84104819D02*
X93351785Y-84057200D01*
X93351785Y-84057200D02*
X93399404Y-84009580D01*
X93399404Y-84009580D02*
X93447023Y-83914342D01*
X93447023Y-83914342D02*
X93447023Y-83104819D01*
X93827976Y-83104819D02*
X94494642Y-83104819D01*
X94494642Y-83104819D02*
X94066071Y-84104819D01*
X114557142Y-86559580D02*
X114509523Y-86607200D01*
X114509523Y-86607200D02*
X114366666Y-86654819D01*
X114366666Y-86654819D02*
X114271428Y-86654819D01*
X114271428Y-86654819D02*
X114128571Y-86607200D01*
X114128571Y-86607200D02*
X114033333Y-86511961D01*
X114033333Y-86511961D02*
X113985714Y-86416723D01*
X113985714Y-86416723D02*
X113938095Y-86226247D01*
X113938095Y-86226247D02*
X113938095Y-86083390D01*
X113938095Y-86083390D02*
X113985714Y-85892914D01*
X113985714Y-85892914D02*
X114033333Y-85797676D01*
X114033333Y-85797676D02*
X114128571Y-85702438D01*
X114128571Y-85702438D02*
X114271428Y-85654819D01*
X114271428Y-85654819D02*
X114366666Y-85654819D01*
X114366666Y-85654819D02*
X114509523Y-85702438D01*
X114509523Y-85702438D02*
X114557142Y-85750057D01*
X114890476Y-85654819D02*
X115509523Y-85654819D01*
X115509523Y-85654819D02*
X115176190Y-86035771D01*
X115176190Y-86035771D02*
X115319047Y-86035771D01*
X115319047Y-86035771D02*
X115414285Y-86083390D01*
X115414285Y-86083390D02*
X115461904Y-86131009D01*
X115461904Y-86131009D02*
X115509523Y-86226247D01*
X115509523Y-86226247D02*
X115509523Y-86464342D01*
X115509523Y-86464342D02*
X115461904Y-86559580D01*
X115461904Y-86559580D02*
X115414285Y-86607200D01*
X115414285Y-86607200D02*
X115319047Y-86654819D01*
X115319047Y-86654819D02*
X115033333Y-86654819D01*
X115033333Y-86654819D02*
X114938095Y-86607200D01*
X114938095Y-86607200D02*
X114890476Y-86559580D01*
X115842857Y-85654819D02*
X116461904Y-85654819D01*
X116461904Y-85654819D02*
X116128571Y-86035771D01*
X116128571Y-86035771D02*
X116271428Y-86035771D01*
X116271428Y-86035771D02*
X116366666Y-86083390D01*
X116366666Y-86083390D02*
X116414285Y-86131009D01*
X116414285Y-86131009D02*
X116461904Y-86226247D01*
X116461904Y-86226247D02*
X116461904Y-86464342D01*
X116461904Y-86464342D02*
X116414285Y-86559580D01*
X116414285Y-86559580D02*
X116366666Y-86607200D01*
X116366666Y-86607200D02*
X116271428Y-86654819D01*
X116271428Y-86654819D02*
X115985714Y-86654819D01*
X115985714Y-86654819D02*
X115890476Y-86607200D01*
X115890476Y-86607200D02*
X115842857Y-86559580D01*
X85357142Y-89854819D02*
X85023809Y-89378628D01*
X84785714Y-89854819D02*
X84785714Y-88854819D01*
X84785714Y-88854819D02*
X85166666Y-88854819D01*
X85166666Y-88854819D02*
X85261904Y-88902438D01*
X85261904Y-88902438D02*
X85309523Y-88950057D01*
X85309523Y-88950057D02*
X85357142Y-89045295D01*
X85357142Y-89045295D02*
X85357142Y-89188152D01*
X85357142Y-89188152D02*
X85309523Y-89283390D01*
X85309523Y-89283390D02*
X85261904Y-89331009D01*
X85261904Y-89331009D02*
X85166666Y-89378628D01*
X85166666Y-89378628D02*
X84785714Y-89378628D01*
X86309523Y-89854819D02*
X85738095Y-89854819D01*
X86023809Y-89854819D02*
X86023809Y-88854819D01*
X86023809Y-88854819D02*
X85928571Y-88997676D01*
X85928571Y-88997676D02*
X85833333Y-89092914D01*
X85833333Y-89092914D02*
X85738095Y-89140533D01*
X86928571Y-88854819D02*
X87023809Y-88854819D01*
X87023809Y-88854819D02*
X87119047Y-88902438D01*
X87119047Y-88902438D02*
X87166666Y-88950057D01*
X87166666Y-88950057D02*
X87214285Y-89045295D01*
X87214285Y-89045295D02*
X87261904Y-89235771D01*
X87261904Y-89235771D02*
X87261904Y-89473866D01*
X87261904Y-89473866D02*
X87214285Y-89664342D01*
X87214285Y-89664342D02*
X87166666Y-89759580D01*
X87166666Y-89759580D02*
X87119047Y-89807200D01*
X87119047Y-89807200D02*
X87023809Y-89854819D01*
X87023809Y-89854819D02*
X86928571Y-89854819D01*
X86928571Y-89854819D02*
X86833333Y-89807200D01*
X86833333Y-89807200D02*
X86785714Y-89759580D01*
X86785714Y-89759580D02*
X86738095Y-89664342D01*
X86738095Y-89664342D02*
X86690476Y-89473866D01*
X86690476Y-89473866D02*
X86690476Y-89235771D01*
X86690476Y-89235771D02*
X86738095Y-89045295D01*
X86738095Y-89045295D02*
X86785714Y-88950057D01*
X86785714Y-88950057D02*
X86833333Y-88902438D01*
X86833333Y-88902438D02*
X86928571Y-88854819D01*
X132757142Y-105759580D02*
X132709523Y-105807200D01*
X132709523Y-105807200D02*
X132566666Y-105854819D01*
X132566666Y-105854819D02*
X132471428Y-105854819D01*
X132471428Y-105854819D02*
X132328571Y-105807200D01*
X132328571Y-105807200D02*
X132233333Y-105711961D01*
X132233333Y-105711961D02*
X132185714Y-105616723D01*
X132185714Y-105616723D02*
X132138095Y-105426247D01*
X132138095Y-105426247D02*
X132138095Y-105283390D01*
X132138095Y-105283390D02*
X132185714Y-105092914D01*
X132185714Y-105092914D02*
X132233333Y-104997676D01*
X132233333Y-104997676D02*
X132328571Y-104902438D01*
X132328571Y-104902438D02*
X132471428Y-104854819D01*
X132471428Y-104854819D02*
X132566666Y-104854819D01*
X132566666Y-104854819D02*
X132709523Y-104902438D01*
X132709523Y-104902438D02*
X132757142Y-104950057D01*
X133138095Y-104950057D02*
X133185714Y-104902438D01*
X133185714Y-104902438D02*
X133280952Y-104854819D01*
X133280952Y-104854819D02*
X133519047Y-104854819D01*
X133519047Y-104854819D02*
X133614285Y-104902438D01*
X133614285Y-104902438D02*
X133661904Y-104950057D01*
X133661904Y-104950057D02*
X133709523Y-105045295D01*
X133709523Y-105045295D02*
X133709523Y-105140533D01*
X133709523Y-105140533D02*
X133661904Y-105283390D01*
X133661904Y-105283390D02*
X133090476Y-105854819D01*
X133090476Y-105854819D02*
X133709523Y-105854819D01*
X134280952Y-105283390D02*
X134185714Y-105235771D01*
X134185714Y-105235771D02*
X134138095Y-105188152D01*
X134138095Y-105188152D02*
X134090476Y-105092914D01*
X134090476Y-105092914D02*
X134090476Y-105045295D01*
X134090476Y-105045295D02*
X134138095Y-104950057D01*
X134138095Y-104950057D02*
X134185714Y-104902438D01*
X134185714Y-104902438D02*
X134280952Y-104854819D01*
X134280952Y-104854819D02*
X134471428Y-104854819D01*
X134471428Y-104854819D02*
X134566666Y-104902438D01*
X134566666Y-104902438D02*
X134614285Y-104950057D01*
X134614285Y-104950057D02*
X134661904Y-105045295D01*
X134661904Y-105045295D02*
X134661904Y-105092914D01*
X134661904Y-105092914D02*
X134614285Y-105188152D01*
X134614285Y-105188152D02*
X134566666Y-105235771D01*
X134566666Y-105235771D02*
X134471428Y-105283390D01*
X134471428Y-105283390D02*
X134280952Y-105283390D01*
X134280952Y-105283390D02*
X134185714Y-105331009D01*
X134185714Y-105331009D02*
X134138095Y-105378628D01*
X134138095Y-105378628D02*
X134090476Y-105473866D01*
X134090476Y-105473866D02*
X134090476Y-105664342D01*
X134090476Y-105664342D02*
X134138095Y-105759580D01*
X134138095Y-105759580D02*
X134185714Y-105807200D01*
X134185714Y-105807200D02*
X134280952Y-105854819D01*
X134280952Y-105854819D02*
X134471428Y-105854819D01*
X134471428Y-105854819D02*
X134566666Y-105807200D01*
X134566666Y-105807200D02*
X134614285Y-105759580D01*
X134614285Y-105759580D02*
X134661904Y-105664342D01*
X134661904Y-105664342D02*
X134661904Y-105473866D01*
X134661904Y-105473866D02*
X134614285Y-105378628D01*
X134614285Y-105378628D02*
X134566666Y-105331009D01*
X134566666Y-105331009D02*
X134471428Y-105283390D01*
X119757142Y-117559580D02*
X119709523Y-117607200D01*
X119709523Y-117607200D02*
X119566666Y-117654819D01*
X119566666Y-117654819D02*
X119471428Y-117654819D01*
X119471428Y-117654819D02*
X119328571Y-117607200D01*
X119328571Y-117607200D02*
X119233333Y-117511961D01*
X119233333Y-117511961D02*
X119185714Y-117416723D01*
X119185714Y-117416723D02*
X119138095Y-117226247D01*
X119138095Y-117226247D02*
X119138095Y-117083390D01*
X119138095Y-117083390D02*
X119185714Y-116892914D01*
X119185714Y-116892914D02*
X119233333Y-116797676D01*
X119233333Y-116797676D02*
X119328571Y-116702438D01*
X119328571Y-116702438D02*
X119471428Y-116654819D01*
X119471428Y-116654819D02*
X119566666Y-116654819D01*
X119566666Y-116654819D02*
X119709523Y-116702438D01*
X119709523Y-116702438D02*
X119757142Y-116750057D01*
X120614285Y-116988152D02*
X120614285Y-117654819D01*
X120376190Y-116607200D02*
X120138095Y-117321485D01*
X120138095Y-117321485D02*
X120757142Y-117321485D01*
X121661904Y-117654819D02*
X121090476Y-117654819D01*
X121376190Y-117654819D02*
X121376190Y-116654819D01*
X121376190Y-116654819D02*
X121280952Y-116797676D01*
X121280952Y-116797676D02*
X121185714Y-116892914D01*
X121185714Y-116892914D02*
X121090476Y-116940533D01*
X115838095Y-104054819D02*
X115838095Y-104864342D01*
X115838095Y-104864342D02*
X115885714Y-104959580D01*
X115885714Y-104959580D02*
X115933333Y-105007200D01*
X115933333Y-105007200D02*
X116028571Y-105054819D01*
X116028571Y-105054819D02*
X116219047Y-105054819D01*
X116219047Y-105054819D02*
X116314285Y-105007200D01*
X116314285Y-105007200D02*
X116361904Y-104959580D01*
X116361904Y-104959580D02*
X116409523Y-104864342D01*
X116409523Y-104864342D02*
X116409523Y-104054819D01*
X116790476Y-104054819D02*
X117409523Y-104054819D01*
X117409523Y-104054819D02*
X117076190Y-104435771D01*
X117076190Y-104435771D02*
X117219047Y-104435771D01*
X117219047Y-104435771D02*
X117314285Y-104483390D01*
X117314285Y-104483390D02*
X117361904Y-104531009D01*
X117361904Y-104531009D02*
X117409523Y-104626247D01*
X117409523Y-104626247D02*
X117409523Y-104864342D01*
X117409523Y-104864342D02*
X117361904Y-104959580D01*
X117361904Y-104959580D02*
X117314285Y-105007200D01*
X117314285Y-105007200D02*
X117219047Y-105054819D01*
X117219047Y-105054819D02*
X116933333Y-105054819D01*
X116933333Y-105054819D02*
X116838095Y-105007200D01*
X116838095Y-105007200D02*
X116790476Y-104959580D01*
X101557142Y-77059580D02*
X101509523Y-77107200D01*
X101509523Y-77107200D02*
X101366666Y-77154819D01*
X101366666Y-77154819D02*
X101271428Y-77154819D01*
X101271428Y-77154819D02*
X101128571Y-77107200D01*
X101128571Y-77107200D02*
X101033333Y-77011961D01*
X101033333Y-77011961D02*
X100985714Y-76916723D01*
X100985714Y-76916723D02*
X100938095Y-76726247D01*
X100938095Y-76726247D02*
X100938095Y-76583390D01*
X100938095Y-76583390D02*
X100985714Y-76392914D01*
X100985714Y-76392914D02*
X101033333Y-76297676D01*
X101033333Y-76297676D02*
X101128571Y-76202438D01*
X101128571Y-76202438D02*
X101271428Y-76154819D01*
X101271428Y-76154819D02*
X101366666Y-76154819D01*
X101366666Y-76154819D02*
X101509523Y-76202438D01*
X101509523Y-76202438D02*
X101557142Y-76250057D01*
X101890476Y-76154819D02*
X102509523Y-76154819D01*
X102509523Y-76154819D02*
X102176190Y-76535771D01*
X102176190Y-76535771D02*
X102319047Y-76535771D01*
X102319047Y-76535771D02*
X102414285Y-76583390D01*
X102414285Y-76583390D02*
X102461904Y-76631009D01*
X102461904Y-76631009D02*
X102509523Y-76726247D01*
X102509523Y-76726247D02*
X102509523Y-76964342D01*
X102509523Y-76964342D02*
X102461904Y-77059580D01*
X102461904Y-77059580D02*
X102414285Y-77107200D01*
X102414285Y-77107200D02*
X102319047Y-77154819D01*
X102319047Y-77154819D02*
X102033333Y-77154819D01*
X102033333Y-77154819D02*
X101938095Y-77107200D01*
X101938095Y-77107200D02*
X101890476Y-77059580D01*
X103461904Y-77154819D02*
X102890476Y-77154819D01*
X103176190Y-77154819D02*
X103176190Y-76154819D01*
X103176190Y-76154819D02*
X103080952Y-76297676D01*
X103080952Y-76297676D02*
X102985714Y-76392914D01*
X102985714Y-76392914D02*
X102890476Y-76440533D01*
D12*
%TO.C,C39*%
X124183767Y-119390000D02*
X123891233Y-119390000D01*
X124183767Y-120410000D02*
X123891233Y-120410000D01*
%TO.C,C14*%
X116063748Y-75740000D02*
X117486252Y-75740000D01*
X116063748Y-78460000D02*
X117486252Y-78460000D01*
%TO.C,J1*%
X154710000Y-72030000D02*
X163830000Y-72030000D01*
X154710000Y-130710000D02*
X154710000Y-72030000D01*
X156020000Y-73330000D02*
X162520000Y-73330000D01*
X156020000Y-129410000D02*
X156020000Y-73330000D01*
X162520000Y-73330000D02*
X162520000Y-99320000D01*
X162520000Y-99320000D02*
X162520000Y-99320000D01*
X162520000Y-99320000D02*
X163830000Y-99320000D01*
X162520000Y-103420000D02*
X162520000Y-129410000D01*
X162520000Y-129410000D02*
X156020000Y-129410000D01*
X163830000Y-72030000D02*
X163830000Y-130710000D01*
X163830000Y-103420000D02*
X162520000Y-103420000D01*
X163830000Y-130710000D02*
X154710000Y-130710000D01*
X164220000Y-125500000D02*
X165220000Y-126000000D01*
X165220000Y-125000000D02*
X164220000Y-125500000D01*
X165220000Y-126000000D02*
X165220000Y-125000000D01*
%TO.C,R11*%
X78642224Y-80677500D02*
X78132776Y-80677500D01*
X78642224Y-81722500D02*
X78132776Y-81722500D01*
%TO.C,L1*%
X107481000Y-82496000D02*
X111789000Y-82496000D01*
X111789000Y-86804000D02*
X107481000Y-86804000D01*
%TO.C,R26*%
X114532776Y-97677500D02*
X115042224Y-97677500D01*
X114532776Y-98722500D02*
X115042224Y-98722500D01*
%TO.C,C24*%
X114641233Y-94690000D02*
X114933767Y-94690000D01*
X114641233Y-95710000D02*
X114933767Y-95710000D01*
%TO.C,R25*%
X114532776Y-99177500D02*
X115042224Y-99177500D01*
X114532776Y-100222500D02*
X115042224Y-100222500D01*
%TO.C,U12*%
X135850000Y-112787500D02*
X138650000Y-112787500D01*
X135850000Y-115987500D02*
X135850000Y-112787500D01*
X136650000Y-116787500D02*
X135850000Y-115987500D01*
X138650000Y-112787500D02*
X138650000Y-116787500D01*
X138650000Y-116787500D02*
X136650000Y-116787500D01*
%TO.C,C26*%
X108390000Y-107941233D02*
X108390000Y-108233767D01*
X109410000Y-107941233D02*
X109410000Y-108233767D01*
%TO.C,R24*%
X102267224Y-114640000D02*
X101757776Y-114640000D01*
X102267224Y-115685000D02*
X101757776Y-115685000D01*
%TO.C,C35*%
X133416233Y-97090000D02*
X133708767Y-97090000D01*
X133416233Y-98110000D02*
X133708767Y-98110000D01*
%TO.C,R4*%
X140232776Y-103877500D02*
X140742224Y-103877500D01*
X140232776Y-104922500D02*
X140742224Y-104922500D01*
%TO.C,J6*%
X107670000Y-123670000D02*
X109000000Y-123670000D01*
X107670000Y-125000000D02*
X107670000Y-123670000D01*
X107670000Y-126270000D02*
X107670000Y-128870000D01*
X107670000Y-126270000D02*
X110330000Y-126270000D01*
X107670000Y-128870000D02*
X110330000Y-128870000D01*
X110330000Y-126270000D02*
X110330000Y-128870000D01*
%TO.C,C44*%
X98790000Y-110721267D02*
X98790000Y-110428733D01*
X99810000Y-110721267D02*
X99810000Y-110428733D01*
%TO.C,C25*%
X116853733Y-119390000D02*
X117146267Y-119390000D01*
X116853733Y-120410000D02*
X117146267Y-120410000D01*
%TO.C,C16*%
X130358767Y-97090000D02*
X130066233Y-97090000D01*
X130358767Y-98110000D02*
X130066233Y-98110000D01*
%TO.C,C17*%
X113891233Y-102190000D02*
X114183767Y-102190000D01*
X113891233Y-103210000D02*
X114183767Y-103210000D01*
%TO.C,C27*%
X134291233Y-100090000D02*
X134583767Y-100090000D01*
X134291233Y-101110000D02*
X134583767Y-101110000D01*
%TO.C,BT1*%
X89350000Y-120550000D02*
X91950000Y-117950000D01*
X89350000Y-122000000D02*
X89350000Y-120550000D01*
X89350000Y-126000000D02*
X89350000Y-128100000D01*
X91950000Y-117150000D02*
X100250000Y-117150000D01*
X91950000Y-117950000D02*
X91950000Y-117150000D01*
X100250000Y-117150000D02*
X100250000Y-117950000D01*
X100250000Y-117950000D02*
X102850000Y-120550000D01*
X102850000Y-120550000D02*
X102850000Y-122000000D01*
X102850000Y-126000000D02*
X102850000Y-128100000D01*
X90800000Y-129600000D02*
G75*
G02*
X89350000Y-128050000I49999J1499999D01*
G01*
X91600000Y-129200000D02*
G75*
G02*
X90685385Y-129584160I-790000J600001D01*
G01*
X101514615Y-129584160D02*
G75*
G02*
X100600000Y-129200000I-124615J984160D01*
G01*
X102850000Y-128050000D02*
G75*
G02*
X101400000Y-129600000I-1500000J-50000D01*
G01*
%TO.C,C13*%
X80520354Y-111825000D02*
X81520354Y-111825000D01*
X81020354Y-111325000D02*
X81020354Y-112325000D01*
X86000000Y-109620000D02*
X86000000Y-119780000D01*
X86040000Y-109620000D02*
X86040000Y-119780000D01*
X86080000Y-109620000D02*
X86080000Y-119780000D01*
X86120000Y-109621000D02*
X86120000Y-119779000D01*
X86160000Y-109622000D02*
X86160000Y-119778000D01*
X86200000Y-109623000D02*
X86200000Y-119777000D01*
X86240000Y-109625000D02*
X86240000Y-119775000D01*
X86280000Y-109627000D02*
X86280000Y-119773000D01*
X86320000Y-109630000D02*
X86320000Y-119770000D01*
X86360000Y-109632000D02*
X86360000Y-119768000D01*
X86400000Y-109635000D02*
X86400000Y-119765000D01*
X86440000Y-109638000D02*
X86440000Y-119762000D01*
X86480000Y-109642000D02*
X86480000Y-119758000D01*
X86520000Y-109646000D02*
X86520000Y-119754000D01*
X86560000Y-109650000D02*
X86560000Y-119750000D01*
X86600000Y-109655000D02*
X86600000Y-119745000D01*
X86640000Y-109660000D02*
X86640000Y-119740000D01*
X86680000Y-109665000D02*
X86680000Y-119735000D01*
X86721000Y-109670000D02*
X86721000Y-119730000D01*
X86761000Y-109676000D02*
X86761000Y-119724000D01*
X86801000Y-109682000D02*
X86801000Y-119718000D01*
X86841000Y-109689000D02*
X86841000Y-119711000D01*
X86881000Y-109696000D02*
X86881000Y-119704000D01*
X86921000Y-109703000D02*
X86921000Y-119697000D01*
X86961000Y-109710000D02*
X86961000Y-119690000D01*
X87001000Y-109718000D02*
X87001000Y-119682000D01*
X87041000Y-109726000D02*
X87041000Y-119674000D01*
X87081000Y-109735000D02*
X87081000Y-119665000D01*
X87121000Y-109744000D02*
X87121000Y-119656000D01*
X87161000Y-109753000D02*
X87161000Y-119647000D01*
X87201000Y-109762000D02*
X87201000Y-119638000D01*
X87241000Y-109772000D02*
X87241000Y-119628000D01*
X87281000Y-109782000D02*
X87281000Y-113459000D01*
X87281000Y-115941000D02*
X87281000Y-119618000D01*
X87321000Y-109793000D02*
X87321000Y-113459000D01*
X87321000Y-115941000D02*
X87321000Y-119607000D01*
X87361000Y-109803000D02*
X87361000Y-113459000D01*
X87361000Y-115941000D02*
X87361000Y-119597000D01*
X87401000Y-109815000D02*
X87401000Y-113459000D01*
X87401000Y-115941000D02*
X87401000Y-119585000D01*
X87441000Y-109826000D02*
X87441000Y-113459000D01*
X87441000Y-115941000D02*
X87441000Y-119574000D01*
X87481000Y-109838000D02*
X87481000Y-113459000D01*
X87481000Y-115941000D02*
X87481000Y-119562000D01*
X87521000Y-109850000D02*
X87521000Y-113459000D01*
X87521000Y-115941000D02*
X87521000Y-119550000D01*
X87561000Y-109863000D02*
X87561000Y-113459000D01*
X87561000Y-115941000D02*
X87561000Y-119537000D01*
X87601000Y-109876000D02*
X87601000Y-113459000D01*
X87601000Y-115941000D02*
X87601000Y-119524000D01*
X87641000Y-109889000D02*
X87641000Y-113459000D01*
X87641000Y-115941000D02*
X87641000Y-119511000D01*
X87681000Y-109903000D02*
X87681000Y-113459000D01*
X87681000Y-115941000D02*
X87681000Y-119497000D01*
X87721000Y-109917000D02*
X87721000Y-113459000D01*
X87721000Y-115941000D02*
X87721000Y-119483000D01*
X87761000Y-109932000D02*
X87761000Y-113459000D01*
X87761000Y-115941000D02*
X87761000Y-119468000D01*
X87801000Y-109946000D02*
X87801000Y-113459000D01*
X87801000Y-115941000D02*
X87801000Y-119454000D01*
X87841000Y-109962000D02*
X87841000Y-113459000D01*
X87841000Y-115941000D02*
X87841000Y-119438000D01*
X87881000Y-109977000D02*
X87881000Y-113459000D01*
X87881000Y-115941000D02*
X87881000Y-119423000D01*
X87921000Y-109993000D02*
X87921000Y-113459000D01*
X87921000Y-115941000D02*
X87921000Y-119407000D01*
X87961000Y-110010000D02*
X87961000Y-113459000D01*
X87961000Y-115941000D02*
X87961000Y-119390000D01*
X88001000Y-110026000D02*
X88001000Y-113459000D01*
X88001000Y-115941000D02*
X88001000Y-119374000D01*
X88041000Y-110043000D02*
X88041000Y-113459000D01*
X88041000Y-115941000D02*
X88041000Y-119357000D01*
X88081000Y-110061000D02*
X88081000Y-113459000D01*
X88081000Y-115941000D02*
X88081000Y-119339000D01*
X88121000Y-110079000D02*
X88121000Y-113459000D01*
X88121000Y-115941000D02*
X88121000Y-119321000D01*
X88161000Y-110097000D02*
X88161000Y-113459000D01*
X88161000Y-115941000D02*
X88161000Y-119303000D01*
X88201000Y-110116000D02*
X88201000Y-113459000D01*
X88201000Y-115941000D02*
X88201000Y-119284000D01*
X88241000Y-110136000D02*
X88241000Y-113459000D01*
X88241000Y-115941000D02*
X88241000Y-119264000D01*
X88281000Y-110155000D02*
X88281000Y-113459000D01*
X88281000Y-115941000D02*
X88281000Y-119245000D01*
X88321000Y-110175000D02*
X88321000Y-113459000D01*
X88321000Y-115941000D02*
X88321000Y-119225000D01*
X88361000Y-110196000D02*
X88361000Y-113459000D01*
X88361000Y-115941000D02*
X88361000Y-119204000D01*
X88401000Y-110217000D02*
X88401000Y-113459000D01*
X88401000Y-115941000D02*
X88401000Y-119183000D01*
X88441000Y-110238000D02*
X88441000Y-113459000D01*
X88441000Y-115941000D02*
X88441000Y-119162000D01*
X88481000Y-110260000D02*
X88481000Y-113459000D01*
X88481000Y-115941000D02*
X88481000Y-119140000D01*
X88521000Y-110283000D02*
X88521000Y-113459000D01*
X88521000Y-115941000D02*
X88521000Y-119117000D01*
X88561000Y-110305000D02*
X88561000Y-113459000D01*
X88561000Y-115941000D02*
X88561000Y-119095000D01*
X88601000Y-110329000D02*
X88601000Y-113459000D01*
X88601000Y-115941000D02*
X88601000Y-119071000D01*
X88641000Y-110353000D02*
X88641000Y-113459000D01*
X88641000Y-115941000D02*
X88641000Y-119047000D01*
X88681000Y-110377000D02*
X88681000Y-113459000D01*
X88681000Y-115941000D02*
X88681000Y-119023000D01*
X88721000Y-110402000D02*
X88721000Y-113459000D01*
X88721000Y-115941000D02*
X88721000Y-118998000D01*
X88761000Y-110427000D02*
X88761000Y-113459000D01*
X88761000Y-115941000D02*
X88761000Y-118973000D01*
X88801000Y-110453000D02*
X88801000Y-113459000D01*
X88801000Y-115941000D02*
X88801000Y-118947000D01*
X88841000Y-110479000D02*
X88841000Y-113459000D01*
X88841000Y-115941000D02*
X88841000Y-118921000D01*
X88881000Y-110506000D02*
X88881000Y-113459000D01*
X88881000Y-115941000D02*
X88881000Y-118894000D01*
X88921000Y-110534000D02*
X88921000Y-113459000D01*
X88921000Y-115941000D02*
X88921000Y-118866000D01*
X88961000Y-110562000D02*
X88961000Y-113459000D01*
X88961000Y-115941000D02*
X88961000Y-118838000D01*
X89001000Y-110590000D02*
X89001000Y-113459000D01*
X89001000Y-115941000D02*
X89001000Y-118810000D01*
X89041000Y-110620000D02*
X89041000Y-113459000D01*
X89041000Y-115941000D02*
X89041000Y-118780000D01*
X89081000Y-110650000D02*
X89081000Y-113459000D01*
X89081000Y-115941000D02*
X89081000Y-118750000D01*
X89121000Y-110680000D02*
X89121000Y-113459000D01*
X89121000Y-115941000D02*
X89121000Y-118720000D01*
X89161000Y-110711000D02*
X89161000Y-113459000D01*
X89161000Y-115941000D02*
X89161000Y-118689000D01*
X89201000Y-110743000D02*
X89201000Y-113459000D01*
X89201000Y-115941000D02*
X89201000Y-118657000D01*
X89241000Y-110775000D02*
X89241000Y-113459000D01*
X89241000Y-115941000D02*
X89241000Y-118625000D01*
X89281000Y-110808000D02*
X89281000Y-113459000D01*
X89281000Y-115941000D02*
X89281000Y-118592000D01*
X89321000Y-110842000D02*
X89321000Y-113459000D01*
X89321000Y-115941000D02*
X89321000Y-118558000D01*
X89361000Y-110876000D02*
X89361000Y-113459000D01*
X89361000Y-115941000D02*
X89361000Y-118524000D01*
X89401000Y-110911000D02*
X89401000Y-113459000D01*
X89401000Y-115941000D02*
X89401000Y-118489000D01*
X89441000Y-110947000D02*
X89441000Y-113459000D01*
X89441000Y-115941000D02*
X89441000Y-118453000D01*
X89481000Y-110984000D02*
X89481000Y-113459000D01*
X89481000Y-115941000D02*
X89481000Y-118416000D01*
X89521000Y-111021000D02*
X89521000Y-113459000D01*
X89521000Y-115941000D02*
X89521000Y-118379000D01*
X89561000Y-111060000D02*
X89561000Y-113459000D01*
X89561000Y-115941000D02*
X89561000Y-118340000D01*
X89601000Y-111099000D02*
X89601000Y-113459000D01*
X89601000Y-115941000D02*
X89601000Y-118301000D01*
X89641000Y-111139000D02*
X89641000Y-113459000D01*
X89641000Y-115941000D02*
X89641000Y-118261000D01*
X89681000Y-111180000D02*
X89681000Y-113459000D01*
X89681000Y-115941000D02*
X89681000Y-118220000D01*
X89721000Y-111222000D02*
X89721000Y-113459000D01*
X89721000Y-115941000D02*
X89721000Y-118178000D01*
X89761000Y-111264000D02*
X89761000Y-118136000D01*
X89801000Y-111308000D02*
X89801000Y-118092000D01*
X89841000Y-111353000D02*
X89841000Y-118047000D01*
X89881000Y-111399000D02*
X89881000Y-118001000D01*
X89921000Y-111446000D02*
X89921000Y-117954000D01*
X89961000Y-111494000D02*
X89961000Y-117906000D01*
X90001000Y-111544000D02*
X90001000Y-117856000D01*
X90041000Y-111594000D02*
X90041000Y-117806000D01*
X90081000Y-111646000D02*
X90081000Y-117754000D01*
X90121000Y-111700000D02*
X90121000Y-117700000D01*
X90161000Y-111755000D02*
X90161000Y-117645000D01*
X90201000Y-111811000D02*
X90201000Y-117589000D01*
X90241000Y-111870000D02*
X90241000Y-117530000D01*
X90281000Y-111930000D02*
X90281000Y-117470000D01*
X90321000Y-111991000D02*
X90321000Y-117409000D01*
X90361000Y-112055000D02*
X90361000Y-117345000D01*
X90401000Y-112121000D02*
X90401000Y-117279000D01*
X90441000Y-112190000D02*
X90441000Y-117210000D01*
X90481000Y-112261000D02*
X90481000Y-117139000D01*
X90521000Y-112335000D02*
X90521000Y-117065000D01*
X90561000Y-112411000D02*
X90561000Y-116989000D01*
X90601000Y-112491000D02*
X90601000Y-116909000D01*
X90641000Y-112575000D02*
X90641000Y-116825000D01*
X90681000Y-112663000D02*
X90681000Y-116737000D01*
X90721000Y-112756000D02*
X90721000Y-116644000D01*
X90761000Y-112854000D02*
X90761000Y-116546000D01*
X90801000Y-112958000D02*
X90801000Y-116442000D01*
X90841000Y-113070000D02*
X90841000Y-116330000D01*
X90881000Y-113190000D02*
X90881000Y-116210000D01*
X90921000Y-113322000D02*
X90921000Y-116078000D01*
X90961000Y-113470000D02*
X90961000Y-115930000D01*
X91001000Y-113638000D02*
X91001000Y-115762000D01*
X91041000Y-113838000D02*
X91041000Y-115562000D01*
X91081000Y-114101000D02*
X91081000Y-115299000D01*
X91120000Y-114700000D02*
G75*
G02*
X80880000Y-114700000I-5120000J0D01*
G01*
X80880000Y-114700000D02*
G75*
G02*
X91120000Y-114700000I5120000J0D01*
G01*
%TO.C,C5*%
X141073752Y-107615000D02*
X140551248Y-107615000D01*
X141073752Y-109085000D02*
X140551248Y-109085000D01*
%TO.C,C47*%
X132390000Y-115108767D02*
X132390000Y-114816233D01*
X133410000Y-115108767D02*
X133410000Y-114816233D01*
%TO.C,J2*%
X76390000Y-95080000D02*
X76390000Y-96940000D01*
X76390000Y-95080000D02*
X76590000Y-94880000D01*
X76390000Y-96940000D02*
X76590000Y-97150000D01*
X76390000Y-104030000D02*
X76740000Y-103520000D01*
X76390000Y-106340000D02*
X76390000Y-104030000D01*
X76390000Y-106340000D02*
X76590000Y-106540000D01*
X76590000Y-106540000D02*
X76590000Y-106800000D01*
X76740000Y-97150000D02*
X76590000Y-97150000D01*
X76740000Y-97150000D02*
X76740000Y-103520000D01*
X81350000Y-94050000D02*
X79550000Y-94050000D01*
X87350000Y-94050000D02*
X82650000Y-94050000D01*
X92660000Y-94050000D02*
X89050000Y-94050000D01*
X92660000Y-94500000D02*
X92660000Y-94050000D01*
X92660000Y-106100000D02*
X92660000Y-108020000D01*
X92660000Y-108020000D02*
X78650000Y-108020000D01*
%TO.C,C7*%
X104165000Y-118063748D02*
X104165000Y-119486252D01*
X106885000Y-118063748D02*
X106885000Y-119486252D01*
%TO.C,R15*%
X95082776Y-96677500D02*
X95592224Y-96677500D01*
X95082776Y-97722500D02*
X95592224Y-97722500D01*
%TO.C,U11*%
X122637500Y-86190000D02*
X121987500Y-86190000D01*
X122637500Y-86190000D02*
X123287500Y-86190000D01*
X122637500Y-89310000D02*
X121987500Y-89310000D01*
X122637500Y-89310000D02*
X123287500Y-89310000D01*
X121475000Y-86240000D02*
X121235000Y-85910000D01*
X121715000Y-85910000D01*
X121475000Y-86240000D01*
G36*
X121475000Y-86240000D02*
G01*
X121235000Y-85910000D01*
X121715000Y-85910000D01*
X121475000Y-86240000D01*
G37*
%TO.C,R5*%
X130557776Y-100077500D02*
X131067224Y-100077500D01*
X130557776Y-101122500D02*
X131067224Y-101122500D01*
%TO.C,R3*%
X125177500Y-95242224D02*
X125177500Y-94732776D01*
X126222500Y-95242224D02*
X126222500Y-94732776D01*
%TO.C,C42*%
X120216233Y-119390000D02*
X120508767Y-119390000D01*
X120216233Y-120410000D02*
X120508767Y-120410000D01*
%TO.C,J4*%
X112050000Y-121710000D02*
X145330000Y-121710000D01*
X112050000Y-130830000D02*
X112050000Y-121710000D01*
X113350000Y-123020000D02*
X126640000Y-123020000D01*
X113350000Y-129520000D02*
X113350000Y-123020000D01*
X126640000Y-123020000D02*
X126640000Y-121710000D01*
X126640000Y-123020000D02*
X126640000Y-123020000D01*
X130740000Y-121710000D02*
X130740000Y-123020000D01*
X130740000Y-123020000D02*
X144030000Y-123020000D01*
X139620000Y-120320000D02*
X140120000Y-121320000D01*
X140120000Y-121320000D02*
X140620000Y-120320000D01*
X140620000Y-120320000D02*
X139620000Y-120320000D01*
X144030000Y-123020000D02*
X144030000Y-129520000D01*
X144030000Y-129520000D02*
X113350000Y-129520000D01*
X145330000Y-121710000D02*
X145330000Y-130830000D01*
X145330000Y-130830000D02*
X112050000Y-130830000D01*
%TO.C,R6*%
X122577500Y-108857776D02*
X122577500Y-109367224D01*
X123622500Y-108857776D02*
X123622500Y-109367224D01*
%TO.C,C8*%
X81591233Y-80690000D02*
X81883767Y-80690000D01*
X81591233Y-81710000D02*
X81883767Y-81710000D01*
%TO.C,C15*%
X114641233Y-96190000D02*
X114933767Y-96190000D01*
X114641233Y-97210000D02*
X114933767Y-97210000D01*
%TO.C,U6*%
X135390000Y-83537500D02*
X135390000Y-82737500D01*
X135390000Y-83537500D02*
X135390000Y-84337500D01*
X138510000Y-83537500D02*
X138510000Y-82737500D01*
X138510000Y-83537500D02*
X138510000Y-84337500D01*
X135440000Y-84837500D02*
X135110000Y-85077500D01*
X135110000Y-84597500D01*
X135440000Y-84837500D01*
G36*
X135440000Y-84837500D02*
G01*
X135110000Y-85077500D01*
X135110000Y-84597500D01*
X135440000Y-84837500D01*
G37*
%TO.C,R8*%
X127077500Y-108857776D02*
X127077500Y-109367224D01*
X128122500Y-108857776D02*
X128122500Y-109367224D01*
%TO.C,C23*%
X113891233Y-100690000D02*
X114183767Y-100690000D01*
X113891233Y-101710000D02*
X114183767Y-101710000D01*
%TO.C,R22*%
X130492224Y-95077500D02*
X129982776Y-95077500D01*
X130492224Y-96122500D02*
X129982776Y-96122500D01*
%TO.C,R17*%
X90167224Y-80077500D02*
X89657776Y-80077500D01*
X90167224Y-81122500D02*
X89657776Y-81122500D01*
%TO.C,R21*%
X108507776Y-75427500D02*
X109017224Y-75427500D01*
X108507776Y-76472500D02*
X109017224Y-76472500D01*
D11*
%TO.C,U10*%
X100100000Y-107612500D02*
X100100000Y-111412500D01*
X104500000Y-106612500D02*
X104500000Y-111412500D01*
D12*
%TO.C,C9*%
X91008767Y-87490000D02*
X90716233Y-87490000D01*
X91008767Y-88510000D02*
X90716233Y-88510000D01*
%TO.C,J7*%
X77070000Y-111650000D02*
X78400000Y-111650000D01*
X77070000Y-112980000D02*
X77070000Y-111650000D01*
X77070000Y-114250000D02*
X77070000Y-121930000D01*
X77070000Y-114250000D02*
X79730000Y-114250000D01*
X77070000Y-121930000D02*
X79730000Y-121930000D01*
X79730000Y-114250000D02*
X79730000Y-121930000D01*
%TO.C,U1*%
X143650000Y-100750000D02*
X144100000Y-100750000D01*
X143650000Y-101200000D02*
X143650000Y-100750000D01*
X143650000Y-105600000D02*
X143650000Y-106650000D01*
X148950000Y-100750000D02*
X148500000Y-100750000D01*
X148950000Y-101200000D02*
X148950000Y-100750000D01*
X148950000Y-105600000D02*
X148950000Y-106050000D01*
X148950000Y-106050000D02*
X148500000Y-106050000D01*
%TO.C,C10*%
X100490000Y-81516233D02*
X100490000Y-81808767D01*
X101510000Y-81516233D02*
X101510000Y-81808767D01*
%TO.C,C45*%
X123841233Y-84790000D02*
X124133767Y-84790000D01*
X123841233Y-85810000D02*
X124133767Y-85810000D01*
%TO.C,R14*%
X128232776Y-106177500D02*
X128742224Y-106177500D01*
X128232776Y-107222500D02*
X128742224Y-107222500D01*
%TO.C,C36*%
X101851248Y-112565000D02*
X102373752Y-112565000D01*
X101851248Y-114035000D02*
X102373752Y-114035000D01*
%TO.C,Y1*%
X134725000Y-101400000D02*
X130725000Y-101400000D01*
X134725000Y-104700000D02*
X134725000Y-101400000D01*
%TO.C,C4*%
X151865000Y-103976248D02*
X151865000Y-104498752D01*
X153335000Y-103976248D02*
X153335000Y-104498752D01*
%TO.C,R23*%
X104277500Y-114267224D02*
X104277500Y-113757776D01*
X105322500Y-114267224D02*
X105322500Y-113757776D01*
%TO.C,R1*%
X121177500Y-93767224D02*
X121177500Y-93257776D01*
X122222500Y-93767224D02*
X122222500Y-93257776D01*
%TO.C,U5*%
X109852500Y-108102500D02*
X110135000Y-108102500D01*
X109852500Y-110850000D02*
X109852500Y-108102500D01*
X109852500Y-110850000D02*
X109852500Y-113597500D01*
X109852500Y-113597500D02*
X110135000Y-113597500D01*
X115347500Y-108102500D02*
X115065000Y-108102500D01*
X115347500Y-110850000D02*
X115347500Y-108102500D01*
X115347500Y-110850000D02*
X115347500Y-113597500D01*
X115347500Y-113597500D02*
X115065000Y-113597500D01*
X110135000Y-114368750D02*
X109805000Y-114608750D01*
X109805000Y-114128750D01*
X110135000Y-114368750D01*
G36*
X110135000Y-114368750D02*
G01*
X109805000Y-114608750D01*
X109805000Y-114128750D01*
X110135000Y-114368750D01*
G37*
%TO.C,C21*%
X122690000Y-93341233D02*
X122690000Y-93633767D01*
X123710000Y-93341233D02*
X123710000Y-93633767D01*
%TO.C,C19*%
X125590000Y-109283767D02*
X125590000Y-108991233D01*
X126610000Y-109283767D02*
X126610000Y-108991233D01*
%TO.C,R20*%
X105195276Y-75427500D02*
X105704724Y-75427500D01*
X105195276Y-76472500D02*
X105704724Y-76472500D01*
%TO.C,C12*%
X85853733Y-91690000D02*
X86146267Y-91690000D01*
X85853733Y-92710000D02*
X86146267Y-92710000D01*
%TO.C,C6*%
X107615000Y-118641233D02*
X107615000Y-118933767D01*
X108635000Y-118641233D02*
X108635000Y-118933767D01*
%TO.C,C2*%
X93908767Y-78190000D02*
X93616233Y-78190000D01*
X93908767Y-79210000D02*
X93616233Y-79210000D01*
%TO.C,U8*%
X98212500Y-79640000D02*
X97412500Y-79640000D01*
X98212500Y-79640000D02*
X99012500Y-79640000D01*
X98212500Y-82760000D02*
X97412500Y-82760000D01*
X98212500Y-82760000D02*
X99012500Y-82760000D01*
X96912500Y-79690000D02*
X96672500Y-79360000D01*
X97152500Y-79360000D01*
X96912500Y-79690000D01*
G36*
X96912500Y-79690000D02*
G01*
X96672500Y-79360000D01*
X97152500Y-79360000D01*
X96912500Y-79690000D01*
G37*
%TO.C,C34*%
X117090000Y-83536252D02*
X117090000Y-82113748D01*
X119810000Y-83536252D02*
X119810000Y-82113748D01*
%TO.C,C38*%
X128153733Y-117890000D02*
X128446267Y-117890000D01*
X128153733Y-118910000D02*
X128446267Y-118910000D01*
%TO.C,C18*%
X117090000Y-107508767D02*
X117090000Y-107216233D01*
X118110000Y-107508767D02*
X118110000Y-107216233D01*
%TO.C,J5*%
X140170000Y-75922500D02*
X141500000Y-75922500D01*
X140170000Y-77252500D02*
X140170000Y-75922500D01*
X140170000Y-78522500D02*
X140170000Y-88742500D01*
X140170000Y-78522500D02*
X142830000Y-78522500D01*
X140170000Y-88742500D02*
X142830000Y-88742500D01*
X142830000Y-78522500D02*
X142830000Y-88742500D01*
%TO.C,J3*%
X80935000Y-82620000D02*
X79155000Y-82620000D01*
X80935000Y-92020000D02*
X79155000Y-92020000D01*
X83855000Y-84520000D02*
X83855000Y-83720000D01*
%TO.C,R7*%
X124077500Y-108857776D02*
X124077500Y-109367224D01*
X125122500Y-108857776D02*
X125122500Y-109367224D01*
%TO.C,J9*%
X130860000Y-92230000D02*
X130860000Y-91100000D01*
X130925000Y-88700000D02*
X137395000Y-88700000D01*
X130925000Y-89522470D02*
X130925000Y-88700000D01*
X130925000Y-90340000D02*
X130925000Y-90137530D01*
X131056529Y-90340000D02*
X130925000Y-90340000D01*
X131620000Y-92230000D02*
X130860000Y-92230000D01*
X132326529Y-90340000D02*
X132183471Y-90340000D01*
X132380000Y-90536529D02*
X132380000Y-90393471D01*
X132380000Y-92230000D02*
X132380000Y-91663471D01*
X132380000Y-92230000D02*
X137395000Y-92230000D01*
X137395000Y-89522470D02*
X137395000Y-88700000D01*
X137395000Y-90792470D02*
X137395000Y-90137530D01*
X137395000Y-92230000D02*
X137395000Y-91407530D01*
%TO.C,C30*%
X115016233Y-79240000D02*
X115308767Y-79240000D01*
X115016233Y-80260000D02*
X115308767Y-80260000D01*
%TO.C,C32*%
X104740000Y-81116233D02*
X104740000Y-81408767D01*
X105760000Y-81116233D02*
X105760000Y-81408767D01*
%TO.C,C20*%
X130358767Y-98590000D02*
X130066233Y-98590000D01*
X130358767Y-99610000D02*
X130066233Y-99610000D01*
%TO.C,R28*%
X141267224Y-119077500D02*
X140757776Y-119077500D01*
X141267224Y-120122500D02*
X140757776Y-120122500D01*
D11*
%TO.C,U4*%
X109125000Y-116662500D02*
X109125000Y-117162500D01*
X109125000Y-116662500D02*
X109625000Y-116662500D01*
X109125000Y-120162500D02*
X109125000Y-120662500D01*
X109125000Y-120662500D02*
X109625000Y-120662500D01*
X113125000Y-120662500D02*
X112625000Y-120662500D01*
X113125000Y-120662500D02*
X113125000Y-120162500D01*
X113125000Y-117162500D02*
X112625000Y-116662500D01*
X113125000Y-116662500D01*
X113125000Y-117162500D01*
G36*
X113125000Y-117162500D02*
G01*
X112625000Y-116662500D01*
X113125000Y-116662500D01*
X113125000Y-117162500D01*
G37*
D12*
%TO.C,C37*%
X128153733Y-119390000D02*
X128446267Y-119390000D01*
X128153733Y-120410000D02*
X128446267Y-120410000D01*
%TO.C,R27*%
X136432776Y-119077500D02*
X136942224Y-119077500D01*
X136432776Y-120122500D02*
X136942224Y-120122500D01*
%TO.C,R2*%
X126677500Y-95242224D02*
X126677500Y-94732776D01*
X127722500Y-95242224D02*
X127722500Y-94732776D01*
%TO.C,C46*%
X122401248Y-89765000D02*
X122923752Y-89765000D01*
X122401248Y-91235000D02*
X122923752Y-91235000D01*
D10*
%TO.C,U9*%
X111825000Y-76870000D02*
X107675000Y-76870000D01*
X111825000Y-82020000D02*
X107675000Y-82020000D01*
D12*
X112665000Y-82250000D02*
X112185000Y-82250000D01*
X112425000Y-81920000D01*
X112665000Y-82250000D01*
G36*
X112665000Y-82250000D02*
G01*
X112185000Y-82250000D01*
X112425000Y-81920000D01*
X112665000Y-82250000D01*
G37*
%TO.C,C22*%
X117991233Y-94690000D02*
X118283767Y-94690000D01*
X117991233Y-95710000D02*
X118283767Y-95710000D01*
%TO.C,C40*%
X124183767Y-117890000D02*
X123891233Y-117890000D01*
X124183767Y-118910000D02*
X123891233Y-118910000D01*
%TO.C,C3*%
X141183767Y-106090000D02*
X140891233Y-106090000D01*
X141183767Y-107110000D02*
X140891233Y-107110000D01*
%TO.C,R13*%
X127877500Y-103782776D02*
X127877500Y-104292224D01*
X128922500Y-103782776D02*
X128922500Y-104292224D01*
%TO.C,U2*%
X90350000Y-88915000D02*
X89200000Y-88915000D01*
X90350000Y-88915000D02*
X91500000Y-88915000D01*
X90350000Y-91285000D02*
X89200000Y-91285000D01*
X90350000Y-91285000D02*
X91500000Y-91285000D01*
X88065000Y-89350000D02*
X87735000Y-89590000D01*
X87735000Y-89110000D01*
X88065000Y-89350000D01*
G36*
X88065000Y-89350000D02*
G01*
X87735000Y-89590000D01*
X87735000Y-89110000D01*
X88065000Y-89350000D01*
G37*
%TO.C,C43*%
X95141233Y-99990000D02*
X95433767Y-99990000D01*
X95141233Y-101010000D02*
X95433767Y-101010000D01*
%TO.C,R16*%
X89657776Y-81677500D02*
X90167224Y-81677500D01*
X89657776Y-82722500D02*
X90167224Y-82722500D01*
%TO.C,R9*%
X85757776Y-84077500D02*
X86267224Y-84077500D01*
X85757776Y-85122500D02*
X86267224Y-85122500D01*
%TO.C,C29*%
X133990000Y-83153733D02*
X133990000Y-83446267D01*
X135010000Y-83153733D02*
X135010000Y-83446267D01*
%TO.C,C1*%
X141065000Y-100123752D02*
X141065000Y-99601248D01*
X142535000Y-100123752D02*
X142535000Y-99601248D01*
%TO.C,U7*%
X93637500Y-79665000D02*
X92837500Y-79665000D01*
X93637500Y-79665000D02*
X94437500Y-79665000D01*
X93637500Y-82785000D02*
X92837500Y-82785000D01*
X93637500Y-82785000D02*
X94437500Y-82785000D01*
X92337500Y-79740000D02*
X92097500Y-79410000D01*
X92577500Y-79410000D01*
X92337500Y-79740000D01*
G36*
X92337500Y-79740000D02*
G01*
X92097500Y-79410000D01*
X92577500Y-79410000D01*
X92337500Y-79740000D01*
G37*
%TO.C,C33*%
X113790000Y-83536252D02*
X113790000Y-82113748D01*
X116510000Y-83536252D02*
X116510000Y-82113748D01*
%TO.C,R10*%
X85757776Y-90177500D02*
X86267224Y-90177500D01*
X85757776Y-91222500D02*
X86267224Y-91222500D01*
%TO.C,C28*%
X129365000Y-102891233D02*
X129365000Y-103183767D01*
X130385000Y-102891233D02*
X130385000Y-103183767D01*
%TO.C,C41*%
X120508767Y-117890000D02*
X120216233Y-117890000D01*
X120508767Y-118910000D02*
X120216233Y-118910000D01*
%TO.C,U3*%
X118590000Y-97240000D02*
X119240000Y-97240000D01*
X118590000Y-97890000D02*
X118590000Y-97240000D01*
X118590000Y-103810000D02*
X118590000Y-104160000D01*
X119240000Y-104460000D02*
X118830000Y-104460000D01*
X125810000Y-97240000D02*
X125160000Y-97240000D01*
X125810000Y-97890000D02*
X125810000Y-97240000D01*
X125810000Y-103810000D02*
X125810000Y-104460000D01*
X125810000Y-104460000D02*
X125160000Y-104460000D01*
X118590000Y-104460000D02*
X118260000Y-104700000D01*
X118260000Y-104220000D01*
X118590000Y-104460000D01*
G36*
X118590000Y-104460000D02*
G01*
X118260000Y-104700000D01*
X118260000Y-104220000D01*
X118590000Y-104460000D01*
G37*
%TO.C,C31*%
X104323752Y-77665000D02*
X103801248Y-77665000D01*
X104323752Y-79135000D02*
X103801248Y-79135000D01*
%TD*%
M02*
