M48
; DRILL file {KiCad 8.0.4-1.fc40} date 2024-09-05T19:31:40+0100
; FORMAT={-:-/ absolute / metric / decimal}
; #@! TF.CreationDate,2024-09-05T19:31:40+01:00
; #@! TF.GenerationSoftware,Kicad,Pcbnew,8.0.4-1.fc40
; #@! TF.FileFunction,Plated,1,4,PTH
FMAT,2
METRIC
; #@! TA.AperFunction,Plated,PTH,ComponentDrill
T1C0.200
; #@! TA.AperFunction,Plated,PTH,ComponentDrill
T2C0.219
; #@! TA.AperFunction,Plated,PTH,ViaDrill
T3C0.300
; #@! TA.AperFunction,Plated,PTH,ComponentDrill
T4C0.300
; #@! TA.AperFunction,Plated,PTH,ComponentDrill
T5C0.600
; #@! TA.AperFunction,Plated,PTH,ComponentDrill
T6C0.650
; #@! TA.AperFunction,Plated,PTH,ComponentDrill
T7C1.000
; #@! TA.AperFunction,Plated,PTH,ComponentDrill
T8C3.200
%
G90
G05
T1
X120.85Y-99.5
X120.85Y-102.2
X123.55Y-99.5
X123.55Y-102.2
T2
X145.425Y-102.525
X145.425Y-103.4
X145.425Y-104.275
X146.3Y-102.525
X146.3Y-103.4
X146.3Y-104.275
X147.175Y-102.525
X147.175Y-103.4
X147.175Y-104.275
T3
X77.0Y-74.0
X77.0Y-78.0
X77.0Y-96.0
X77.0Y-100.0
X77.0Y-110.0
X77.4Y-108.8
X78.0Y-72.4
X78.0Y-130.5
X78.2Y-81.2
X79.0Y-100.0
X79.0Y-103.0
X79.0Y-106.0
X79.0Y-109.0
X79.2Y-93.6
X82.0Y-72.4
X82.0Y-130.5
X83.0Y-100.0
X83.0Y-103.0
X83.0Y-106.0
X83.0Y-109.0
X83.5Y-81.2
X83.9Y-84.12
X83.9Y-84.9
X84.0Y-90.6
X84.1Y-89.7
X84.5Y-85.6
X86.0Y-72.4
X86.0Y-75.0
X86.0Y-78.0
X86.0Y-130.5
X86.5Y-88.4
X87.4Y-84.1
X87.4Y-90.2
X87.6Y-92.2
X87.78Y-88.4
X88.0Y-91.0
X88.2Y-80.6
X88.2Y-93.53
X88.2Y-122.0
X88.3Y-82.2
X88.5Y-88.4
X89.4Y-87.8
X89.9Y-84.8
X89.907Y-90.32
X90.0Y-72.4
X90.0Y-75.0
X90.0Y-78.0
X90.0Y-130.5
X91.0Y-91.1
X91.6Y-123.6
X92.0Y-110.0
X92.0Y-113.0
X92.1Y-78.7
X92.5Y-82.8
X92.6Y-88.0
X92.9Y-89.325
X93.2Y-127.4
X93.4Y-95.2
X93.4Y-120.2
X93.5Y-80.3
X93.5Y-98.3
X93.6Y-105.4
X94.0Y-72.4
X94.0Y-75.0
X94.0Y-130.5
X94.5Y-102.75
X94.9Y-91.0
X95.0Y-100.0
X95.3Y-79.5
X95.62Y-91.0
X96.0Y-78.0
X96.0Y-83.3
X96.0Y-85.0
X96.0Y-110.0
X96.0Y-113.0
X96.2Y-80.3
X96.2Y-82.2
X96.2Y-123.6
X96.2Y-128.6
X96.3Y-116.8
X96.9Y-100.5
X97.5Y-88.0
X98.0Y-72.4
X98.0Y-75.0
X98.0Y-78.0
X98.0Y-85.0
X98.0Y-130.5
X98.5Y-89.0
X98.8Y-120.2
X99.4Y-108.8
X99.4Y-127.2
X100.0Y-78.0
X100.0Y-96.0
X100.0Y-99.0
X100.5Y-87.5
X100.5Y-91.0
X100.8Y-106.5
X100.8Y-123.6
X101.5Y-88.5
X101.5Y-92.0
X101.6Y-82.6
X101.8Y-81.0
X101.8Y-106.4
X102.0Y-72.4
X102.0Y-76.0
X102.0Y-78.0
X102.0Y-80.0
X102.0Y-130.5
X102.5Y-93.0
X102.585Y-106.4
X102.627Y-102.673
X102.844Y-105.449
X102.9Y-104.6
X103.0Y-75.0
X103.0Y-82.0
X103.0Y-84.0
X103.5Y-86.5
X103.5Y-94.0
X103.7Y-79.3
X103.7Y-122.0
X103.825Y-117.25
X103.825Y-120.35
X103.9Y-114.1
X104.0Y-85.0
X104.0Y-91.0
X104.0Y-96.0
X104.0Y-99.0
X104.196Y-106.02
X104.222Y-105.27
X104.5Y-95.0
X104.6Y-107.6
X105.0Y-76.6
X105.0Y-87.0
X105.0Y-92.0
X105.5Y-88.5
X105.5Y-96.0
X105.525Y-116.35
X105.525Y-121.15
X105.6Y-114.9
X106.0Y-72.4
X106.0Y-93.0
X106.0Y-130.5
X106.5Y-97.0
X107.0Y-87.5
X107.0Y-94.0
X107.0Y-124.0
X107.0Y-126.3
X107.0Y-128.5
X108.0Y-89.0
X108.0Y-91.0
X108.0Y-95.0
X108.0Y-98.5
X108.2Y-106.8
X108.2Y-121.2
X108.225Y-116.95
X108.6Y-109.6
X109.0Y-87.5
X109.0Y-92.0
X109.0Y-96.0
X109.2Y-103.605
X109.225Y-119.45
X109.5Y-100.0
X110.0Y-72.4
X110.0Y-89.0
X110.0Y-94.0
X110.0Y-108.4
X110.0Y-130.5
X110.537Y-116.303
X110.7Y-113.1
X111.0Y-75.0
X111.0Y-76.0
X111.0Y-87.5
X111.0Y-92.0
X111.0Y-95.0
X111.2Y-124.0
X111.2Y-126.3
X111.2Y-128.5
X111.316Y-116.269
X111.553Y-105.91
X112.0Y-89.0
X112.0Y-94.0
X112.221Y-100.121
X112.3Y-117.5
X112.3Y-121.2
X112.4Y-112.4
X112.824Y-105.27
X113.0Y-75.0
X113.0Y-87.5
X113.0Y-92.0
X113.1Y-95.2
X113.1Y-96.6
X113.469Y-104.625
X113.5Y-84.3
X113.6Y-81.3
X113.875Y-101.875
X114.0Y-72.4
X114.0Y-75.8
X114.0Y-76.6
X114.0Y-77.4
X114.0Y-78.2
X114.0Y-89.0
X114.0Y-130.5
X114.1Y-116.4
X114.12Y-104.016
X114.7Y-113.3
X114.9Y-111.1
X114.982Y-96.024
X115.0Y-75.0
X115.0Y-87.5
X115.0Y-92.0
X115.0Y-124.0
X115.0Y-126.8
X115.1Y-83.3
X115.1Y-85.1
X115.2Y-78.8
X115.545Y-101.287
X115.55Y-102.35
X115.8Y-94.5
X116.0Y-89.0
X116.1Y-80.5
X116.2Y-120.7
X116.4Y-108.01
X116.5Y-105.7
X116.8Y-84.3
X116.8Y-109.0
X116.9Y-79.7
X117.0Y-75.0
X117.0Y-87.5
X117.0Y-92.0
X117.1Y-80.6
X117.1Y-94.4
X117.9Y-118.9
X117.9Y-122.8
X118.0Y-72.4
X118.0Y-89.0
X118.0Y-130.5
X118.1Y-109.4
X118.215Y-106.465
X118.4Y-85.1
X118.5Y-80.5
X118.5Y-83.4
X118.5Y-112.3
X118.5Y-116.0
X119.0Y-75.0
X119.0Y-87.5
X119.0Y-92.0
X119.0Y-120.6
X119.2Y-75.8
X119.2Y-77.0
X119.2Y-78.4
X119.6Y-117.5
X119.618Y-94.372
X119.755Y-95.932
X119.785Y-107.385
X119.9Y-80.5
X120.0Y-89.0
X120.05Y-92.95
X120.075Y-106.419
X120.1Y-84.3
X120.2Y-112.76
X120.2Y-114.04
X120.2Y-122.8
X120.237Y-94.824
X120.3Y-86.7
X120.3Y-93.8
X120.3Y-111.1
X120.306Y-107.883
X120.691Y-108.491
X120.921Y-95.185
X121.0Y-81.0
X121.0Y-83.0
X121.0Y-85.5
X121.2Y-109.0
X121.3Y-116.0
X121.5Y-95.7
X121.72Y-107.1
X121.9Y-109.9
X121.9Y-119.7
X121.9Y-122.8
X122.0Y-72.4
X122.0Y-75.0
X122.0Y-78.0
X122.0Y-98.4
X122.0Y-130.5
X122.1Y-118.4
X122.106Y-95.312
X122.3Y-85.3
X122.5Y-82.0
X122.5Y-84.0
X122.7Y-93.8
X122.905Y-114.02
X122.941Y-112.736
X123.2Y-116.0
X123.2Y-119.1
X123.4Y-122.8
X124.1Y-92.4
X124.173Y-93.386
X124.3Y-112.5
X124.44Y-90.5
X124.6Y-87.7
X124.6Y-88.597
X124.7Y-101.9
X124.78Y-98.998
X124.8Y-106.25
X125.0Y-114.9
X125.071Y-114.04
X125.5Y-109.0
X125.6Y-85.3
X125.8Y-87.9
X125.9Y-114.0
X126.0Y-72.4
X126.0Y-75.0
X126.0Y-78.0
X126.0Y-81.0
X126.0Y-84.0
X126.0Y-130.5
X126.005Y-104.05
X126.1Y-110.8
X126.127Y-114.928
X126.2Y-97.675
X126.2Y-122.8
X126.5Y-90.7
X126.8Y-105.9
X127.03Y-87.77
X127.35Y-103.05
X127.6Y-115.0
X127.7Y-104.4
X128.3Y-95.5
X128.8Y-110.0
X128.9Y-106.06
X129.2Y-119.1
X129.2Y-120.7
X129.2Y-122.8
X129.9Y-104.6
X130.0Y-72.4
X130.0Y-75.0
X130.0Y-78.0
X130.0Y-81.0
X130.0Y-84.0
X130.0Y-130.5
X130.005Y-94.9
X130.082Y-97.583
X130.082Y-99.089
X130.8Y-110.0
X131.7Y-99.5
X131.8Y-95.0
X131.8Y-98.2
X131.9Y-96.8
X132.1Y-111.3
X132.2Y-108.5
X132.35Y-96.238
X132.721Y-103.008
X133.0Y-116.6
X133.3Y-98.4
X133.6Y-114.1
X133.7Y-84.1
X133.7Y-107.0
X133.8Y-110.0
X134.0Y-72.4
X134.0Y-75.0
X134.0Y-78.0
X134.0Y-130.5
X134.4Y-81.6
X134.9Y-86.0
X135.0Y-119.6
X135.0Y-122.8
X135.1Y-111.3
X135.2Y-97.6
X135.3Y-99.9
X136.1Y-94.0
X136.6Y-101.8
X136.6Y-104.4
X136.6Y-107.0
X136.965Y-98.535
X137.0Y-116.6
X137.472Y-97.223
X137.5Y-92.6
X137.5Y-94.0
X137.9Y-85.7
X137.97Y-116.611
X137.99Y-98.656
X138.0Y-72.4
X138.0Y-75.0
X138.0Y-78.0
X138.0Y-130.5
X138.3Y-89.7
X138.4Y-103.6
X138.773Y-101.267
X138.777Y-88.433
X139.1Y-109.1
X139.27Y-99.03
X139.4Y-106.765
X140.6Y-101.605
X140.7Y-105.3
X141.0Y-109.2
X142.0Y-72.4
X142.0Y-124.0
X142.0Y-127.0
X142.0Y-130.5
X142.489Y-95.498
X142.5Y-91.0
X142.5Y-93.3
X142.55Y-109.05
X142.6Y-119.6
X142.77Y-98.97
X143.55Y-101.05
X144.8Y-95.5
X144.9Y-87.9
X144.9Y-91.0
X145.0Y-114.0
X145.0Y-117.0
X145.0Y-120.0
X146.0Y-72.4
X146.0Y-81.0
X146.0Y-84.0
X146.0Y-130.5
X147.9Y-93.3
X149.0Y-117.0
X149.0Y-120.0
X149.4Y-106.3
X149.6Y-91.2
X150.0Y-72.2
X150.0Y-81.0
X150.0Y-84.0
X150.2Y-101.015
X150.6Y-107.7
X150.915Y-104.971
X151.223Y-103.597
X151.5Y-86.1
X151.5Y-90.5
X151.5Y-93.3
X151.9Y-101.755
X152.041Y-102.522
X152.2Y-109.1
X152.4Y-98.3
X153.2Y-102.4
X153.3Y-106.0
X153.4Y-93.3
X153.5Y-103.67
X154.0Y-72.4
X154.0Y-111.0
X154.0Y-130.5
X154.4Y-82.8
X154.5Y-98.3
X155.4Y-99.4
X155.5Y-108.2
X155.6Y-113.5
X155.9Y-93.6
X156.0Y-101.935
X156.0Y-104.0
X156.8Y-114.1
X158.0Y-72.4
X158.0Y-130.5
X162.0Y-72.4
X162.0Y-130.5
X164.0Y-74.0
X164.0Y-78.0
X164.0Y-82.0
X164.0Y-86.0
X164.0Y-90.0
X164.0Y-94.0
X164.0Y-98.0
X164.0Y-102.0
X164.0Y-106.0
X164.0Y-110.0
X164.0Y-114.0
X164.0Y-118.0
X164.0Y-122.0
X164.0Y-126.0
X164.0Y-129.0
T4
X109.1Y-77.495
X109.1Y-78.795
X109.1Y-80.095
X109.1Y-81.395
X110.4Y-77.495
X110.4Y-78.795
X110.4Y-80.095
X110.4Y-81.395
T6
X131.62Y-89.83
X131.62Y-91.1
X132.89Y-89.83
X132.89Y-91.1
X134.16Y-89.83
X134.16Y-91.1
X135.43Y-89.83
X135.43Y-91.1
X136.7Y-89.83
X136.7Y-91.1
T7
X78.4Y-112.98
X78.4Y-115.52
X78.4Y-118.06
X78.4Y-120.6
X83.5Y-114.7
X88.5Y-114.7
X109.0Y-125.0
X109.0Y-127.54
X117.26Y-125.0
X117.26Y-127.54
X119.8Y-125.0
X119.8Y-127.54
X122.34Y-125.0
X122.34Y-127.54
X124.88Y-125.0
X124.88Y-127.54
X127.42Y-125.0
X127.42Y-127.54
X129.96Y-125.0
X129.96Y-127.54
X132.5Y-125.0
X132.5Y-127.54
X135.04Y-125.0
X135.04Y-127.54
X137.58Y-125.0
X137.58Y-127.54
X140.12Y-125.0
X140.12Y-127.54
X141.5Y-77.252
X141.5Y-79.792
X141.5Y-82.332
X141.5Y-84.873
X141.5Y-87.412
X158.0Y-77.24
X158.0Y-79.78
X158.0Y-82.32
X158.0Y-84.86
X158.0Y-87.4
X158.0Y-89.94
X158.0Y-92.48
X158.0Y-95.02
X158.0Y-97.56
X158.0Y-100.1
X158.0Y-102.64
X158.0Y-105.18
X158.0Y-107.72
X158.0Y-110.26
X158.0Y-112.8
X158.0Y-115.34
X158.0Y-117.88
X158.0Y-120.42
X158.0Y-122.96
X158.0Y-125.5
X160.54Y-77.24
X160.54Y-79.78
X160.54Y-82.32
X160.54Y-84.86
X160.54Y-87.4
X160.54Y-89.94
X160.54Y-92.48
X160.54Y-95.02
X160.54Y-97.56
X160.54Y-100.1
X160.54Y-102.64
X160.54Y-105.18
X160.54Y-107.72
X160.54Y-110.26
X160.54Y-112.8
X160.54Y-115.34
X160.54Y-117.88
X160.54Y-120.42
X160.54Y-122.96
X160.54Y-125.5
T8
X80.0Y-76.0
X80.0Y-127.0
X150.0Y-76.0
X150.0Y-127.0
T5
G00X78.38Y-83.0
M15
G01X77.78Y-83.0
M16
G05
G00X78.38Y-91.64
M15
G01X77.78Y-91.64
M16
G05
G00X82.81Y-83.0
M15
G01X81.71Y-83.0
M16
G05
G00X82.81Y-91.64
M15
G01X81.71Y-91.64
M16
G05
M30
