%TF.GenerationSoftware,KiCad,Pcbnew,8.0.4-1.fc40*%
%TF.CreationDate,2024-09-05T19:31:20+01:00*%
%TF.ProjectId,better-lamp-controller,62657474-6572-42d6-9c61-6d702d636f6e,rev?*%
%TF.SameCoordinates,Original*%
%TF.FileFunction,Soldermask,Bot*%
%TF.FilePolarity,Negative*%
%FSLAX46Y46*%
G04 Gerber Fmt 4.6, Leading zero omitted, Abs format (unit mm)*
G04 Created by KiCad (PCBNEW 8.0.4-1.fc40) date 2024-09-05 19:31:20*
%MOMM*%
%LPD*%
G01*
G04 APERTURE LIST*
G04 Aperture macros list*
%AMRoundRect*
0 Rectangle with rounded corners*
0 $1 Rounding radius*
0 $2 $3 $4 $5 $6 $7 $8 $9 X,Y pos of 4 corners*
0 Add a 4 corners polygon primitive as box body*
4,1,4,$2,$3,$4,$5,$6,$7,$8,$9,$2,$3,0*
0 Add four circle primitives for the rounded corners*
1,1,$1+$1,$2,$3*
1,1,$1+$1,$4,$5*
1,1,$1+$1,$6,$7*
1,1,$1+$1,$8,$9*
0 Add four rect primitives between the rounded corners*
20,1,$1+$1,$2,$3,$4,$5,0*
20,1,$1+$1,$4,$5,$6,$7,0*
20,1,$1+$1,$6,$7,$8,$9,0*
20,1,$1+$1,$8,$9,$2,$3,0*%
%AMFreePoly0*
4,1,19,0.500000,-0.750000,0.000000,-0.750000,0.000000,-0.744911,-0.071157,-0.744911,-0.207708,-0.704816,-0.327430,-0.627875,-0.420627,-0.520320,-0.479746,-0.390866,-0.500000,-0.250000,-0.500000,0.250000,-0.479746,0.390866,-0.420627,0.520320,-0.327430,0.627875,-0.207708,0.704816,-0.071157,0.744911,0.000000,0.744911,0.000000,0.750000,0.500000,0.750000,0.500000,-0.750000,0.500000,-0.750000,
$1*%
%AMFreePoly1*
4,1,19,0.000000,0.744911,0.071157,0.744911,0.207708,0.704816,0.327430,0.627875,0.420627,0.520320,0.479746,0.390866,0.500000,0.250000,0.500000,-0.250000,0.479746,-0.390866,0.420627,-0.520320,0.327430,-0.627875,0.207708,-0.704816,0.071157,-0.744911,0.000000,-0.744911,0.000000,-0.750000,-0.500000,-0.750000,-0.500000,0.750000,0.000000,0.750000,0.000000,0.744911,0.000000,0.744911,
$1*%
G04 Aperture macros list end*
%ADD10RoundRect,0.250000X0.600000X0.600000X-0.600000X0.600000X-0.600000X-0.600000X0.600000X-0.600000X0*%
%ADD11C,1.700000*%
%ADD12R,1.700000X1.700000*%
%ADD13O,1.700000X1.700000*%
%ADD14R,2.000000X2.000000*%
%ADD15C,2.000000*%
%ADD16RoundRect,0.250000X-0.600000X0.600000X-0.600000X-0.600000X0.600000X-0.600000X0.600000X0.600000X0*%
%ADD17C,0.437500*%
%ADD18C,6.400000*%
%ADD19C,0.650000*%
%ADD20O,2.100000X1.000000*%
%ADD21O,1.600000X1.000000*%
%ADD22R,1.000000X1.000000*%
%ADD23O,1.000000X1.000000*%
%ADD24FreePoly0,0.000000*%
%ADD25FreePoly1,0.000000*%
%ADD26FreePoly0,180.000000*%
%ADD27FreePoly1,180.000000*%
G04 APERTURE END LIST*
D10*
%TO.C,J1*%
X160540000Y-125500000D03*
D11*
X158000000Y-125500000D03*
X160540000Y-122960000D03*
X158000000Y-122960000D03*
X160540000Y-120420000D03*
X158000000Y-120420000D03*
X160540000Y-117880000D03*
X158000000Y-117880000D03*
X160540000Y-115340000D03*
X158000000Y-115340000D03*
X160540000Y-112800000D03*
X158000000Y-112800000D03*
X160540000Y-110260000D03*
X158000000Y-110260000D03*
X160540000Y-107720000D03*
X158000000Y-107720000D03*
X160540000Y-105180000D03*
X158000000Y-105180000D03*
X160540000Y-102640000D03*
X158000000Y-102640000D03*
X160540000Y-100100000D03*
X158000000Y-100100000D03*
X160540000Y-97560000D03*
X158000000Y-97560000D03*
X160540000Y-95020000D03*
X158000000Y-95020000D03*
X160540000Y-92480000D03*
X158000000Y-92480000D03*
X160540000Y-89940000D03*
X158000000Y-89940000D03*
X160540000Y-87400000D03*
X158000000Y-87400000D03*
X160540000Y-84860000D03*
X158000000Y-84860000D03*
X160540000Y-82320000D03*
X158000000Y-82320000D03*
X160540000Y-79780000D03*
X158000000Y-79780000D03*
X160540000Y-77240000D03*
X158000000Y-77240000D03*
%TD*%
D12*
%TO.C,J6*%
X109000000Y-125000000D03*
D13*
X109000000Y-127540000D03*
%TD*%
D14*
%TO.C,C13*%
X83500000Y-114700000D03*
D15*
X88500000Y-114700000D03*
%TD*%
D16*
%TO.C,J4*%
X140120000Y-125000000D03*
D11*
X140120000Y-127540000D03*
X137580000Y-125000000D03*
X137580000Y-127540000D03*
X135040000Y-125000000D03*
X135040000Y-127540000D03*
X132500000Y-125000000D03*
X132500000Y-127540000D03*
X129960000Y-125000000D03*
X129960000Y-127540000D03*
X127420000Y-125000000D03*
X127420000Y-127540000D03*
X124880000Y-125000000D03*
X124880000Y-127540000D03*
X122340000Y-125000000D03*
X122340000Y-127540000D03*
X119800000Y-125000000D03*
X119800000Y-127540000D03*
X117260000Y-125000000D03*
X117260000Y-127540000D03*
%TD*%
D12*
%TO.C,J7*%
X78400000Y-112980000D03*
D13*
X78400000Y-115520000D03*
X78400000Y-118060000D03*
X78400000Y-120600000D03*
%TD*%
D17*
%TO.C,U1*%
X145425000Y-104275000D03*
X146300000Y-104275000D03*
X147175000Y-104275000D03*
X145425000Y-103400000D03*
X146300000Y-103400000D03*
X147175000Y-103400000D03*
X145425000Y-102525000D03*
X146300000Y-102525000D03*
X147175000Y-102525000D03*
%TD*%
D18*
%TO.C,H3*%
X80000000Y-127000000D03*
%TD*%
%TO.C,H1*%
X150000000Y-76000000D03*
%TD*%
%TO.C,H4*%
X80000000Y-76000000D03*
%TD*%
D12*
%TO.C,J5*%
X141500000Y-77252500D03*
D13*
X141500000Y-79792500D03*
X141500000Y-82332500D03*
X141500000Y-84872500D03*
X141500000Y-87412500D03*
%TD*%
D19*
%TO.C,J3*%
X81760000Y-84430000D03*
X81760000Y-90210000D03*
D20*
X82260000Y-83000000D03*
D21*
X78080000Y-83000000D03*
D20*
X82260000Y-91640000D03*
D21*
X78080000Y-91640000D03*
%TD*%
D22*
%TO.C,J9*%
X131620000Y-91100000D03*
D23*
X131620000Y-89830000D03*
X132890000Y-91100000D03*
X132890000Y-89830000D03*
X134160000Y-91100000D03*
X134160000Y-89830000D03*
X135430000Y-91100000D03*
X135430000Y-89830000D03*
X136700000Y-91100000D03*
X136700000Y-89830000D03*
%TD*%
D18*
%TO.C,H2*%
X150000000Y-127000000D03*
%TD*%
D24*
%TO.C,JP5*%
X140000000Y-99500000D03*
D25*
X141300000Y-99500000D03*
%TD*%
D26*
%TO.C,JP1*%
X112300000Y-111475000D03*
D27*
X111000000Y-111475000D03*
%TD*%
D24*
%TO.C,JP2*%
X140000000Y-97000000D03*
D25*
X141300000Y-97000000D03*
%TD*%
D24*
%TO.C,JP3*%
X140000000Y-94500000D03*
D25*
X141300000Y-94500000D03*
%TD*%
D24*
%TO.C,JP4*%
X140000000Y-92000000D03*
D25*
X141300000Y-92000000D03*
%TD*%
M02*
