%TF.GenerationSoftware,KiCad,Pcbnew,8.0.4-1.fc40*%
%TF.CreationDate,2024-09-05T19:31:20+01:00*%
%TF.ProjectId,better-lamp-controller,62657474-6572-42d6-9c61-6d702d636f6e,rev?*%
%TF.SameCoordinates,Original*%
%TF.FileFunction,Soldermask,Top*%
%TF.FilePolarity,Negative*%
%FSLAX46Y46*%
G04 Gerber Fmt 4.6, Leading zero omitted, Abs format (unit mm)*
G04 Created by KiCad (PCBNEW 8.0.4-1.fc40) date 2024-09-05 19:31:20*
%MOMM*%
%LPD*%
G01*
G04 APERTURE LIST*
G04 Aperture macros list*
%AMRoundRect*
0 Rectangle with rounded corners*
0 $1 Rounding radius*
0 $2 $3 $4 $5 $6 $7 $8 $9 X,Y pos of 4 corners*
0 Add a 4 corners polygon primitive as box body*
4,1,4,$2,$3,$4,$5,$6,$7,$8,$9,$2,$3,0*
0 Add four circle primitives for the rounded corners*
1,1,$1+$1,$2,$3*
1,1,$1+$1,$4,$5*
1,1,$1+$1,$6,$7*
1,1,$1+$1,$8,$9*
0 Add four rect primitives between the rounded corners*
20,1,$1+$1,$2,$3,$4,$5,0*
20,1,$1+$1,$4,$5,$6,$7,0*
20,1,$1+$1,$6,$7,$8,$9,0*
20,1,$1+$1,$8,$9,$2,$3,0*%
G04 Aperture macros list end*
%ADD10RoundRect,0.237500X0.300000X0.237500X-0.300000X0.237500X-0.300000X-0.237500X0.300000X-0.237500X0*%
%ADD11RoundRect,0.250000X-0.325000X-1.100000X0.325000X-1.100000X0.325000X1.100000X-0.325000X1.100000X0*%
%ADD12RoundRect,0.250000X0.600000X0.600000X-0.600000X0.600000X-0.600000X-0.600000X0.600000X-0.600000X0*%
%ADD13C,1.700000*%
%ADD14RoundRect,0.237500X0.250000X0.237500X-0.250000X0.237500X-0.250000X-0.237500X0.250000X-0.237500X0*%
%ADD15R,0.980000X3.400000*%
%ADD16RoundRect,0.237500X-0.250000X-0.237500X0.250000X-0.237500X0.250000X0.237500X-0.250000X0.237500X0*%
%ADD17RoundRect,0.237500X-0.300000X-0.237500X0.300000X-0.237500X0.300000X0.237500X-0.300000X0.237500X0*%
%ADD18R,0.300000X1.000000*%
%ADD19RoundRect,0.237500X-0.237500X0.300000X-0.237500X-0.300000X0.237500X-0.300000X0.237500X0.300000X0*%
%ADD20R,1.700000X1.700000*%
%ADD21O,1.700000X1.700000*%
%ADD22RoundRect,0.237500X0.237500X-0.300000X0.237500X0.300000X-0.237500X0.300000X-0.237500X-0.300000X0*%
%ADD23R,3.500000X3.300000*%
%ADD24C,10.200000*%
%ADD25R,2.000000X2.000000*%
%ADD26C,2.000000*%
%ADD27RoundRect,0.250000X0.337500X0.475000X-0.337500X0.475000X-0.337500X-0.475000X0.337500X-0.475000X0*%
%ADD28R,1.200000X0.700000*%
%ADD29R,0.800000X1.000000*%
%ADD30R,1.200000X1.000000*%
%ADD31R,2.800000X1.000000*%
%ADD32R,1.900000X1.300000*%
%ADD33RoundRect,0.250000X-1.100000X0.325000X-1.100000X-0.325000X1.100000X-0.325000X1.100000X0.325000X0*%
%ADD34RoundRect,0.150000X-0.587500X-0.150000X0.587500X-0.150000X0.587500X0.150000X-0.587500X0.150000X0*%
%ADD35RoundRect,0.237500X0.237500X-0.250000X0.237500X0.250000X-0.237500X0.250000X-0.237500X-0.250000X0*%
%ADD36RoundRect,0.250000X-0.600000X0.600000X-0.600000X-0.600000X0.600000X-0.600000X0.600000X0.600000X0*%
%ADD37RoundRect,0.237500X-0.237500X0.250000X-0.237500X-0.250000X0.237500X-0.250000X0.237500X0.250000X0*%
%ADD38RoundRect,0.150000X0.150000X-0.512500X0.150000X0.512500X-0.150000X0.512500X-0.150000X-0.512500X0*%
%ADD39RoundRect,0.092500X-0.092500X0.557500X-0.092500X-0.557500X0.092500X-0.557500X0.092500X0.557500X0*%
%ADD40RoundRect,0.105000X-1.845000X0.945000X-1.845000X-0.945000X1.845000X-0.945000X1.845000X0.945000X0*%
%ADD41O,0.200000X1.500000*%
%ADD42O,1.500000X0.200000*%
%ADD43C,0.437500*%
%ADD44R,3.500000X3.500000*%
%ADD45C,6.400000*%
%ADD46RoundRect,0.250000X-0.337500X-0.475000X0.337500X-0.475000X0.337500X0.475000X-0.337500X0.475000X0*%
%ADD47R,1.400000X1.200000*%
%ADD48RoundRect,0.250000X-0.475000X0.337500X-0.475000X-0.337500X0.475000X-0.337500X0.475000X0.337500X0*%
%ADD49RoundRect,0.150000X0.150000X-0.650000X0.150000X0.650000X-0.150000X0.650000X-0.150000X-0.650000X0*%
%ADD50RoundRect,0.150000X-0.512500X-0.150000X0.512500X-0.150000X0.512500X0.150000X-0.512500X0.150000X0*%
%ADD51RoundRect,0.250000X1.100000X-0.325000X1.100000X0.325000X-1.100000X0.325000X-1.100000X-0.325000X0*%
%ADD52C,0.650000*%
%ADD53RoundRect,0.150000X-0.500000X0.150000X-0.500000X-0.150000X0.500000X-0.150000X0.500000X0.150000X0*%
%ADD54RoundRect,0.075000X-0.575000X0.075000X-0.575000X-0.075000X0.575000X-0.075000X0.575000X0.075000X0*%
%ADD55O,2.100000X1.000000*%
%ADD56O,1.600000X1.000000*%
%ADD57R,1.000000X1.000000*%
%ADD58O,1.000000X1.000000*%
%ADD59RoundRect,0.062500X-0.062500X0.625000X-0.062500X-0.625000X0.062500X-0.625000X0.062500X0.625000X0*%
%ADD60RoundRect,0.062500X-0.062500X0.825000X-0.062500X-0.825000X0.062500X-0.825000X0.062500X0.825000X0*%
%ADD61RoundRect,0.062500X0.687500X0.062500X-0.687500X0.062500X-0.687500X-0.062500X0.687500X-0.062500X0*%
%ADD62RoundRect,0.062500X-0.837500X-0.062500X0.837500X-0.062500X0.837500X0.062500X-0.837500X0.062500X0*%
%ADD63RoundRect,0.062500X0.062500X-0.650000X0.062500X0.650000X-0.062500X0.650000X-0.062500X-0.650000X0*%
%ADD64RoundRect,0.062500X-0.637500X-0.062500X0.637500X-0.062500X0.637500X0.062500X-0.637500X0.062500X0*%
%ADD65R,2.600000X3.100000*%
%ADD66R,1.550000X0.600000*%
%ADD67RoundRect,0.087500X-0.537500X-0.087500X0.537500X-0.087500X0.537500X0.087500X-0.537500X0.087500X0*%
%ADD68RoundRect,0.250000X0.475000X-0.337500X0.475000X0.337500X-0.475000X0.337500X-0.475000X-0.337500X0*%
%ADD69RoundRect,0.125000X-0.537500X-0.125000X0.537500X-0.125000X0.537500X0.125000X-0.537500X0.125000X0*%
%ADD70RoundRect,0.050000X0.050000X-0.700000X0.050000X0.700000X-0.050000X0.700000X-0.050000X-0.700000X0*%
%ADD71RoundRect,0.050000X0.700000X-0.050000X0.700000X0.050000X-0.700000X0.050000X-0.700000X-0.050000X0*%
%ADD72R,3.200000X3.200000*%
G04 APERTURE END LIST*
D10*
%TO.C,C39*%
X124900000Y-119900000D03*
X123175000Y-119900000D03*
%TD*%
D11*
%TO.C,C14*%
X115300000Y-77100000D03*
X118250000Y-77100000D03*
%TD*%
D12*
%TO.C,J1*%
X160540000Y-125500000D03*
D13*
X158000000Y-125500000D03*
X160540000Y-122960000D03*
X158000000Y-122960000D03*
X160540000Y-120420000D03*
X158000000Y-120420000D03*
X160540000Y-117880000D03*
X158000000Y-117880000D03*
X160540000Y-115340000D03*
X158000000Y-115340000D03*
X160540000Y-112800000D03*
X158000000Y-112800000D03*
X160540000Y-110260000D03*
X158000000Y-110260000D03*
X160540000Y-107720000D03*
X158000000Y-107720000D03*
X160540000Y-105180000D03*
X158000000Y-105180000D03*
X160540000Y-102640000D03*
X158000000Y-102640000D03*
X160540000Y-100100000D03*
X158000000Y-100100000D03*
X160540000Y-97560000D03*
X158000000Y-97560000D03*
X160540000Y-95020000D03*
X158000000Y-95020000D03*
X160540000Y-92480000D03*
X158000000Y-92480000D03*
X160540000Y-89940000D03*
X158000000Y-89940000D03*
X160540000Y-87400000D03*
X158000000Y-87400000D03*
X160540000Y-84860000D03*
X158000000Y-84860000D03*
X160540000Y-82320000D03*
X158000000Y-82320000D03*
X160540000Y-79780000D03*
X158000000Y-79780000D03*
X160540000Y-77240000D03*
X158000000Y-77240000D03*
%TD*%
D14*
%TO.C,R11*%
X79300000Y-81200000D03*
X77475000Y-81200000D03*
%TD*%
D15*
%TO.C,L1*%
X108450000Y-84650000D03*
X110820000Y-84650000D03*
%TD*%
D16*
%TO.C,R26*%
X113875000Y-98200000D03*
X115700000Y-98200000D03*
%TD*%
D17*
%TO.C,C24*%
X113925000Y-95200000D03*
X115650000Y-95200000D03*
%TD*%
D16*
%TO.C,R25*%
X113875000Y-99700000D03*
X115700000Y-99700000D03*
%TD*%
D18*
%TO.C,U12*%
X136500000Y-115787500D03*
X137000000Y-115787500D03*
X137500000Y-115787500D03*
X138000000Y-115787500D03*
X138000000Y-113787500D03*
X137500000Y-113787500D03*
X137000000Y-113787500D03*
X136500000Y-113787500D03*
%TD*%
D19*
%TO.C,C26*%
X108900000Y-107225000D03*
X108900000Y-108950000D03*
%TD*%
D14*
%TO.C,R24*%
X102925000Y-115162500D03*
X101100000Y-115162500D03*
%TD*%
D17*
%TO.C,C35*%
X132700000Y-97600000D03*
X134425000Y-97600000D03*
%TD*%
D16*
%TO.C,R4*%
X139575000Y-104400000D03*
X141400000Y-104400000D03*
%TD*%
D20*
%TO.C,J6*%
X109000000Y-125000000D03*
D21*
X109000000Y-127540000D03*
%TD*%
D22*
%TO.C,C44*%
X99300000Y-111437500D03*
X99300000Y-109712500D03*
%TD*%
D17*
%TO.C,C25*%
X116137500Y-119900000D03*
X117862500Y-119900000D03*
%TD*%
D10*
%TO.C,C16*%
X131075000Y-97600000D03*
X129350000Y-97600000D03*
%TD*%
D17*
%TO.C,C17*%
X113175000Y-102700000D03*
X114900000Y-102700000D03*
%TD*%
%TO.C,C27*%
X133575000Y-100600000D03*
X135300000Y-100600000D03*
%TD*%
D23*
%TO.C,BT1*%
X88200000Y-124000000D03*
X104000000Y-124000000D03*
D24*
X96100000Y-124000000D03*
%TD*%
D25*
%TO.C,C13*%
X83500000Y-114700000D03*
D26*
X88500000Y-114700000D03*
%TD*%
D27*
%TO.C,C5*%
X141850000Y-108350000D03*
X139775000Y-108350000D03*
%TD*%
D22*
%TO.C,C47*%
X132900000Y-115825000D03*
X132900000Y-114100000D03*
%TD*%
D28*
%TO.C,J2*%
X92500000Y-103800000D03*
X92500000Y-102700000D03*
X92500000Y-101600000D03*
X92500000Y-100500000D03*
X92500000Y-99400000D03*
X92500000Y-98300000D03*
X92500000Y-97200000D03*
X92500000Y-96100000D03*
X92500000Y-95150000D03*
D29*
X82000000Y-94200000D03*
D30*
X88200000Y-94200000D03*
D31*
X77850000Y-94200000D03*
D30*
X92500000Y-105350000D03*
D32*
X77400000Y-107700000D03*
%TD*%
D33*
%TO.C,C7*%
X105525000Y-117300000D03*
X105525000Y-120250000D03*
%TD*%
D16*
%TO.C,R15*%
X94425000Y-97200000D03*
X96250000Y-97200000D03*
%TD*%
D34*
%TO.C,U11*%
X121700000Y-86800000D03*
X121700000Y-88700000D03*
X123575000Y-87750000D03*
%TD*%
D16*
%TO.C,R5*%
X129900000Y-100600000D03*
X131725000Y-100600000D03*
%TD*%
D35*
%TO.C,R3*%
X125700000Y-95900000D03*
X125700000Y-94075000D03*
%TD*%
D17*
%TO.C,C42*%
X119500000Y-119900000D03*
X121225000Y-119900000D03*
%TD*%
D36*
%TO.C,J4*%
X140120000Y-125000000D03*
D13*
X140120000Y-127540000D03*
X137580000Y-125000000D03*
X137580000Y-127540000D03*
X135040000Y-125000000D03*
X135040000Y-127540000D03*
X132500000Y-125000000D03*
X132500000Y-127540000D03*
X129960000Y-125000000D03*
X129960000Y-127540000D03*
X127420000Y-125000000D03*
X127420000Y-127540000D03*
X124880000Y-125000000D03*
X124880000Y-127540000D03*
X122340000Y-125000000D03*
X122340000Y-127540000D03*
X119800000Y-125000000D03*
X119800000Y-127540000D03*
X117260000Y-125000000D03*
X117260000Y-127540000D03*
%TD*%
D37*
%TO.C,R6*%
X123100000Y-108200000D03*
X123100000Y-110025000D03*
%TD*%
D17*
%TO.C,C8*%
X80875000Y-81200000D03*
X82600000Y-81200000D03*
%TD*%
%TO.C,C15*%
X113925000Y-96700000D03*
X115650000Y-96700000D03*
%TD*%
D38*
%TO.C,U6*%
X136000000Y-84675000D03*
X136950000Y-84675000D03*
X137900000Y-84675000D03*
X137900000Y-82400000D03*
X136000000Y-82400000D03*
%TD*%
D37*
%TO.C,R8*%
X127600000Y-108200000D03*
X127600000Y-110025000D03*
%TD*%
D17*
%TO.C,C23*%
X113175000Y-101200000D03*
X114900000Y-101200000D03*
%TD*%
D14*
%TO.C,R22*%
X131150000Y-95600000D03*
X129325000Y-95600000D03*
%TD*%
%TO.C,R17*%
X90825000Y-80600000D03*
X89000000Y-80600000D03*
%TD*%
D16*
%TO.C,R21*%
X107850000Y-75950000D03*
X109675000Y-75950000D03*
%TD*%
D39*
%TO.C,U10*%
X104100000Y-107612500D03*
X103600000Y-107612500D03*
X103100000Y-107612500D03*
X102600000Y-107612500D03*
X102100000Y-107612500D03*
X101600000Y-107612500D03*
X101100000Y-107612500D03*
X100600000Y-107612500D03*
X104100000Y-111312500D03*
X103600000Y-111312500D03*
X103100000Y-111312500D03*
X102600000Y-111312500D03*
X102100000Y-111312500D03*
X101600000Y-111312500D03*
X101100000Y-111312500D03*
X100600000Y-111312500D03*
D40*
X102335000Y-109462500D03*
%TD*%
D10*
%TO.C,C9*%
X91725000Y-88000000D03*
X90000000Y-88000000D03*
%TD*%
D20*
%TO.C,J7*%
X78400000Y-112980000D03*
D21*
X78400000Y-115520000D03*
X78400000Y-118060000D03*
X78400000Y-120600000D03*
%TD*%
D41*
%TO.C,U1*%
X144500000Y-106150000D03*
X144900000Y-106150000D03*
X145300000Y-106150000D03*
X145700000Y-106150000D03*
X146100000Y-106150000D03*
X146500000Y-106150000D03*
X146900000Y-106150000D03*
X147300000Y-106150000D03*
X147700000Y-106150000D03*
X148100000Y-106150000D03*
D42*
X149050000Y-105200000D03*
X149050000Y-104800000D03*
X149050000Y-104400000D03*
X149050000Y-104000000D03*
X149050000Y-103600000D03*
X149050000Y-103200000D03*
X149050000Y-102800000D03*
X149050000Y-102400000D03*
X149050000Y-102000000D03*
X149050000Y-101600000D03*
D41*
X148100000Y-100650000D03*
X147700000Y-100650000D03*
X147300000Y-100650000D03*
X146900000Y-100650000D03*
X146500000Y-100650000D03*
X146100000Y-100650000D03*
X145700000Y-100650000D03*
X145300000Y-100650000D03*
X144900000Y-100650000D03*
X144500000Y-100650000D03*
D42*
X143550000Y-101600000D03*
X143550000Y-102000000D03*
X143550000Y-102400000D03*
X143550000Y-102800000D03*
X143550000Y-103200000D03*
X143550000Y-103600000D03*
X143550000Y-104000000D03*
X143550000Y-104400000D03*
X143550000Y-104800000D03*
X143550000Y-105200000D03*
D43*
X145425000Y-104275000D03*
X146300000Y-104275000D03*
X147175000Y-104275000D03*
X145425000Y-103400000D03*
X146300000Y-103400000D03*
D44*
X146300000Y-103400000D03*
D43*
X147175000Y-103400000D03*
X145425000Y-102525000D03*
X146300000Y-102525000D03*
X147175000Y-102525000D03*
%TD*%
D19*
%TO.C,C10*%
X101000000Y-80800000D03*
X101000000Y-82525000D03*
%TD*%
D17*
%TO.C,C45*%
X123125000Y-85300000D03*
X124850000Y-85300000D03*
%TD*%
D45*
%TO.C,H3*%
X80000000Y-127000000D03*
%TD*%
D16*
%TO.C,R14*%
X127575000Y-106700000D03*
X129400000Y-106700000D03*
%TD*%
D46*
%TO.C,C36*%
X101075000Y-113300000D03*
X103150000Y-113300000D03*
%TD*%
D47*
%TO.C,Y1*%
X133825000Y-102200000D03*
X131625000Y-102200000D03*
X131625000Y-103900000D03*
X133825000Y-103900000D03*
%TD*%
D45*
%TO.C,H1*%
X150000000Y-76000000D03*
%TD*%
D48*
%TO.C,C4*%
X152600000Y-103200000D03*
X152600000Y-105275000D03*
%TD*%
D35*
%TO.C,R23*%
X104800000Y-114925000D03*
X104800000Y-113100000D03*
%TD*%
%TO.C,R1*%
X121700000Y-94425000D03*
X121700000Y-92600000D03*
%TD*%
D49*
%TO.C,U5*%
X110695000Y-114450000D03*
X111965000Y-114450000D03*
X113235000Y-114450000D03*
X114505000Y-114450000D03*
X114505000Y-107250000D03*
X113235000Y-107250000D03*
X111965000Y-107250000D03*
X110695000Y-107250000D03*
%TD*%
D19*
%TO.C,C21*%
X123200000Y-92625000D03*
X123200000Y-94350000D03*
%TD*%
D22*
%TO.C,C19*%
X126100000Y-110000000D03*
X126100000Y-108275000D03*
%TD*%
D16*
%TO.C,R20*%
X104537500Y-75950000D03*
X106362500Y-75950000D03*
%TD*%
D17*
%TO.C,C12*%
X85137500Y-92200000D03*
X86862500Y-92200000D03*
%TD*%
D19*
%TO.C,C6*%
X108125000Y-117925000D03*
X108125000Y-119650000D03*
%TD*%
D10*
%TO.C,C2*%
X94625000Y-78700000D03*
X92900000Y-78700000D03*
%TD*%
D50*
%TO.C,U8*%
X97075000Y-80250000D03*
X97075000Y-81200000D03*
X97075000Y-82150000D03*
X99350000Y-82150000D03*
X99350000Y-80250000D03*
%TD*%
D51*
%TO.C,C34*%
X118450000Y-84300000D03*
X118450000Y-81350000D03*
%TD*%
D17*
%TO.C,C38*%
X127437500Y-118400000D03*
X129162500Y-118400000D03*
%TD*%
D45*
%TO.C,H4*%
X80000000Y-76000000D03*
%TD*%
D22*
%TO.C,C18*%
X117600000Y-108225000D03*
X117600000Y-106500000D03*
%TD*%
D20*
%TO.C,J5*%
X141500000Y-77252500D03*
D21*
X141500000Y-79792500D03*
X141500000Y-82332500D03*
X141500000Y-84872500D03*
X141500000Y-87412500D03*
%TD*%
D52*
%TO.C,J3*%
X81760000Y-84430000D03*
X81760000Y-90210000D03*
D53*
X82900000Y-84120000D03*
X82900000Y-84920000D03*
D54*
X82900000Y-86070000D03*
X82900000Y-87070000D03*
X82900000Y-87570000D03*
X82900000Y-88570000D03*
D53*
X82900000Y-89720000D03*
X82900000Y-90520000D03*
X82900000Y-90520000D03*
X82900000Y-89720000D03*
D54*
X82900000Y-89070000D03*
X82900000Y-88070000D03*
X82900000Y-86570000D03*
X82900000Y-85570000D03*
D53*
X82900000Y-84920000D03*
X82900000Y-84120000D03*
D55*
X82260000Y-83000000D03*
D56*
X78080000Y-83000000D03*
D55*
X82260000Y-91640000D03*
D56*
X78080000Y-91640000D03*
%TD*%
D37*
%TO.C,R7*%
X124600000Y-108200000D03*
X124600000Y-110025000D03*
%TD*%
D57*
%TO.C,J9*%
X131620000Y-91100000D03*
D58*
X131620000Y-89830000D03*
X132890000Y-91100000D03*
X132890000Y-89830000D03*
X134160000Y-91100000D03*
X134160000Y-89830000D03*
X135430000Y-91100000D03*
X135430000Y-89830000D03*
X136700000Y-91100000D03*
X136700000Y-89830000D03*
%TD*%
D17*
%TO.C,C30*%
X114300000Y-79750000D03*
X116025000Y-79750000D03*
%TD*%
D19*
%TO.C,C32*%
X105250000Y-80400000D03*
X105250000Y-82125000D03*
%TD*%
D10*
%TO.C,C20*%
X131075000Y-99100000D03*
X129350000Y-99100000D03*
%TD*%
D14*
%TO.C,R28*%
X141925000Y-119600000D03*
X140100000Y-119600000D03*
%TD*%
D59*
%TO.C,U4*%
X111625000Y-117350000D03*
D60*
X111125000Y-117550000D03*
D59*
X110625000Y-117350000D03*
D61*
X109875000Y-118387500D03*
D62*
X110025000Y-118887500D03*
D63*
X110625000Y-119950000D03*
X111125000Y-119950000D03*
X111625000Y-119950000D03*
D64*
X112425000Y-118887500D03*
X112425000Y-118387500D03*
%TD*%
D17*
%TO.C,C37*%
X127437500Y-119900000D03*
X129162500Y-119900000D03*
%TD*%
D16*
%TO.C,R27*%
X135775000Y-119600000D03*
X137600000Y-119600000D03*
%TD*%
D35*
%TO.C,R2*%
X127200000Y-95900000D03*
X127200000Y-94075000D03*
%TD*%
D46*
%TO.C,C46*%
X121625000Y-90500000D03*
X123700000Y-90500000D03*
%TD*%
D65*
%TO.C,U9*%
X109750000Y-79445000D03*
D66*
X112450000Y-81350000D03*
X112450000Y-80080000D03*
X112450000Y-78810000D03*
X112450000Y-77540000D03*
X107050000Y-77540000D03*
X107050000Y-78810000D03*
X107050000Y-80080000D03*
X107050000Y-81350000D03*
%TD*%
D17*
%TO.C,C22*%
X117275000Y-95200000D03*
X119000000Y-95200000D03*
%TD*%
D10*
%TO.C,C40*%
X124900000Y-118400000D03*
X123175000Y-118400000D03*
%TD*%
%TO.C,C3*%
X141900000Y-106600000D03*
X140175000Y-106600000D03*
%TD*%
D37*
%TO.C,R13*%
X128400000Y-103125000D03*
X128400000Y-104950000D03*
%TD*%
D67*
%TO.C,U2*%
X88950000Y-89350000D03*
X88950000Y-89850000D03*
X88950000Y-90350000D03*
X88950000Y-90850000D03*
X91750000Y-90850000D03*
X91750000Y-90350000D03*
X91750000Y-89850000D03*
X91750000Y-89350000D03*
%TD*%
D45*
%TO.C,H2*%
X150000000Y-127000000D03*
%TD*%
D17*
%TO.C,C43*%
X94425000Y-100500000D03*
X96150000Y-100500000D03*
%TD*%
D16*
%TO.C,R16*%
X89000000Y-82200000D03*
X90825000Y-82200000D03*
%TD*%
%TO.C,R9*%
X85100000Y-84600000D03*
X86925000Y-84600000D03*
%TD*%
D19*
%TO.C,C29*%
X134500000Y-82437500D03*
X134500000Y-84162500D03*
%TD*%
D68*
%TO.C,C1*%
X141800000Y-100900000D03*
X141800000Y-98825000D03*
%TD*%
D69*
%TO.C,U7*%
X92500000Y-80250000D03*
X92500000Y-80900000D03*
X92500000Y-81550000D03*
X92500000Y-82200000D03*
X94775000Y-82200000D03*
X94775000Y-81550000D03*
X94775000Y-80900000D03*
X94775000Y-80250000D03*
%TD*%
D51*
%TO.C,C33*%
X115150000Y-84300000D03*
X115150000Y-81350000D03*
%TD*%
D16*
%TO.C,R10*%
X85100000Y-90700000D03*
X86925000Y-90700000D03*
%TD*%
D19*
%TO.C,C28*%
X129875000Y-102175000D03*
X129875000Y-103900000D03*
%TD*%
D10*
%TO.C,C41*%
X121225000Y-118400000D03*
X119500000Y-118400000D03*
%TD*%
D70*
%TO.C,U3*%
X119600000Y-104600000D03*
X120000000Y-104600000D03*
X120400000Y-104600000D03*
X120800000Y-104600000D03*
X121200000Y-104600000D03*
X121600000Y-104600000D03*
X122000000Y-104600000D03*
X122400000Y-104600000D03*
X122800000Y-104600000D03*
X123200000Y-104600000D03*
X123600000Y-104600000D03*
X124000000Y-104600000D03*
X124400000Y-104600000D03*
X124800000Y-104600000D03*
D71*
X125950000Y-103450000D03*
X125950000Y-103050000D03*
X125950000Y-102650000D03*
X125950000Y-102250000D03*
X125950000Y-101850000D03*
X125950000Y-101450000D03*
X125950000Y-101050000D03*
X125950000Y-100650000D03*
X125950000Y-100250000D03*
X125950000Y-99850000D03*
X125950000Y-99450000D03*
X125950000Y-99050000D03*
X125950000Y-98650000D03*
X125950000Y-98250000D03*
D70*
X124800000Y-97100000D03*
X124400000Y-97100000D03*
X124000000Y-97100000D03*
X123600000Y-97100000D03*
X123200000Y-97100000D03*
X122800000Y-97100000D03*
X122400000Y-97100000D03*
X122000000Y-97100000D03*
X121600000Y-97100000D03*
X121200000Y-97100000D03*
X120800000Y-97100000D03*
X120400000Y-97100000D03*
X120000000Y-97100000D03*
X119600000Y-97100000D03*
D71*
X118450000Y-98250000D03*
X118450000Y-98650000D03*
X118450000Y-99050000D03*
X118450000Y-99450000D03*
X118450000Y-99850000D03*
X118450000Y-100250000D03*
X118450000Y-100650000D03*
X118450000Y-101050000D03*
X118450000Y-101450000D03*
X118450000Y-101850000D03*
X118450000Y-102250000D03*
X118450000Y-102650000D03*
X118450000Y-103050000D03*
X118450000Y-103450000D03*
D72*
X122200000Y-100850000D03*
%TD*%
D27*
%TO.C,C31*%
X105100000Y-78400000D03*
X103025000Y-78400000D03*
%TD*%
M02*
